IBM Plex Serif-Italic.ufo
<glyph name="exclam" format="1">
  <advance width="254"/>
  <unicode hex="0021"/>
  <outline>
    <contour>
      <point x="67" y="-12" type="curve" smooth="yes" name="hr00"/>
      <point x="100" y="-12"/>
      <point x="127" y="8"/>
      <point x="136" y="41" type="curve" smooth="yes"/>
      <point x="139" y="53"/>
      <point x="139" y="58"/>
      <point x="139" y="64" type="curve" smooth="yes"/>
      <point x="139" y="90"/>
      <point x="120" y="114"/>
      <point x="85" y="114" type="curve" smooth="yes"/>
      <point x="52" y="114"/>
      <point x="25" y="94"/>
      <point x="16" y="61" type="curve" smooth="yes"/>
      <point x="13" y="49"/>
      <point x="13" y="44"/>
      <point x="13" y="38" type="curve" smooth="yes"/>
      <point x="13" y="12"/>
      <point x="32" y="-12"/>
    </contour>
    <contour>
      <point x="91" y="184" type="line"/>
      <point x="124" y="184" type="line"/>
      <point x="224" y="487" type="line"/>
      <point x="277" y="698" type="line"/>
      <point x="196" y="698" type="line"/>
      <point x="143" y="487" type="line"/>
    </contour>
  </outline>
</glyph>
<glyph name="numbersign" format="1">
  <advance width="641"/>
  <unicode hex="0023"/>
  <outline>
    <contour>
      <point x="69" y="0" type="line" name="hr00"/>
      <point x="124" y="0" type="line"/>
      <point x="211" y="213" type="line"/>
      <point x="359" y="213" type="line"/>
      <point x="272" y="0" type="line"/>
      <point x="327" y="0" type="line"/>
      <point x="414" y="213" type="line"/>
      <point x="538" y="213" type="line"/>
      <point x="549" y="258" type="line"/>
      <point x="433" y="258" type="line"/>
      <point x="506" y="440" type="line"/>
      <point x="631" y="440" type="line"/>
      <point x="642" y="485" type="line"/>
      <point x="524" y="485" type="line"/>
      <point x="611" y="698" type="line"/>
      <point x="556" y="698" type="line"/>
      <point x="469" y="485" type="line"/>
      <point x="321" y="485" type="line"/>
      <point x="408" y="698" type="line"/>
      <point x="353" y="698" type="line"/>
      <point x="266" y="485" type="line"/>
      <point x="142" y="485" type="line"/>
      <point x="131" y="440" type="line"/>
      <point x="247" y="440" type="line"/>
      <point x="174" y="258" type="line"/>
      <point x="50" y="258" type="line"/>
      <point x="39" y="213" type="line"/>
      <point x="156" y="213" type="line"/>
    </contour>
    <contour>
      <point x="302" y="440" type="line"/>
      <point x="451" y="440" type="line"/>
      <point x="378" y="258" type="line"/>
      <point x="229" y="258" type="line"/>
    </contour>
  </outline>
</glyph>
<glyph name="dollar" format="1">
  <advance width="539"/>
  <unicode hex="0024"/>
  <outline>
    <contour>
      <point x="161" y="-82" type="line" name="hr00"/>
      <point x="208" y="-82" type="line"/>
      <point x="227" y="-4" type="line" smooth="yes"/>
      <point x="376" y="2"/>
      <point x="475" y="104"/>
      <point x="475" y="227" type="curve" smooth="yes"/>
      <point x="475" y="304"/>
      <point x="439" y="347"/>
      <point x="350" y="386" type="curve" smooth="yes"/>
      <point x="326" y="396" type="line"/>
      <point x="393" y="660" type="line"/>
      <point x="436" y="658"/>
      <point x="459" y="650"/>
      <point x="482" y="638" type="curve"/>
      <point x="481" y="633" type="line"/>
      <point x="445" y="623"/>
      <point x="425" y="594"/>
      <point x="425" y="561" type="curve" smooth="yes"/>
      <point x="425" y="531"/>
      <point x="445" y="510"/>
      <point x="478" y="510" type="curve" smooth="yes"/>
      <point x="520" y="510"/>
      <point x="545" y="548"/>
      <point x="545" y="589" type="curve" smooth="yes"/>
      <point x="545" y="654"/>
      <point x="488" y="694"/>
      <point x="404" y="702" type="curve"/>
      <point x="423" y="780" type="line"/>
      <point x="376" y="780" type="line"/>
      <point x="356" y="702" type="line"/>
      <point x="222" y="697"/>
      <point x="124" y="616"/>
      <point x="124" y="498" type="curve" smooth="yes"/>
      <point x="124" y="415"/>
      <point x="167" y="376"/>
      <point x="254" y="337" type="curve" smooth="yes"/>
      <point x="265" y="332" type="line"/>
      <point x="191" y="38" type="line"/>
      <point x="131" y="39"/>
      <point x="104" y="47"/>
      <point x="81" y="60" type="curve"/>
      <point x="81" y="65" type="line"/>
      <point x="118" y="75"/>
      <point x="138" y="104"/>
      <point x="138" y="137" type="curve" smooth="yes"/>
      <point x="138" y="167"/>
      <point x="118" y="188"/>
      <point x="85" y="188" type="curve" smooth="yes"/>
      <point x="43" y="188"/>
      <point x="18" y="150"/>
      <point x="18" y="109" type="curve" smooth="yes"/>
      <point x="18" y="42"/>
      <point x="76" y="1"/>
      <point x="180" y="-4" type="curve"/>
    </contour>
    <contour>
      <point x="306" y="315" type="line"/>
      <point x="367" y="289"/>
      <point x="401" y="262"/>
      <point x="401" y="202" type="curve" smooth="yes"/>
      <point x="401" y="118"/>
      <point x="332" y="50"/>
      <point x="238" y="40" type="curve"/>
    </contour>
    <contour>
      <point x="285" y="413" type="line"/>
      <point x="230" y="438"/>
      <point x="198" y="467"/>
      <point x="198" y="520" type="curve" smooth="yes"/>
      <point x="198" y="586"/>
      <point x="249" y="650"/>
      <point x="347" y="658" type="curve"/>
    </contour>
  </outline>
</glyph>
<glyph name="percent" format="1">
  <advance width="836"/>
  <unicode hex="0025"/>
  <outline>
    <contour>
      <point x="220" y="351" type="curve" smooth="yes" name="hr00"/>
      <point x="188" y="351"/>
      <point x="166" y="371"/>
      <point x="166" y="417" type="curve" smooth="yes"/>
      <point x="166" y="451"/>
      <point x="184" y="517"/>
      <point x="191" y="542" type="curve" smooth="yes"/>
      <point x="213" y="631"/>
      <point x="251" y="673"/>
      <point x="305" y="673" type="curve" smooth="yes"/>
      <point x="337" y="673"/>
      <point x="359" y="653"/>
      <point x="359" y="607" type="curve" smooth="yes"/>
      <point x="359" y="573"/>
      <point x="341" y="507"/>
      <point x="334" y="482" type="curve" smooth="yes"/>
      <point x="312" y="393"/>
      <point x="274" y="351"/>
    </contour>
    <contour>
      <point x="577" y="25" type="curve" smooth="yes"/>
      <point x="545" y="25"/>
      <point x="523" y="45"/>
      <point x="523" y="91" type="curve" smooth="yes"/>
      <point x="523" y="125"/>
      <point x="541" y="191"/>
      <point x="548" y="216" type="curve" smooth="yes"/>
      <point x="570" y="305"/>
      <point x="608" y="347"/>
      <point x="662" y="347" type="curve" smooth="yes"/>
      <point x="694" y="347"/>
      <point x="716" y="327"/>
      <point x="716" y="281" type="curve" smooth="yes"/>
      <point x="716" y="247"/>
      <point x="698" y="181"/>
      <point x="691" y="156" type="curve" smooth="yes"/>
      <point x="669" y="67"/>
      <point x="631" y="25"/>
    </contour>
    <contour>
      <point x="216" y="314" type="curve" smooth="yes"/>
      <point x="361" y="314"/>
      <point x="421" y="488"/>
      <point x="421" y="588" type="curve" smooth="yes"/>
      <point x="421" y="676"/>
      <point x="374" y="710"/>
      <point x="309" y="710" type="curve" smooth="yes"/>
      <point x="164" y="710"/>
      <point x="104" y="536"/>
      <point x="104" y="436" type="curve" smooth="yes"/>
      <point x="104" y="348"/>
      <point x="151" y="314"/>
    </contour>
    <contour>
      <point x="573" y="-12" type="curve" smooth="yes"/>
      <point x="718" y="-12"/>
      <point x="778" y="162"/>
      <point x="778" y="262" type="curve" smooth="yes"/>
      <point x="778" y="350"/>
      <point x="731" y="384"/>
      <point x="666" y="384" type="curve" smooth="yes"/>
      <point x="521" y="384"/>
      <point x="461" y="210"/>
      <point x="461" y="110" type="curve" smooth="yes"/>
      <point x="461" y="22"/>
      <point x="508" y="-12"/>
    </contour>
    <contour>
      <point x="104" y="0" type="line"/>
      <point x="160" y="0" type="line"/>
      <point x="774" y="698" type="line"/>
      <point x="718" y="698" type="line"/>
    </contour>
  </outline>
</glyph>
<glyph name="ampersand" format="1">
  <advance width="655"/>
  <unicode hex="0026"/>
  <outline>
    <contour>
      <point x="214" y="-12" type="curve" smooth="yes" name="hr00"/>
      <point x="280" y="-12"/>
      <point x="345" y="12"/>
      <point x="400" y="59" type="curve"/>
      <point x="425" y="19"/>
      <point x="450" y="0"/>
      <point x="497" y="0" type="curve" smooth="yes"/>
      <point x="562" y="0" type="line"/>
      <point x="572" y="41" type="line"/>
      <point x="517" y="41"/>
      <point x="489" y="51"/>
      <point x="471" y="82" type="curve" smooth="yes"/>
      <point x="453" y="113" type="line"/>
      <point x="499" y="170"/>
      <point x="538" y="245"/>
      <point x="565" y="333" type="curve"/>
      <point x="633" y="333" type="line"/>
      <point x="643" y="374" type="line"/>
      <point x="459" y="374" type="line"/>
      <point x="449" y="333" type="line"/>
      <point x="516" y="333" type="line"/>
      <point x="498" y="264"/>
      <point x="467" y="201"/>
      <point x="430" y="153" type="curve"/>
      <point x="305" y="372" type="line"/>
      <point x="414" y="426"/>
      <point x="524" y="498"/>
      <point x="524" y="598" type="curve" smooth="yes"/>
      <point x="524" y="674"/>
      <point x="471" y="710"/>
      <point x="387" y="710" type="curve" smooth="yes"/>
      <point x="265" y="710"/>
      <point x="173" y="624"/>
      <point x="173" y="508" type="curve" smooth="yes"/>
      <point x="173" y="470"/>
      <point x="183" y="440"/>
      <point x="209" y="394" type="curve" smooth="yes"/>
      <point x="220" y="374" type="line"/>
      <point x="103" y="315"/>
      <point x="22" y="254"/>
      <point x="22" y="131" type="curve" smooth="yes"/>
      <point x="22" y="43"/>
      <point x="84" y="-12"/>
    </contour>
    <contour>
      <point x="286" y="405" type="curve"/>
      <point x="262" y="448"/>
      <point x="250" y="483"/>
      <point x="250" y="521" type="curve" smooth="yes"/>
      <point x="250" y="536"/>
      <point x="253" y="548"/>
      <point x="256" y="559" type="curve" smooth="yes"/>
      <point x="271" y="617"/>
      <point x="318" y="669"/>
      <point x="383" y="669" type="curve" smooth="yes"/>
      <point x="426" y="669"/>
      <point x="451" y="642"/>
      <point x="451" y="599" type="curve" smooth="yes"/>
      <point x="451" y="582"/>
      <point x="447" y="570"/>
      <point x="444" y="557" type="curve" smooth="yes"/>
      <point x="431" y="501"/>
      <point x="376" y="452"/>
    </contour>
    <contour>
      <point x="221" y="34" type="curve" smooth="yes"/>
      <point x="155" y="34"/>
      <point x="107" y="65"/>
      <point x="107" y="131" type="curve" smooth="yes"/>
      <point x="107" y="144"/>
      <point x="112" y="171"/>
      <point x="114" y="180" type="curve" smooth="yes"/>
      <point x="129" y="252"/>
      <point x="166" y="297"/>
      <point x="239" y="339" type="curve"/>
      <point x="379" y="94" type="line"/>
      <point x="334" y="57"/>
      <point x="280" y="34"/>
    </contour>
  </outline>
</glyph>
<glyph name="quotesingle" format="1">
  <advance width="216"/>
  <unicode hex="0027"/>
  <outline>
    <contour>
      <point x="147" y="471" type="line" name="hr00"/>
      <point x="176" y="471" type="line"/>
      <point x="244" y="659" type="line"/>
      <point x="267" y="748" type="line"/>
      <point x="197" y="748" type="line"/>
      <point x="174" y="659" type="line"/>
    </contour>
  </outline>
</glyph>
<glyph name="parenleft" format="1">
  <advance width="298"/>
  <unicode hex="0028"/>
  <outline>
    <contour>
      <point x="175" y="-154" type="curve" name="hr00"/>
      <point x="202" y="-131" type="line"/>
      <point x="149" y="-75"/>
      <point x="123" y="15"/>
      <point x="123" y="115" type="curve" smooth="yes"/>
      <point x="123" y="163"/>
      <point x="129" y="214"/>
      <point x="142" y="266" type="curve" smooth="yes"/>
      <point x="162" y="344" type="line" smooth="yes"/>
      <point x="204" y="516"/>
      <point x="304" y="668"/>
      <point x="424" y="750" type="curve"/>
      <point x="405" y="778" type="line"/>
      <point x="278" y="701"/>
      <point x="120" y="528"/>
      <point x="68" y="323" type="curve" smooth="yes"/>
      <point x="55" y="269"/>
      <point x="49" y="217"/>
      <point x="49" y="169" type="curve" smooth="yes"/>
      <point x="49" y="18"/>
      <point x="109" y="-97"/>
    </contour>
  </outline>
</glyph>
<glyph name="parenright" format="1">
  <advance width="298"/>
  <unicode hex="0029"/>
  <outline>
    <contour>
      <point x="-82" y="-154" type="line" name="hr00"/>
      <point x="45" y="-77"/>
      <point x="203" y="96"/>
      <point x="255" y="301" type="curve" smooth="yes"/>
      <point x="268" y="355"/>
      <point x="274" y="407"/>
      <point x="274" y="455" type="curve" smooth="yes"/>
      <point x="274" y="606"/>
      <point x="214" y="721"/>
      <point x="148" y="778" type="curve"/>
      <point x="121" y="755" type="line"/>
      <point x="174" y="699"/>
      <point x="200" y="609"/>
      <point x="200" y="509" type="curve" smooth="yes"/>
      <point x="200" y="461"/>
      <point x="194" y="410"/>
      <point x="181" y="358" type="curve" smooth="yes"/>
      <point x="161" y="280" type="line" smooth="yes"/>
      <point x="119" y="108"/>
      <point x="19" y="-44"/>
      <point x="-101" y="-126" type="curve"/>
    </contour>
  </outline>
</glyph>
<glyph name="asterisk" format="1">
  <advance width="420"/>
  <unicode hex="002A"/>
  <outline>
    <contour>
      <point x="176" y="417" type="line" name="hr00"/>
      <point x="214" y="455" type="line"/>
      <point x="271" y="541" type="line"/>
      <point x="253" y="556" type="line"/>
      <point x="163" y="495" type="line"/>
      <point x="125" y="457" type="line"/>
    </contour>
    <contour>
      <point x="253" y="577" type="line"/>
      <point x="264" y="596" type="line"/>
      <point x="193" y="643" type="line"/>
      <point x="151" y="657" type="line"/>
      <point x="115" y="599" type="line"/>
      <point x="158" y="585" type="line"/>
    </contour>
    <contour>
      <point x="326" y="417" type="line"/>
      <point x="389" y="452" type="line"/>
      <point x="371" y="490" type="line"/>
      <point x="311" y="554" type="line"/>
      <point x="290" y="543" type="line"/>
      <point x="308" y="455" type="line"/>
    </contour>
    <contour>
      <point x="286" y="611" type="line"/>
      <point x="310" y="611" type="line"/>
      <point x="355" y="700" type="line"/>
      <point x="366" y="747" type="line"/>
      <point x="296" y="747" type="line"/>
      <point x="284" y="700" type="line"/>
    </contour>
    <contour>
      <point x="327" y="575" type="line"/>
      <point x="421" y="581" type="line"/>
      <point x="469" y="595" type="line"/>
      <point x="463" y="659" type="line"/>
      <point x="414" y="645" type="line"/>
      <point x="324" y="597" type="line"/>
    </contour>
  </outline>
</glyph>
<glyph name="plus" format="1">
  <advance width="550"/>
  <unicode hex="002B"/>
  <outline>
    <contour>
      <point x="201" y="76" type="line" name="hr00"/>
      <point x="255" y="76" type="line"/>
      <point x="307" y="281" type="line"/>
      <point x="495" y="281" type="line"/>
      <point x="507" y="329" type="line"/>
      <point x="320" y="329" type="line"/>
      <point x="372" y="534" type="line"/>
      <point x="318" y="534" type="line"/>
      <point x="266" y="329" type="line"/>
      <point x="78" y="329" type="line"/>
      <point x="66" y="281" type="line"/>
      <point x="253" y="281" type="line"/>
    </contour>
  </outline>
</glyph>
<glyph name="comma" format="1">
  <advance width="244"/>
  <unicode hex="002C"/>
  <outline>
    <contour>
      <point x="-48" y="-136" type="curve" name="hr00"/>
      <point x="-2" y="-136" type="line"/>
      <point x="52" y="-98"/>
      <point x="117" y="-26"/>
      <point x="134" y="31" type="curve" smooth="yes"/>
      <point x="137" y="43"/>
      <point x="139" y="53"/>
      <point x="139" y="61" type="curve" smooth="yes"/>
      <point x="139" y="89"/>
      <point x="119" y="114"/>
      <point x="84" y="114" type="curve" smooth="yes"/>
      <point x="54" y="114"/>
      <point x="29" y="95"/>
      <point x="18" y="70" type="curve" smooth="yes"/>
      <point x="14" y="60"/>
      <point x="12" y="50"/>
      <point x="12" y="40" type="curve" smooth="yes"/>
      <point x="12" y="15"/>
      <point x="31" y="-10"/>
      <point x="59" y="-10" type="curve"/>
      <point x="39" y="-49"/>
      <point x="-1" y="-98"/>
    </contour>
  </outline>
</glyph>
<glyph name="hyphen" format="1">
  <advance width="360"/>
  <unicode hex="002D"/>
  <outline>
    <contour>
      <point x="61" y="275" type="line" name="hr00"/>
      <point x="306" y="275" type="line"/>
      <point x="321" y="335" type="line"/>
      <point x="76" y="335" type="line"/>
    </contour>
  </outline>
</glyph>
<glyph name="period" format="1">
  <advance width="244"/>
  <unicode hex="002E"/>
  <outline>
    <contour>
      <point x="63" y="-12" type="curve" smooth="yes" name="hr00"/>
      <point x="96" y="-12"/>
      <point x="123" y="8"/>
      <point x="132" y="41" type="curve" smooth="yes"/>
      <point x="135" y="53"/>
      <point x="135" y="58"/>
      <point x="135" y="64" type="curve" smooth="yes"/>
      <point x="135" y="90"/>
      <point x="116" y="114"/>
      <point x="81" y="114" type="curve" smooth="yes"/>
      <point x="48" y="114"/>
      <point x="21" y="94"/>
      <point x="12" y="61" type="curve" smooth="yes"/>
      <point x="9" y="49"/>
      <point x="9" y="44"/>
      <point x="9" y="38" type="curve" smooth="yes"/>
      <point x="9" y="12"/>
      <point x="28" y="-12"/>
    </contour>
  </outline>
</glyph>
<glyph name="slash" format="1">
  <advance width="350"/>
  <unicode hex="002F"/>
  <outline>
    <contour>
      <point x="-89" y="-143" type="line" name="hr00"/>
      <point x="-28" y="-143" type="line"/>
      <point x="434" y="748" type="line"/>
      <point x="373" y="748" type="line"/>
    </contour>
  </outline>
</glyph>
<glyph name="zero" format="1">
  <advance width="550"/>
  <unicode hex="0030"/>
  <outline>
    <contour>
      <point x="215" y="33" type="curve" smooth="yes" name="hr00"/>
      <point x="148" y="33"/>
      <point x="121" y="78"/>
      <point x="121" y="150" type="curve" smooth="yes"/>
      <point x="121" y="209"/>
      <point x="136" y="260"/>
      <point x="175" y="413" type="curve" smooth="yes"/>
      <point x="213" y="570"/>
      <point x="273" y="665"/>
      <point x="379" y="665" type="curve" smooth="yes"/>
      <point x="446" y="665"/>
      <point x="473" y="620"/>
      <point x="473" y="548" type="curve" smooth="yes"/>
      <point x="473" y="489"/>
      <point x="458" y="438"/>
      <point x="419" y="285" type="curve" smooth="yes"/>
      <point x="381" y="128"/>
      <point x="321" y="33"/>
    </contour>
    <contour>
      <point x="213" y="-12" type="curve" smooth="yes"/>
      <point x="460" y="-12"/>
      <point x="547" y="364"/>
      <point x="547" y="512" type="curve" smooth="yes"/>
      <point x="547" y="642"/>
      <point x="491" y="710"/>
      <point x="381" y="710" type="curve" smooth="yes"/>
      <point x="134" y="710"/>
      <point x="47" y="334"/>
      <point x="47" y="186" type="curve" smooth="yes"/>
      <point x="47" y="56"/>
      <point x="103" y="-12"/>
    </contour>
  </outline>
</glyph>
<glyph name="one" format="1">
  <advance width="550"/>
  <unicode hex="0031"/>
  <outline>
    <contour>
      <point x="40" y="0" type="line" name="hr00"/>
      <point x="425" y="0" type="line"/>
      <point x="435" y="41" type="line"/>
      <point x="285" y="41" type="line"/>
      <point x="449" y="698" type="line"/>
      <point x="377" y="698" type="line"/>
      <point x="167" y="595" type="line"/>
      <point x="171" y="553" type="line"/>
      <point x="349" y="633" type="line"/>
      <point x="202" y="41" type="line"/>
      <point x="50" y="41" type="line"/>
    </contour>
  </outline>
</glyph>
<glyph name="two" format="1">
  <advance width="550"/>
  <unicode hex="0032"/>
  <outline>
    <contour>
      <point x="-10" y="0" type="line" name="hr00"/>
      <point x="407" y="0" type="line"/>
      <point x="451" y="174" type="line"/>
      <point x="404" y="174" type="line"/>
      <point x="376" y="65" type="line"/>
      <point x="78" y="65" type="line"/>
      <point x="81" y="72" type="line"/>
      <point x="295" y="242" type="line" smooth="yes"/>
      <point x="405" y="330"/>
      <point x="518" y="428"/>
      <point x="518" y="572" type="curve" smooth="yes"/>
      <point x="518" y="655"/>
      <point x="463" y="710"/>
      <point x="351" y="710" type="curve" smooth="yes"/>
      <point x="253" y="710"/>
      <point x="141" y="646"/>
      <point x="141" y="571" type="curve" smooth="yes"/>
      <point x="141" y="540"/>
      <point x="160" y="519"/>
      <point x="193" y="519" type="curve" smooth="yes"/>
      <point x="236" y="519"/>
      <point x="256" y="558"/>
      <point x="256" y="585" type="curve" smooth="yes"/>
      <point x="256" y="608"/>
      <point x="243" y="623"/>
      <point x="225" y="630" type="curve"/>
      <point x="227" y="637" type="line"/>
      <point x="251" y="652"/>
      <point x="284" y="664"/>
      <point x="335" y="664" type="curve" smooth="yes"/>
      <point x="396" y="664"/>
      <point x="430" y="626"/>
      <point x="430" y="571" type="curve" smooth="yes"/>
      <point x="430" y="551"/>
      <point x="423" y="529"/>
      <point x="419" y="514" type="curve" smooth="yes"/>
      <point x="396" y="425"/>
      <point x="344" y="358"/>
      <point x="267" y="290" type="curve" smooth="yes"/>
      <point x="4" y="57" type="line"/>
    </contour>
  </outline>
</glyph>
<glyph name="three" format="1">
  <advance width="550"/>
  <unicode hex="0033"/>
  <outline>
    <contour>
      <point x="187" y="-12" type="curve" smooth="yes" name="hr00"/>
      <point x="345" y="-12"/>
      <point x="464" y="95"/>
      <point x="464" y="233" type="curve" smooth="yes"/>
      <point x="464" y="302"/>
      <point x="420" y="349"/>
      <point x="352" y="365" type="curve"/>
      <point x="354" y="372" type="line"/>
      <point x="442" y="394"/>
      <point x="536" y="454"/>
      <point x="536" y="577" type="curve" smooth="yes"/>
      <point x="536" y="655"/>
      <point x="483" y="710"/>
      <point x="364" y="710" type="curve" smooth="yes"/>
      <point x="260" y="710"/>
      <point x="155" y="646"/>
      <point x="155" y="574" type="curve" smooth="yes"/>
      <point x="155" y="543"/>
      <point x="173" y="523"/>
      <point x="206" y="523" type="curve" smooth="yes"/>
      <point x="248" y="523"/>
      <point x="269" y="561"/>
      <point x="269" y="588" type="curve" smooth="yes"/>
      <point x="269" y="612"/>
      <point x="258" y="626"/>
      <point x="238" y="633" type="curve"/>
      <point x="241" y="641" type="line"/>
      <point x="267" y="657"/>
      <point x="311" y="664"/>
      <point x="350" y="664" type="curve" smooth="yes"/>
      <point x="424" y="664"/>
      <point x="451" y="630"/>
      <point x="451" y="588" type="curve" smooth="yes"/>
      <point x="451" y="565"/>
      <point x="442" y="535"/>
      <point x="437" y="514" type="curve" smooth="yes"/>
      <point x="419" y="441"/>
      <point x="359" y="387"/>
      <point x="267" y="387" type="curve" smooth="yes"/>
      <point x="204" y="387" type="line"/>
      <point x="192" y="341" type="line"/>
      <point x="263" y="341" type="line" smooth="yes"/>
      <point x="324" y="341"/>
      <point x="378" y="318"/>
      <point x="378" y="249" type="curve" smooth="yes"/>
      <point x="378" y="229"/>
      <point x="369" y="191"/>
      <point x="365" y="177" type="curve" smooth="yes"/>
      <point x="342" y="85"/>
      <point x="274" y="33"/>
      <point x="176" y="33" type="curve" smooth="yes"/>
      <point x="137" y="33"/>
      <point x="101" y="40"/>
      <point x="80" y="62" type="curve"/>
      <point x="83" y="70" type="line"/>
      <point x="101" y="73"/>
      <point x="138" y="90"/>
      <point x="138" y="129" type="curve" smooth="yes"/>
      <point x="138" y="155"/>
      <point x="122" y="178"/>
      <point x="87" y="178" type="curve" smooth="yes"/>
      <point x="54" y="178"/>
      <point x="23" y="151"/>
      <point x="23" y="104" type="curve" smooth="yes"/>
      <point x="23" y="52"/>
      <point x="71" y="-12"/>
    </contour>
  </outline>
</glyph>
<glyph name="four" format="1">
  <advance width="550"/>
  <unicode hex="0034"/>
  <outline>
    <contour>
      <point x="267" y="0" type="line" name="hr00"/>
      <point x="346" y="0" type="line"/>
      <point x="382" y="142" type="line"/>
      <point x="473" y="142" type="line"/>
      <point x="486" y="197" type="line"/>
      <point x="395" y="197" type="line"/>
      <point x="521" y="698" type="line"/>
      <point x="441" y="698" type="line"/>
      <point x="22" y="195" type="line"/>
      <point x="9" y="142" type="line"/>
      <point x="303" y="142" type="line"/>
    </contour>
    <contour>
      <point x="415" y="607" type="line"/>
      <point x="419" y="607" type="line"/>
      <point x="316" y="197" type="line"/>
      <point x="77" y="197" type="line"/>
    </contour>
  </outline>
</glyph>
<glyph name="five" format="1">
  <advance width="550"/>
  <unicode hex="0035"/>
  <outline>
    <contour>
      <point x="206" y="-12" type="curve" smooth="yes" name="hr00"/>
      <point x="350" y="-12"/>
      <point x="477" y="116"/>
      <point x="477" y="278" type="curve" smooth="yes"/>
      <point x="477" y="390"/>
      <point x="400" y="428"/>
      <point x="324" y="428" type="curve" smooth="yes"/>
      <point x="254" y="428"/>
      <point x="200" y="392"/>
      <point x="167" y="342" type="curve"/>
      <point x="159" y="342" type="line"/>
      <point x="246" y="630" type="line"/>
      <point x="544" y="630" type="line"/>
      <point x="561" y="698" type="line"/>
      <point x="224" y="698" type="line"/>
      <point x="107" y="318" type="line"/>
      <point x="155" y="307" type="line"/>
      <point x="183" y="342"/>
      <point x="228" y="375"/>
      <point x="286" y="375" type="curve" smooth="yes"/>
      <point x="344" y="375"/>
      <point x="390" y="346"/>
      <point x="390" y="270" type="curve" smooth="yes"/>
      <point x="390" y="243"/>
      <point x="381" y="211"/>
      <point x="378" y="199" type="curve" smooth="yes"/>
      <point x="352" y="96"/>
      <point x="288" y="33"/>
      <point x="191" y="33" type="curve" smooth="yes"/>
      <point x="151" y="33"/>
      <point x="118" y="40"/>
      <point x="96" y="62" type="curve"/>
      <point x="99" y="70" type="line"/>
      <point x="119" y="74"/>
      <point x="154" y="90"/>
      <point x="154" y="129" type="curve" smooth="yes"/>
      <point x="154" y="155"/>
      <point x="138" y="178"/>
      <point x="104" y="178" type="curve" smooth="yes"/>
      <point x="70" y="178"/>
      <point x="39" y="151"/>
      <point x="39" y="104" type="curve" smooth="yes"/>
      <point x="39" y="51"/>
      <point x="87" y="-12"/>
    </contour>
  </outline>
</glyph>
<glyph name="six" format="1">
  <advance width="550"/>
  <unicode hex="0036"/>
  <outline>
    <contour>
      <point x="214" y="-12" type="curve" smooth="yes" name="hr00"/>
      <point x="341" y="-12"/>
      <point x="487" y="94"/>
      <point x="487" y="279" type="curve" smooth="yes"/>
      <point x="487" y="381"/>
      <point x="427" y="428"/>
      <point x="345" y="428" type="curve" smooth="yes"/>
      <point x="261" y="428"/>
      <point x="206" y="380"/>
      <point x="174" y="332" type="curve"/>
      <point x="168" y="334" type="line"/>
      <point x="218" y="490"/>
      <point x="358" y="641"/>
      <point x="519" y="674" type="curve"/>
      <point x="516" y="710" type="line"/>
      <point x="213" y="650"/>
      <point x="48" y="374"/>
      <point x="48" y="157" type="curve" smooth="yes"/>
      <point x="48" y="46"/>
      <point x="109" y="-12"/>
    </contour>
    <contour>
      <point x="216" y="33" type="curve" smooth="yes"/>
      <point x="152" y="33"/>
      <point x="126" y="74"/>
      <point x="126" y="135" type="curve" smooth="yes"/>
      <point x="126" y="169"/>
      <point x="136" y="202"/>
      <point x="139" y="215" type="curve" smooth="yes"/>
      <point x="163" y="308"/>
      <point x="216" y="383"/>
      <point x="311" y="383" type="curve" smooth="yes"/>
      <point x="375" y="383"/>
      <point x="401" y="342"/>
      <point x="401" y="281" type="curve" smooth="yes"/>
      <point x="401" y="247"/>
      <point x="391" y="214"/>
      <point x="388" y="201" type="curve" smooth="yes"/>
      <point x="364" y="108"/>
      <point x="311" y="33"/>
    </contour>
  </outline>
</glyph>
<glyph name="seven" format="1">
  <advance width="550"/>
  <unicode hex="0037"/>
  <outline>
    <contour>
      <point x="97" y="0" type="line" name=""/>
      <point x="177" y="0" type="line"/>
      <point x="582" y="649" type="line"/>
      <point x="594" y="698" type="line"/>
      <point x="175" y="698" type="line"/>
      <point x="125" y="499" type="line"/>
      <point x="172" y="499" type="line"/>
      <point x="202" y="619" type="line"/>
      <point x="508" y="619" type="line"/>
    </contour>
  </outline>
</glyph>
<glyph name="eight" format="1">
  <advance width="550"/>
  <unicode hex="0038"/>
  <outline>
    <contour>
      <point x="216" y="-12" type="curve" smooth="yes" name="hr00"/>
      <point x="378" y="-12"/>
      <point x="482" y="106"/>
      <point x="482" y="228" type="curve" smooth="yes"/>
      <point x="482" y="297"/>
      <point x="442" y="342"/>
      <point x="372" y="360" type="curve"/>
      <point x="374" y="368" type="line"/>
      <point x="447" y="377"/>
      <point x="548" y="460"/>
      <point x="548" y="572" type="curve" smooth="yes"/>
      <point x="548" y="658"/>
      <point x="490" y="710"/>
      <point x="379" y="710" type="curve" smooth="yes"/>
      <point x="237" y="710"/>
      <point x="138" y="609"/>
      <point x="138" y="498" type="curve" smooth="yes"/>
      <point x="138" y="432"/>
      <point x="175" y="383"/>
      <point x="230" y="368" type="curve"/>
      <point x="228" y="361" type="line"/>
      <point x="138" y="347"/>
      <point x="30" y="270"/>
      <point x="30" y="141" type="curve" smooth="yes"/>
      <point x="30" y="49"/>
      <point x="93" y="-12"/>
    </contour>
    <contour>
      <point x="223" y="31" type="curve" smooth="yes"/>
      <point x="153" y="31"/>
      <point x="114" y="67"/>
      <point x="114" y="133" type="curve" smooth="yes"/>
      <point x="114" y="158"/>
      <point x="121" y="185"/>
      <point x="124" y="195" type="curve" smooth="yes"/>
      <point x="145" y="280"/>
      <point x="203" y="345"/>
      <point x="291" y="345" type="curve" smooth="yes"/>
      <point x="361" y="345"/>
      <point x="400" y="309"/>
      <point x="400" y="243" type="curve" smooth="yes"/>
      <point x="400" y="218"/>
      <point x="393" y="191"/>
      <point x="390" y="181" type="curve" smooth="yes"/>
      <point x="369" y="96"/>
      <point x="311" y="31"/>
    </contour>
    <contour>
      <point x="309" y="387" type="curve" smooth="yes"/>
      <point x="250" y="387"/>
      <point x="217" y="419"/>
      <point x="217" y="480" type="curve" smooth="yes"/>
      <point x="217" y="499"/>
      <point x="222" y="517"/>
      <point x="225" y="530" type="curve" smooth="yes"/>
      <point x="242" y="603"/>
      <point x="291" y="670"/>
      <point x="375" y="670" type="curve" smooth="yes"/>
      <point x="434" y="670"/>
      <point x="467" y="638"/>
      <point x="467" y="577" type="curve" smooth="yes"/>
      <point x="467" y="558"/>
      <point x="462" y="540"/>
      <point x="459" y="527" type="curve" smooth="yes"/>
      <point x="442" y="454"/>
      <point x="393" y="387"/>
    </contour>
  </outline>
</glyph>
<glyph name="nine" format="1">
  <advance width="550"/>
  <unicode hex="0039"/>
  <outline>
    <contour>
      <point x="80" y="-12" type="line" name="hr00"/>
      <point x="383" y="48"/>
      <point x="548" y="324"/>
      <point x="548" y="541" type="curve" smooth="yes"/>
      <point x="548" y="652"/>
      <point x="487" y="710"/>
      <point x="382" y="710" type="curve" smooth="yes"/>
      <point x="255" y="710"/>
      <point x="109" y="604"/>
      <point x="109" y="419" type="curve" smooth="yes"/>
      <point x="109" y="317"/>
      <point x="169" y="270"/>
      <point x="251" y="270" type="curve" smooth="yes"/>
      <point x="335" y="270"/>
      <point x="390" y="318"/>
      <point x="422" y="366" type="curve"/>
      <point x="428" y="364" type="line"/>
      <point x="378" y="208"/>
      <point x="238" y="57"/>
      <point x="77" y="24" type="curve"/>
    </contour>
    <contour>
      <point x="285" y="315" type="curve" smooth="yes"/>
      <point x="221" y="315"/>
      <point x="195" y="356"/>
      <point x="195" y="417" type="curve" smooth="yes"/>
      <point x="195" y="451"/>
      <point x="205" y="484"/>
      <point x="208" y="497" type="curve" smooth="yes"/>
      <point x="232" y="590"/>
      <point x="285" y="665"/>
      <point x="380" y="665" type="curve" smooth="yes"/>
      <point x="444" y="665"/>
      <point x="470" y="624"/>
      <point x="470" y="563" type="curve" smooth="yes"/>
      <point x="470" y="529"/>
      <point x="460" y="496"/>
      <point x="457" y="483" type="curve" smooth="yes"/>
      <point x="433" y="390"/>
      <point x="380" y="315"/>
    </contour>
  </outline>
</glyph>
<glyph name="less" format="1">
  <advance width="550"/>
  <unicode hex="003C"/>
  <outline>
    <contour>
      <point x="386" y="-12" type="line" name="hr00"/>
      <point x="398" y="38" type="line"/>
      <point x="137" y="256" type="line"/>
      <point x="139" y="263" type="line"/>
      <point x="508" y="481" type="line"/>
      <point x="524" y="544" type="line"/>
      <point x="92" y="295" type="line"/>
      <point x="77" y="235" type="line"/>
    </contour>
  </outline>
</glyph>
<glyph name="equal" format="1">
  <advance width="550"/>
  <unicode hex="003D"/>
  <outline>
    <contour>
      <point x="40" y="179" type="line" name="hr00"/>
      <point x="469" y="179" type="line"/>
      <point x="481" y="227" type="line"/>
      <point x="52" y="227" type="line"/>
    </contour>
    <contour>
      <point x="91" y="384" type="line"/>
      <point x="520" y="384" type="line"/>
      <point x="532" y="432" type="line"/>
      <point x="103" y="432" type="line"/>
    </contour>
  </outline>
</glyph>
<glyph name="greater" format="1">
  <advance width="550"/>
  <unicode hex="003E"/>
  <outline>
    <contour>
      <point x="32" y="-12" type="line" name="hr00"/>
      <point x="464" y="237" type="line"/>
      <point x="479" y="297" type="line"/>
      <point x="170" y="544" type="line"/>
      <point x="158" y="494" type="line"/>
      <point x="419" y="276" type="line"/>
      <point x="417" y="269" type="line"/>
      <point x="48" y="51" type="line"/>
    </contour>
  </outline>
</glyph>
<glyph name="question" format="1">
  <advance width="444"/>
  <unicode hex="003F"/>
  <outline>
    <contour>
      <point x="137" y="205" type="line" name="hr00"/>
      <point x="187" y="205" type="line"/>
      <point x="217" y="325" type="line"/>
      <point x="342" y="336"/>
      <point x="478" y="425"/>
      <point x="478" y="577" type="curve" smooth="yes"/>
      <point x="478" y="652"/>
      <point x="433" y="710"/>
      <point x="323" y="710" type="curve" smooth="yes"/>
      <point x="227" y="710"/>
      <point x="111" y="653"/>
      <point x="111" y="574" type="curve" smooth="yes"/>
      <point x="111" y="543"/>
      <point x="131" y="523"/>
      <point x="163" y="523" type="curve" smooth="yes"/>
      <point x="205" y="523"/>
      <point x="226" y="561"/>
      <point x="226" y="587" type="curve" smooth="yes"/>
      <point x="226" y="613"/>
      <point x="213" y="627"/>
      <point x="195" y="634" type="curve"/>
      <point x="197" y="641" type="line"/>
      <point x="219" y="656"/>
      <point x="263" y="664"/>
      <point x="301" y="664" type="curve" smooth="yes"/>
      <point x="357" y="664"/>
      <point x="392" y="635"/>
      <point x="392" y="581" type="curve" smooth="yes"/>
      <point x="392" y="557"/>
      <point x="384" y="528"/>
      <point x="381" y="516" type="curve" smooth="yes"/>
      <point x="358" y="426"/>
      <point x="278" y="372"/>
      <point x="177" y="367" type="curve"/>
    </contour>
    <contour>
      <point x="118" y="-11" type="curve" smooth="yes"/>
      <point x="151" y="-11"/>
      <point x="178" y="9"/>
      <point x="187" y="42" type="curve" smooth="yes"/>
      <point x="190" y="54"/>
      <point x="190" y="59"/>
      <point x="190" y="65" type="curve" smooth="yes"/>
      <point x="190" y="91"/>
      <point x="171" y="115"/>
      <point x="136" y="115" type="curve" smooth="yes"/>
      <point x="103" y="115"/>
      <point x="76" y="95"/>
      <point x="67" y="62" type="curve" smooth="yes"/>
      <point x="64" y="50"/>
      <point x="64" y="45"/>
      <point x="64" y="39" type="curve" smooth="yes"/>
      <point x="64" y="13"/>
      <point x="83" y="-11"/>
    </contour>
  </outline>
</glyph>
<glyph name="at" format="1">
  <advance width="836"/>
  <unicode hex="0040"/>
  <outline>
    <contour>
      <point x="356" y="-121" type="curve" smooth="yes" name="hr00"/>
      <point x="413" y="-121"/>
      <point x="472" y="-118"/>
      <point x="537" y="-110" type="curve"/>
      <point x="545" y="-82" type="line"/>
      <point x="364" y="-82" type="line" smooth="yes"/>
      <point x="225" y="-82"/>
      <point x="117" y="3"/>
      <point x="117" y="168" type="curve" smooth="yes"/>
      <point x="117" y="219"/>
      <point x="138" y="302"/>
      <point x="143" y="325" type="curve" smooth="yes"/>
      <point x="191" y="523"/>
      <point x="327" y="674"/>
      <point x="517" y="674" type="curve" smooth="yes"/>
      <point x="655" y="674"/>
      <point x="744" y="597"/>
      <point x="744" y="450" type="curve" smooth="yes"/>
      <point x="744" y="408"/>
      <point x="742" y="383"/>
      <point x="722" y="305" type="curve" smooth="yes"/>
      <point x="694" y="191"/>
      <point x="638" y="109"/>
      <point x="581" y="109" type="curve" smooth="yes"/>
      <point x="558" y="109"/>
      <point x="543" y="123"/>
      <point x="543" y="153" type="curve" smooth="yes"/>
      <point x="543" y="163"/>
      <point x="545" y="174"/>
      <point x="549" y="192" type="curve" smooth="yes"/>
      <point x="625" y="499" type="line"/>
      <point x="591" y="499" type="line"/>
      <point x="558" y="440" type="line"/>
      <point x="552" y="440" type="line"/>
      <point x="539" y="486"/>
      <point x="511" y="509"/>
      <point x="462" y="509" type="curve" smooth="yes"/>
      <point x="332" y="509"/>
      <point x="252" y="321"/>
      <point x="252" y="190" type="curve" smooth="yes"/>
      <point x="252" y="113"/>
      <point x="276" y="69"/>
      <point x="331" y="69" type="curve" smooth="yes"/>
      <point x="399" y="69"/>
      <point x="445" y="137"/>
      <point x="490" y="237" type="curve"/>
      <point x="497" y="234" type="line"/>
      <point x="488" y="206"/>
      <point x="486" y="183"/>
      <point x="486" y="163" type="curve" smooth="yes"/>
      <point x="486" y="106"/>
      <point x="513" y="69"/>
      <point x="569" y="69" type="curve" smooth="yes"/>
      <point x="713" y="69"/>
      <point x="796" y="285"/>
      <point x="796" y="451" type="curve" smooth="yes"/>
      <point x="796" y="622"/>
      <point x="680" y="710"/>
      <point x="517" y="710" type="curve" smooth="yes"/>
      <point x="228" y="710"/>
      <point x="65" y="418"/>
      <point x="65" y="168" type="curve" smooth="yes"/>
      <point x="65" y="-28"/>
      <point x="204" y="-121"/>
    </contour>
    <contour>
      <point x="354" y="123" type="curve"/>
      <point x="328" y="123"/>
      <point x="321" y="147"/>
      <point x="321" y="189" type="curve" smooth="yes"/>
      <point x="321" y="218"/>
      <point x="332" y="281"/>
      <point x="341" y="310" type="curve" smooth="yes"/>
      <point x="367" y="409"/>
      <point x="419" y="466"/>
      <point x="480" y="466" type="curve" smooth="yes"/>
      <point x="529" y="466"/>
      <point x="541" y="431"/>
      <point x="530" y="379" type="curve" smooth="yes"/>
      <point x="527" y="365" type="line" smooth="yes"/>
      <point x="517" y="315"/>
      <point x="425" y="123"/>
    </contour>
  </outline>
</glyph>
<glyph name="A" format="1">
  <advance width="638"/>
  <unicode hex="0041"/>
  <outline>
    <contour>
      <point x="-55" y="0" type="line" name="hr00"/>
      <point x="137" y="0" type="line"/>
      <point x="147" y="41" type="line"/>
      <point x="70" y="41" type="line"/>
      <point x="176" y="231" type="line"/>
      <point x="425" y="231" type="line"/>
      <point x="438" y="41" type="line"/>
      <point x="362" y="41" type="line"/>
      <point x="352" y="0" type="line"/>
      <point x="563" y="0" type="line"/>
      <point x="573" y="41" type="line"/>
      <point x="521" y="41" type="line"/>
      <point x="472" y="698" type="line"/>
      <point x="388" y="698" type="line"/>
      <point x="7" y="41" type="line"/>
      <point x="-45" y="41" type="line"/>
    </contour>
    <contour>
      <point x="394" y="618" type="line"/>
      <point x="400" y="618" type="line"/>
      <point x="423" y="274" type="line"/>
      <point x="199" y="274" type="line"/>
    </contour>
    <contour>
      <point x="243.0" y="0.0" type="move" name="bottom"/>
    </contour>
    <contour>
      <point x="563.0" y="0.0" type="move" name="bottomright"/>
    </contour>
    <contour>
      <point x="427.0" y="698.0" type="move" name="top"/>
    </contour>
  </outline>
</glyph>
<glyph name="B" format="1">
  <advance width="617"/>
  <unicode hex="0042"/>
  <outline>
    <contour>
      <point x="-21" y="0" type="line" name="hr00"/>
      <point x="331" y="0" type="line" smooth="yes"/>
      <point x="456" y="0"/>
      <point x="548" y="116"/>
      <point x="548" y="224" type="curve" smooth="yes"/>
      <point x="548" y="293"/>
      <point x="509" y="341"/>
      <point x="440" y="360" type="curve"/>
      <point x="442" y="365" type="line"/>
      <point x="542" y="392"/>
      <point x="605" y="469"/>
      <point x="605" y="564" type="curve" smooth="yes"/>
      <point x="605" y="653"/>
      <point x="550" y="698"/>
      <point x="457" y="698" type="curve" smooth="yes"/>
      <point x="152" y="698" type="line"/>
      <point x="142" y="657" type="line"/>
      <point x="213" y="657" type="line"/>
      <point x="60" y="41" type="line"/>
      <point x="-11" y="41" type="line"/>
    </contour>
    <contour>
      <point x="219" y="338" type="line"/>
      <point x="373" y="338" type="line" smooth="yes"/>
      <point x="432" y="338"/>
      <point x="463" y="302"/>
      <point x="463" y="248" type="curve" smooth="yes"/>
      <point x="463" y="225"/>
      <point x="453" y="188"/>
      <point x="447" y="168" type="curve" smooth="yes"/>
      <point x="427" y="95"/>
      <point x="373" y="45"/>
      <point x="300" y="45" type="curve" smooth="yes"/>
      <point x="146" y="45" type="line"/>
    </contour>
    <contour>
      <point x="297" y="653" type="line"/>
      <point x="438" y="653" type="line" smooth="yes"/>
      <point x="497" y="653"/>
      <point x="521" y="617"/>
      <point x="521" y="574" type="curve" smooth="yes"/>
      <point x="521" y="551"/>
      <point x="511" y="515"/>
      <point x="506" y="497" type="curve" smooth="yes"/>
      <point x="490" y="432"/>
      <point x="436" y="383"/>
      <point x="370" y="383" type="curve"/>
      <point x="230" y="383" type="line"/>
    </contour>
    <contour>
      <point x="212.0" y="0.0" type="move" name="bottom"/>
    </contour>
    <contour>
      <point x="387.0" y="698.0" type="move" name="top"/>
    </contour>
  </outline>
</glyph>
<glyph name="C" format="1">
  <advance width="591"/>
  <unicode hex="0043"/>
  <outline>
    <contour>
      <point x="260" y="-12" type="curve" smooth="yes" name="hr00"/>
      <point x="393" y="-12"/>
      <point x="489" y="79"/>
      <point x="528" y="157" type="curve"/>
      <point x="494" y="179" type="line"/>
      <point x="447" y="103"/>
      <point x="375" y="46"/>
      <point x="285" y="46" type="curve" smooth="yes"/>
      <point x="188" y="46"/>
      <point x="140" y="107"/>
      <point x="140" y="204" type="curve" smooth="yes"/>
      <point x="140" y="251"/>
      <point x="149" y="288"/>
      <point x="178" y="406" type="curve" smooth="yes"/>
      <point x="210" y="535"/>
      <point x="293" y="661"/>
      <point x="428" y="661" type="curve" smooth="yes"/>
      <point x="499" y="661"/>
      <point x="546" y="627"/>
      <point x="546" y="574" type="curve" smooth="yes"/>
      <point x="546" y="567"/>
      <point x="545" y="558"/>
      <point x="543" y="550" type="curve" smooth="yes"/>
      <point x="529" y="494" type="line"/>
      <point x="596" y="494" type="line"/>
      <point x="647" y="698" type="line"/>
      <point x="580" y="698" type="line"/>
      <point x="563" y="634" type="line"/>
      <point x="558" y="634" type="line"/>
      <point x="545" y="677"/>
      <point x="494" y="710"/>
      <point x="416" y="710" type="curve" smooth="yes"/>
      <point x="176" y="710"/>
      <point x="55" y="414"/>
      <point x="55" y="220" type="curve" smooth="yes"/>
      <point x="55" y="69"/>
      <point x="133" y="-12"/>
    </contour>
    <contour>
      <point x="267.0" y="0.0" type="move" name="bottom"/>
    </contour>
    <contour>
      <point x="412.0" y="698.0" type="move" name="top"/>
    </contour>
  </outline>
</glyph>
<glyph name="D" format="1">
  <advance width="664"/>
  <unicode hex="0044"/>
  <outline>
    <contour>
      <point x="-21" y="0" type="line" name="hr00"/>
      <point x="266" y="0" type="line" smooth="yes"/>
      <point x="575" y="0"/>
      <point x="647" y="338"/>
      <point x="647" y="466" type="curve" smooth="yes"/>
      <point x="647" y="621"/>
      <point x="556" y="698"/>
      <point x="419" y="698" type="curve" smooth="yes"/>
      <point x="152" y="698" type="line"/>
      <point x="142" y="657" type="line"/>
      <point x="213" y="657" type="line"/>
      <point x="60" y="41" type="line"/>
      <point x="-11" y="41" type="line"/>
    </contour>
    <contour>
      <point x="297" y="653" type="line"/>
      <point x="407" y="653" type="line" smooth="yes"/>
      <point x="510" y="653"/>
      <point x="562" y="587"/>
      <point x="562" y="489" type="curve" smooth="yes"/>
      <point x="562" y="443"/>
      <point x="552" y="404"/>
      <point x="525" y="294" type="curve" smooth="yes"/>
      <point x="489" y="150"/>
      <point x="384" y="45"/>
      <point x="259" y="45" type="curve"/>
      <point x="146" y="45" type="line"/>
    </contour>
    <contour>
      <point x="213.0" y="0.0" type="move" name="bottom"/>
    </contour>
    <contour>
      <point x="385.0" y="698.0" type="move" name="top"/>
    </contour>
  </outline>
</glyph>
<glyph name="E" format="1">
  <advance width="591"/>
  <unicode hex="0045"/>
  <outline>
    <contour>
      <point x="-21" y="0" type="line" name="hr00"/>
      <point x="474" y="0" type="line"/>
      <point x="518" y="177" type="line"/>
      <point x="450" y="177" type="line"/>
      <point x="417" y="45" type="line"/>
      <point x="146" y="45" type="line"/>
      <point x="219" y="337" type="line"/>
      <point x="405" y="337" type="line"/>
      <point x="384" y="255" type="line"/>
      <point x="435" y="255" type="line"/>
      <point x="488" y="465" type="line"/>
      <point x="437" y="465" type="line"/>
      <point x="416" y="382" type="line"/>
      <point x="230" y="382" type="line"/>
      <point x="297" y="653" type="line"/>
      <point x="558" y="653" type="line"/>
      <point x="528" y="530" type="line"/>
      <point x="596" y="530" type="line"/>
      <point x="638" y="698" type="line"/>
      <point x="152" y="698" type="line"/>
      <point x="142" y="657" type="line"/>
      <point x="213" y="657" type="line"/>
      <point x="60" y="41" type="line"/>
      <point x="-11" y="41" type="line"/>
    </contour>
    <contour>
      <point x="231.0" y="0.0" type="move" name="bottom"/>
    </contour>
    <contour>
      <point x="474.0" y="0.0" type="move" name="bottomright"/>
    </contour>
    <contour>
      <point x="402.0" y="698.0" type="move" name="top"/>
    </contour>
  </outline>
</glyph>
<glyph name="F" format="1">
  <advance width="567"/>
  <unicode hex="0046"/>
  <outline>
    <contour>
      <point x="-21" y="0" type="line" name="hr00"/>
      <point x="226" y="0" type="line"/>
      <point x="236" y="41" type="line"/>
      <point x="145" y="41" type="line"/>
      <point x="215" y="323" type="line"/>
      <point x="402" y="323" type="line"/>
      <point x="381" y="241" type="line"/>
      <point x="432" y="241" type="line"/>
      <point x="485" y="451" type="line"/>
      <point x="434" y="451" type="line"/>
      <point x="413" y="368" type="line"/>
      <point x="227" y="368" type="line"/>
      <point x="297" y="653" type="line"/>
      <point x="558" y="653" type="line"/>
      <point x="528" y="530" type="line"/>
      <point x="596" y="530" type="line"/>
      <point x="638" y="698" type="line"/>
      <point x="152" y="698" type="line"/>
      <point x="142" y="657" type="line"/>
      <point x="213" y="657" type="line"/>
      <point x="60" y="41" type="line"/>
      <point x="-11" y="41" type="line"/>
    </contour>
    <contour>
      <point x="94.0" y="0.0" type="move" name="bottom"/>
    </contour>
    <contour>
      <point x="402.0" y="698.0" type="move" name="top"/>
    </contour>
  </outline>
</glyph>
<glyph name="G" format="1">
  <advance width="679"/>
  <unicode hex="0047"/>
  <outline>
    <contour>
      <point x="260" y="-12" type="curve" smooth="yes" name="hr00"/>
      <point x="356" y="-12"/>
      <point x="421" y="38"/>
      <point x="453" y="89" type="curve"/>
      <point x="459" y="89" type="line"/>
      <point x="480" y="0" type="line"/>
      <point x="512" y="0" type="line"/>
      <point x="584" y="295" type="line"/>
      <point x="643" y="295" type="line"/>
      <point x="653" y="336" type="line"/>
      <point x="396" y="336" type="line"/>
      <point x="386" y="295" type="line"/>
      <point x="500" y="295" type="line"/>
      <point x="475" y="195" type="line" smooth="yes"/>
      <point x="450" y="96"/>
      <point x="369" y="41"/>
      <point x="276" y="41" type="curve" smooth="yes"/>
      <point x="188" y="41"/>
      <point x="140" y="107"/>
      <point x="140" y="204" type="curve" smooth="yes"/>
      <point x="140" y="251"/>
      <point x="150" y="289"/>
      <point x="177" y="401" type="curve" smooth="yes"/>
      <point x="209" y="537"/>
      <point x="298" y="661"/>
      <point x="438" y="661" type="curve" smooth="yes"/>
      <point x="517" y="661"/>
      <point x="574" y="627"/>
      <point x="574" y="574" type="curve" smooth="yes"/>
      <point x="574" y="567"/>
      <point x="573" y="558"/>
      <point x="571" y="550" type="curve" smooth="yes"/>
      <point x="557" y="494" type="line"/>
      <point x="624" y="494" type="line"/>
      <point x="675" y="698" type="line"/>
      <point x="608" y="698" type="line"/>
      <point x="591" y="634" type="line"/>
      <point x="586" y="634" type="line"/>
      <point x="574" y="678"/>
      <point x="512" y="710"/>
      <point x="425" y="710" type="curve" smooth="yes"/>
      <point x="177" y="710"/>
      <point x="55" y="414"/>
      <point x="55" y="220" type="curve" smooth="yes"/>
      <point x="55" y="69"/>
      <point x="132" y="-12"/>
    </contour>
    <contour>
      <point x="265.0" y="0.0" type="move" name="bottom"/>
    </contour>
    <contour>
      <point x="422.0" y="698.0" type="move" name="top"/>
    </contour>
  </outline>
</glyph>
<glyph name="H" format="1">
  <advance width="723"/>
  <unicode hex="0048"/>
  <outline>
    <contour>
      <point x="-21" y="0" type="line" name="hr00"/>
      <point x="206" y="0" type="line"/>
      <point x="216" y="41" type="line"/>
      <point x="145" y="41" type="line"/>
      <point x="218" y="333" type="line"/>
      <point x="541" y="333" type="line"/>
      <point x="469" y="41" type="line"/>
      <point x="398" y="41" type="line"/>
      <point x="388" y="0" type="line"/>
      <point x="615" y="0" type="line"/>
      <point x="625" y="41" type="line"/>
      <point x="554" y="41" type="line"/>
      <point x="707" y="657" type="line"/>
      <point x="778" y="657" type="line"/>
      <point x="788" y="698" type="line"/>
      <point x="561" y="698" type="line"/>
      <point x="551" y="657" type="line"/>
      <point x="622" y="657" type="line"/>
      <point x="553" y="378" type="line"/>
      <point x="229" y="378" type="line"/>
      <point x="298" y="657" type="line"/>
      <point x="369" y="657" type="line"/>
      <point x="379" y="698" type="line"/>
      <point x="152" y="698" type="line"/>
      <point x="142" y="657" type="line"/>
      <point x="213" y="657" type="line"/>
      <point x="60" y="41" type="line"/>
      <point x="-11" y="41" type="line"/>
    </contour>
    <contour>
      <point x="297.0" y="0.0" type="move" name="bottom"/>
    </contour>
    <contour>
      <point x="472.0" y="698.0" type="move" name="top"/>
    </contour>
  </outline>
</glyph>
<glyph name="I" format="1">
  <advance width="314"/>
  <unicode hex="0049"/>
  <outline>
    <contour>
      <point x="-21" y="0" type="line" name="hr00"/>
      <point x="206" y="0" type="line"/>
      <point x="216" y="41" type="line"/>
      <point x="145" y="41" type="line"/>
      <point x="298" y="657" type="line"/>
      <point x="369" y="657" type="line"/>
      <point x="379" y="698" type="line"/>
      <point x="152" y="698" type="line"/>
      <point x="142" y="657" type="line"/>
      <point x="213" y="657" type="line"/>
      <point x="60" y="41" type="line"/>
      <point x="-11" y="41" type="line"/>
    </contour>
    <contour>
      <point x="92.0" y="0.0" type="move" name="bottom"/>
    </contour>
    <contour>
      <point x="206.0" y="0.0" type="move" name="bottomright"/>
    </contour>
    <contour>
      <point x="266.0" y="698.0" type="move" name="top"/>
    </contour>
  </outline>
</glyph>
<glyph name="J" format="1">
  <advance width="436"/>
  <unicode hex="004A"/>
  <outline>
    <contour>
      <point x="103" y="-12" type="curve" smooth="yes" name="hr00"/>
      <point x="204" y="-12"/>
      <point x="276" y="36"/>
      <point x="303" y="146" type="curve" smooth="yes"/>
      <point x="430" y="657" type="line"/>
      <point x="501" y="657" type="line"/>
      <point x="511" y="698" type="line"/>
      <point x="264" y="698" type="line"/>
      <point x="254" y="657" type="line"/>
      <point x="345" y="657" type="line"/>
      <point x="219" y="152" type="line" smooth="yes"/>
      <point x="199" y="70"/>
      <point x="160" y="29"/>
      <point x="95" y="29" type="curve" smooth="yes"/>
      <point x="79" y="29"/>
      <point x="65" y="33"/>
      <point x="59" y="36" type="curve"/>
      <point x="59" y="39" type="line"/>
      <point x="85" y="52"/>
      <point x="92" y="75"/>
      <point x="92" y="90" type="curve" smooth="yes"/>
      <point x="92" y="119"/>
      <point x="71" y="142"/>
      <point x="38" y="142" type="curve" smooth="yes"/>
      <point x="1" y="142"/>
      <point x="-22" y="113"/>
      <point x="-22" y="75" type="curve" smooth="yes"/>
      <point x="-22" y="29"/>
      <point x="11" y="-12"/>
    </contour>
    <contour>
      <point x="107.0" y="0.0" type="move" name="bottom"/>
    </contour>
    <contour>
      <point x="387.0" y="698.0" type="move" name="top"/>
    </contour>
  </outline>
</glyph>
<glyph name="K" format="1">
  <advance width="661"/>
  <unicode hex="004B"/>
  <outline>
    <contour>
      <point x="-21" y="0" type="line" name="hr00"/>
      <point x="206" y="0" type="line"/>
      <point x="216" y="41" type="line"/>
      <point x="145" y="41" type="line"/>
      <point x="195" y="244" type="line"/>
      <point x="323" y="362" type="line"/>
      <point x="437" y="41" type="line"/>
      <point x="366" y="41" type="line"/>
      <point x="356" y="0" type="line"/>
      <point x="578" y="0" type="line"/>
      <point x="588" y="41" type="line"/>
      <point x="528" y="41" type="line"/>
      <point x="388" y="414" type="line"/>
      <point x="651" y="657" type="line"/>
      <point x="711" y="657" type="line"/>
      <point x="721" y="698" type="line"/>
      <point x="515" y="698" type="line"/>
      <point x="505" y="657" type="line"/>
      <point x="586" y="657" type="line"/>
      <point x="323" y="414" type="line"/>
      <point x="219" y="317" type="line"/>
      <point x="213" y="317" type="line"/>
      <point x="298" y="657" type="line"/>
      <point x="369" y="657" type="line"/>
      <point x="379" y="698" type="line"/>
      <point x="152" y="698" type="line"/>
      <point x="142" y="657" type="line"/>
      <point x="213" y="657" type="line"/>
      <point x="60" y="41" type="line"/>
      <point x="-11" y="41" type="line"/>
    </contour>
    <contour>
      <point x="283.0" y="0.0" type="move" name="bottom"/>
    </contour>
    <contour>
      <point x="443.0" y="698.0" type="move" name="top"/>
    </contour>
  </outline>
</glyph>
<glyph name="L" format="1">
  <advance width="547"/>
  <unicode hex="004C"/>
  <outline>
    <contour>
      <point x="-21" y="0" type="line" name="hr00"/>
      <point x="446" y="0" type="line"/>
      <point x="490" y="177" type="line"/>
      <point x="422" y="177" type="line"/>
      <point x="389" y="45" type="line"/>
      <point x="146" y="45" type="line"/>
      <point x="298" y="657" type="line"/>
      <point x="369" y="657" type="line"/>
      <point x="379" y="698" type="line"/>
      <point x="152" y="698" type="line"/>
      <point x="142" y="657" type="line"/>
      <point x="213" y="657" type="line"/>
      <point x="60" y="41" type="line"/>
      <point x="-11" y="41" type="line"/>
    </contour>
    <contour>
      <point x="225.0" y="0.0" type="move" name="bottom"/>
    </contour>
    <contour>
      <point x="268.0" y="698.0" type="move" name="top"/>
    </contour>
    <contour>
      <point x="403.0" y="740.0" type="move" name="topright"/>
    </contour>
  </outline>
</glyph>
<glyph name="M" format="1">
  <advance width="800"/>
  <unicode hex="004D"/>
  <outline>
    <contour>
      <point x="-21" y="0" type="line" name="hr00"/>
      <point x="172" y="0" type="line"/>
      <point x="183" y="41" type="line"/>
      <point x="112" y="41" type="line"/>
      <point x="252" y="601" type="line"/>
      <point x="258" y="601" type="line"/>
      <point x="285" y="456" type="line"/>
      <point x="347" y="117" type="line"/>
      <point x="578" y="455" type="line"/>
      <point x="680" y="602" type="line"/>
      <point x="685" y="602" type="line"/>
      <point x="545" y="41" type="line"/>
      <point x="474" y="41" type="line"/>
      <point x="464" y="0" type="line"/>
      <point x="691" y="0" type="line"/>
      <point x="701" y="41" type="line"/>
      <point x="630" y="41" type="line"/>
      <point x="784" y="657" type="line"/>
      <point x="855" y="657" type="line"/>
      <point x="865" y="698" type="line"/>
      <point x="686" y="698" type="line"/>
      <point x="396" y="272" type="line"/>
      <point x="390" y="272" type="line"/>
      <point x="317" y="698" type="line"/>
      <point x="152" y="698" type="line"/>
      <point x="142" y="657" type="line"/>
      <point x="213" y="657" type="line"/>
      <point x="60" y="41" type="line"/>
      <point x="-11" y="41" type="line"/>
    </contour>
    <contour>
      <point x="318.0" y="0.0" type="move" name="bottom"/>
    </contour>
    <contour>
      <point x="495.0" y="698.0" type="move" name="top"/>
    </contour>
  </outline>
</glyph>
<glyph name="N" format="1">
  <advance width="711"/>
  <unicode hex="004E"/>
  <outline>
    <contour>
      <point x="-21" y="0" type="line" name="hr00"/>
      <point x="173" y="0" type="line"/>
      <point x="183" y="41" type="line"/>
      <point x="112" y="41" type="line"/>
      <point x="253" y="606" type="line"/>
      <point x="259" y="606" type="line"/>
      <point x="486" y="0" type="line"/>
      <point x="544" y="0" type="line"/>
      <point x="709" y="657" type="line"/>
      <point x="780" y="657" type="line"/>
      <point x="790" y="698" type="line"/>
      <point x="596" y="698" type="line"/>
      <point x="586" y="657" type="line"/>
      <point x="657" y="657" type="line"/>
      <point x="526" y="137" type="line"/>
      <point x="520" y="137" type="line"/>
      <point x="312" y="698" type="line"/>
      <point x="152" y="698" type="line"/>
      <point x="142" y="657" type="line"/>
      <point x="213" y="657" type="line"/>
      <point x="60" y="41" type="line"/>
      <point x="-11" y="41" type="line"/>
    </contour>
    <contour>
      <point x="311.0" y="0.0" type="move" name="bottom"/>
    </contour>
    <contour>
      <point x="475.0" y="698.0" type="move" name="top"/>
    </contour>
  </outline>
</glyph>
<glyph name="O" format="1">
  <advance width="678"/>
  <unicode hex="004F"/>
  <outline>
    <contour>
      <point x="292" y="41" type="curve" name="hr00"/>
      <point x="186" y="41"/>
      <point x="148" y="108"/>
      <point x="148" y="194" type="curve" smooth="yes"/>
      <point x="148" y="250"/>
      <point x="160" y="299"/>
      <point x="184" y="397" type="curve" smooth="yes"/>
      <point x="219" y="541"/>
      <point x="301" y="657"/>
      <point x="428" y="657" type="curve" smooth="yes"/>
      <point x="534" y="657"/>
      <point x="572" y="590"/>
      <point x="572" y="504" type="curve" smooth="yes"/>
      <point x="572" y="448"/>
      <point x="560" y="399"/>
      <point x="536" y="301" type="curve" smooth="yes"/>
      <point x="501" y="157"/>
      <point x="419" y="41"/>
    </contour>
    <contour>
      <point x="281" y="-12" type="curve" smooth="yes"/>
      <point x="563" y="-12"/>
      <point x="664" y="313"/>
      <point x="664" y="463" type="curve" smooth="yes"/>
      <point x="664" y="615"/>
      <point x="580" y="710"/>
      <point x="439" y="710" type="curve" smooth="yes"/>
      <point x="158" y="710"/>
      <point x="56" y="385"/>
      <point x="56" y="235" type="curve" smooth="yes"/>
      <point x="56" y="83"/>
      <point x="140" y="-12"/>
    </contour>
    <contour>
      <point x="273" y="0" type="move" name="bottom"/>
    </contour>
    <contour>
      <point x="435" y="698" type="move" name="top"/>
    </contour>
  </outline>
</glyph>
<glyph name="P" format="1">
  <advance width="583"/>
  <unicode hex="0050"/>
  <outline>
    <contour>
      <point x="-21" y="0" type="line" name="hr00"/>
      <point x="226" y="0" type="line"/>
      <point x="236" y="41" type="line"/>
      <point x="145" y="41" type="line"/>
      <point x="216" y="324" type="line"/>
      <point x="367" y="324" type="line" smooth="yes"/>
      <point x="571" y="324"/>
      <point x="605" y="498"/>
      <point x="605" y="566" type="curve" smooth="yes"/>
      <point x="605" y="650"/>
      <point x="548" y="698"/>
      <point x="453" y="698" type="curve" smooth="yes"/>
      <point x="152" y="698" type="line"/>
      <point x="142" y="657" type="line"/>
      <point x="213" y="657" type="line"/>
      <point x="60" y="41" type="line"/>
      <point x="-11" y="41" type="line"/>
    </contour>
    <contour>
      <point x="297" y="653" type="line"/>
      <point x="442" y="653" type="line" smooth="yes"/>
      <point x="496" y="653"/>
      <point x="522" y="619"/>
      <point x="522" y="571" type="curve" smooth="yes"/>
      <point x="522" y="545"/>
      <point x="510" y="504"/>
      <point x="506" y="487" type="curve" smooth="yes"/>
      <point x="489" y="419"/>
      <point x="436" y="369"/>
      <point x="369" y="369" type="curve" smooth="yes"/>
      <point x="227" y="369" type="line"/>
    </contour>
    <contour>
      <point x="95.0" y="0.0" type="move" name="bottom"/>
    </contour>
    <contour>
      <point x="388.0" y="698.0" type="move" name="top"/>
    </contour>
  </outline>
</glyph>
<glyph name="Q" format="1">
  <advance width="674"/>
  <unicode hex="0051"/>
  <outline>
    <contour>
      <point x="428" y="-173" type="curve" smooth="yes" name="hr00"/>
      <point x="482" y="-173" type="line"/>
      <point x="493" y="-131" type="line"/>
      <point x="475" y="-131" type="line" smooth="yes"/>
      <point x="432" y="-131"/>
      <point x="412" y="-114"/>
      <point x="389" y="-84" type="curve" smooth="yes"/>
      <point x="332" y="-8" type="line"/>
      <point x="571" y="29"/>
      <point x="660" y="320"/>
      <point x="660" y="465" type="curve" smooth="yes"/>
      <point x="660" y="617"/>
      <point x="576" y="710"/>
      <point x="436" y="710" type="curve" smooth="yes"/>
      <point x="158" y="710"/>
      <point x="56" y="388"/>
      <point x="56" y="233" type="curve" smooth="yes"/>
      <point x="56" y="92"/>
      <point x="128" y="2"/>
      <point x="250" y="-11" type="curve"/>
      <point x="307" y="-110" type="line" smooth="yes"/>
      <point x="330" y="-151"/>
      <point x="360" y="-173"/>
    </contour>
    <contour>
      <point x="290" y="37" type="curve" smooth="yes"/>
      <point x="182" y="37"/>
      <point x="141" y="105"/>
      <point x="141" y="196" type="curve" smooth="yes"/>
      <point x="141" y="249"/>
      <point x="152" y="298"/>
      <point x="176" y="397" type="curve" smooth="yes"/>
      <point x="212" y="545"/>
      <point x="297" y="661"/>
      <point x="426" y="661" type="curve" smooth="yes"/>
      <point x="534" y="661"/>
      <point x="575" y="593"/>
      <point x="575" y="502" type="curve" smooth="yes"/>
      <point x="575" y="449"/>
      <point x="564" y="400"/>
      <point x="540" y="301" type="curve" smooth="yes"/>
      <point x="504" y="153"/>
      <point x="419" y="37"/>
    </contour>
    <contour>
      <point x="433.0" y="698.0" type="move" name="top"/>
    </contour>
  </outline>
</glyph>
<glyph name="R" format="1">
  <advance width="622"/>
  <unicode hex="0052"/>
  <outline>
    <contour>
      <point x="-21" y="0" type="line" name="hr00"/>
      <point x="206" y="0" type="line"/>
      <point x="216" y="41" type="line"/>
      <point x="145" y="41" type="line"/>
      <point x="216" y="324" type="line"/>
      <point x="331" y="324" type="line"/>
      <point x="387" y="91" type="line" smooth="yes"/>
      <point x="404" y="18"/>
      <point x="427" y="0"/>
      <point x="498" y="0" type="curve" smooth="yes"/>
      <point x="548" y="0" type="line"/>
      <point x="558" y="41" type="line"/>
      <point x="544" y="41" type="line" smooth="yes"/>
      <point x="500" y="41"/>
      <point x="484" y="62"/>
      <point x="474" y="100" type="curve" smooth="yes"/>
      <point x="412" y="330" type="line"/>
      <point x="557" y="351"/>
      <point x="605" y="472"/>
      <point x="605" y="567" type="curve" smooth="yes"/>
      <point x="605" y="650"/>
      <point x="548" y="698"/>
      <point x="453" y="698" type="curve" smooth="yes"/>
      <point x="152" y="698" type="line"/>
      <point x="142" y="657" type="line"/>
      <point x="213" y="657" type="line"/>
      <point x="60" y="41" type="line"/>
      <point x="-11" y="41" type="line"/>
    </contour>
    <contour>
      <point x="297" y="653" type="line"/>
      <point x="442" y="653" type="line" smooth="yes"/>
      <point x="496" y="653"/>
      <point x="522" y="619"/>
      <point x="522" y="571" type="curve" smooth="yes"/>
      <point x="522" y="545"/>
      <point x="510" y="504"/>
      <point x="506" y="487" type="curve" smooth="yes"/>
      <point x="489" y="419"/>
      <point x="436" y="369"/>
      <point x="369" y="369" type="curve"/>
      <point x="227" y="369" type="line"/>
    </contour>
    <contour>
      <point x="281.0" y="0.0" type="move" name="bottom"/>
    </contour>
    <contour>
      <point x="388.0" y="698.0" type="move" name="top"/>
    </contour>
  </outline>
</glyph>
<glyph name="S" format="1">
  <advance width="549"/>
  <unicode hex="0053"/>
  <outline>
    <contour>
      <point x="221" y="-12" type="curve" smooth="yes" name="hr00"/>
      <point x="372" y="-12"/>
      <point x="483" y="98"/>
      <point x="483" y="226" type="curve" smooth="yes"/>
      <point x="483" y="303"/>
      <point x="447" y="349"/>
      <point x="356" y="388" type="curve" smooth="yes"/>
      <point x="312" y="406" type="line" smooth="yes"/>
      <point x="245" y="434"/>
      <point x="210" y="464"/>
      <point x="210" y="523" type="curve" smooth="yes"/>
      <point x="210" y="593"/>
      <point x="262" y="661"/>
      <point x="378" y="661" type="curve" smooth="yes"/>
      <point x="454" y="661"/>
      <point x="492" y="632"/>
      <point x="492" y="583" type="curve" smooth="yes"/>
      <point x="492" y="575"/>
      <point x="491" y="564"/>
      <point x="488" y="551" type="curve" smooth="yes"/>
      <point x="476" y="503" type="line"/>
      <point x="544" y="503" type="line"/>
      <point x="593" y="698" type="line"/>
      <point x="525" y="698" type="line"/>
      <point x="510" y="640" type="line"/>
      <point x="504" y="640" type="line"/>
      <point x="496" y="685"/>
      <point x="445" y="710"/>
      <point x="374" y="710" type="curve" smooth="yes"/>
      <point x="238" y="710"/>
      <point x="130" y="622"/>
      <point x="130" y="499" type="curve" smooth="yes"/>
      <point x="130" y="415"/>
      <point x="171" y="371"/>
      <point x="260" y="333" type="curve" smooth="yes"/>
      <point x="308" y="313" type="line" smooth="yes"/>
      <point x="368" y="288"/>
      <point x="403" y="262"/>
      <point x="403" y="199" type="curve" smooth="yes"/>
      <point x="403" y="105"/>
      <point x="325" y="37"/>
      <point x="213" y="37" type="curve" smooth="yes"/>
      <point x="130" y="37"/>
      <point x="95" y="73"/>
      <point x="95" y="123" type="curve" smooth="yes"/>
      <point x="95" y="134"/>
      <point x="97" y="145"/>
      <point x="100" y="157" type="curve" smooth="yes"/>
      <point x="113" y="205" type="line"/>
      <point x="45" y="205" type="line"/>
      <point x="-6" y="0" type="line"/>
      <point x="62" y="0" type="line"/>
      <point x="78" y="65" type="line"/>
      <point x="84" y="65" type="line"/>
      <point x="92" y="17"/>
      <point x="147" y="-12"/>
    </contour>
    <contour>
      <point x="225.0" y="0.0" type="move" name="bottom"/>
    </contour>
    <contour>
      <point x="371.0" y="698.0" type="move" name="top"/>
    </contour>
  </outline>
</glyph>
<glyph name="T" format="1">
  <advance width="599"/>
  <unicode hex="0054"/>
  <outline>
    <contour>
      <point x="102" y="0" type="line" name="hr00"/>
      <point x="369" y="0" type="line"/>
      <point x="379" y="41" type="line"/>
      <point x="288" y="41" type="line"/>
      <point x="440" y="653" type="line"/>
      <point x="597" y="653" type="line"/>
      <point x="567" y="530" type="line"/>
      <point x="635" y="530" type="line"/>
      <point x="677" y="698" type="line"/>
      <point x="141" y="698" type="line"/>
      <point x="99" y="530" type="line"/>
      <point x="167" y="530" type="line"/>
      <point x="198" y="653" type="line"/>
      <point x="355" y="653" type="line"/>
      <point x="203" y="41" type="line"/>
      <point x="112" y="41" type="line"/>
    </contour>
    <contour>
      <point x="235.0" y="0.0" type="move" name="bottom"/>
    </contour>
    <contour>
      <point x="409.0" y="698.0" type="move" name="top"/>
    </contour>
  </outline>
</glyph>
<glyph name="U" format="1">
  <advance width="676"/>
  <unicode hex="0055"/>
  <outline>
    <contour>
      <point x="290" y="-12" type="curve" smooth="yes" name="hr00"/>
      <point x="438" y="-12"/>
      <point x="522" y="55"/>
      <point x="569" y="245" type="curve" smooth="yes"/>
      <point x="671" y="654" type="line"/>
      <point x="741" y="654" type="line"/>
      <point x="752" y="698" type="line"/>
      <point x="556" y="698" type="line"/>
      <point x="545" y="654" type="line"/>
      <point x="615" y="654" type="line"/>
      <point x="513" y="245" type="line" smooth="yes"/>
      <point x="479" y="110"/>
      <point x="418" y="42"/>
      <point x="299" y="42" type="curve" smooth="yes"/>
      <point x="213" y="42"/>
      <point x="178" y="76"/>
      <point x="178" y="146" type="curve" smooth="yes"/>
      <point x="178" y="173"/>
      <point x="183" y="205"/>
      <point x="192" y="242" type="curve" smooth="yes"/>
      <point x="294" y="654" type="line"/>
      <point x="364" y="654" type="line"/>
      <point x="375" y="698" type="line"/>
      <point x="143" y="698" type="line"/>
      <point x="132" y="654" type="line"/>
      <point x="202" y="654" type="line"/>
      <point x="106" y="267" type="line" smooth="yes"/>
      <point x="96" y="225"/>
      <point x="90" y="189"/>
      <point x="90" y="158" type="curve" smooth="yes"/>
      <point x="90" y="35"/>
      <point x="166" y="-12"/>
    </contour>
    <contour>
      <point x="293" y="0" type="move" name="bottom"/>
    </contour>
    <contour>
      <point x="384" y="0" type="move" name="bottomright"/>
    </contour>
    <contour>
      <point x="465" y="698" type="move" name="top"/>
    </contour>
  </outline>
</glyph>
<glyph name="V" format="1">
  <advance width="605"/>
  <unicode hex="0056"/>
  <outline>
    <contour>
      <point x="203" y="0" type="line" name="hr00"/>
      <point x="272" y="0" type="line"/>
      <point x="645" y="657" type="line"/>
      <point x="697" y="657" type="line"/>
      <point x="707" y="698" type="line"/>
      <point x="521" y="698" type="line"/>
      <point x="511" y="657" type="line"/>
      <point x="587" y="657" type="line"/>
      <point x="420" y="358" type="line"/>
      <point x="279" y="101" type="line"/>
      <point x="273" y="101" type="line"/>
      <point x="259" y="361" type="line"/>
      <point x="241" y="657" type="line"/>
      <point x="317" y="657" type="line"/>
      <point x="327" y="698" type="line"/>
      <point x="116" y="698" type="line"/>
      <point x="106" y="657" type="line"/>
      <point x="158" y="657" type="line"/>
    </contour>
    <contour>
      <point x="236.0" y="0.0" type="move" name="bottom"/>
    </contour>
    <contour>
      <point x="419.0" y="698.0" type="move" name="top"/>
    </contour>
  </outline>
</glyph>
<glyph name="W" format="1">
  <advance width="889"/>
  <unicode hex="0057"/>
  <outline>
    <contour>
      <point x="156" y="0" type="line" name="hr00"/>
      <point x="231" y="0" type="line"/>
      <point x="528" y="587" type="line"/>
      <point x="533" y="587" type="line"/>
      <point x="527" y="0" type="line"/>
      <point x="602" y="0" type="line"/>
      <point x="926" y="657" type="line"/>
      <point x="978" y="657" type="line"/>
      <point x="988" y="698" type="line"/>
      <point x="801" y="698" type="line"/>
      <point x="791" y="657" type="line"/>
      <point x="867" y="657" type="line"/>
      <point x="608" y="116" type="line"/>
      <point x="603" y="116" type="line"/>
      <point x="608" y="698" type="line"/>
      <point x="528" y="698" type="line"/>
      <point x="237" y="116" type="line"/>
      <point x="231" y="116" type="line"/>
      <point x="248" y="657" type="line"/>
      <point x="324" y="657" type="line"/>
      <point x="334" y="698" type="line"/>
      <point x="123" y="698" type="line"/>
      <point x="113" y="657" type="line"/>
      <point x="165" y="657" type="line"/>
    </contour>
    <contour>
      <point x="383.0" y="0.0" type="move" name="bottom"/>
    </contour>
    <contour>
      <point x="568.0" y="698.0" type="move" name="top"/>
    </contour>
  </outline>
</glyph>
<glyph name="X" format="1">
  <advance width="605"/>
  <unicode hex="0058"/>
  <outline>
    <contour>
      <point x="-62" y="0" type="line" name="hr00"/>
      <point x="130" y="0" type="line"/>
      <point x="140" y="41" type="line"/>
      <point x="73" y="41" type="line"/>
      <point x="296" y="298" type="line"/>
      <point x="302" y="298" type="line"/>
      <point x="390" y="41" type="line"/>
      <point x="323" y="41" type="line"/>
      <point x="313" y="0" type="line"/>
      <point x="530" y="0" type="line"/>
      <point x="540" y="41" type="line"/>
      <point x="480" y="41" type="line"/>
      <point x="364" y="357" type="line"/>
      <point x="634" y="657" type="line"/>
      <point x="694" y="657" type="line"/>
      <point x="704" y="698" type="line"/>
      <point x="511" y="698" type="line"/>
      <point x="501" y="657" type="line"/>
      <point x="568" y="657" type="line"/>
      <point x="350" y="404" type="line"/>
      <point x="345" y="404" type="line"/>
      <point x="257" y="657" type="line"/>
      <point x="324" y="657" type="line"/>
      <point x="334" y="698" type="line"/>
      <point x="119" y="698" type="line"/>
      <point x="109" y="657" type="line"/>
      <point x="169" y="657" type="line"/>
      <point x="281" y="347" type="line"/>
      <point x="8" y="41" type="line"/>
      <point x="-52" y="41" type="line"/>
    </contour>
    <contour>
      <point x="223.0" y="0.0" type="move" name="bottom"/>
    </contour>
    <contour>
      <point x="421.0" y="698.0" type="move" name="top"/>
    </contour>
  </outline>
</glyph>
<glyph name="Y" format="1">
  <advance width="583"/>
  <unicode hex="0059"/>
  <outline>
    <contour>
      <point x="104" y="0" type="line" name="hr00"/>
      <point x="351" y="0" type="line"/>
      <point x="361" y="41" type="line"/>
      <point x="280" y="41" type="line"/>
      <point x="340" y="287" type="line"/>
      <point x="622" y="657" type="line"/>
      <point x="674" y="657" type="line"/>
      <point x="684" y="698" type="line"/>
      <point x="493" y="698" type="line"/>
      <point x="483" y="657" type="line"/>
      <point x="559" y="657" type="line"/>
      <point x="327" y="342" type="line"/>
      <point x="321" y="342" type="line"/>
      <point x="247" y="657" type="line"/>
      <point x="323" y="657" type="line"/>
      <point x="333" y="698" type="line"/>
      <point x="116" y="698" type="line"/>
      <point x="106" y="657" type="line"/>
      <point x="158" y="657" type="line"/>
      <point x="254" y="285" type="line"/>
      <point x="195" y="41" type="line"/>
      <point x="114" y="41" type="line"/>
    </contour>
    <contour>
      <point x="227.0" y="0.0" type="move" name="bottom"/>
    </contour>
    <contour>
      <point x="413.0" y="698.0" type="move" name="top"/>
    </contour>
  </outline>
</glyph>
<glyph name="Z" format="1">
  <advance width="576"/>
  <unicode hex="005A"/>
  <outline>
    <contour>
      <point x="-18" y="0" type="line" name="hr00"/>
      <point x="461" y="0" type="line"/>
      <point x="505" y="177" type="line"/>
      <point x="437" y="177" type="line"/>
      <point x="404" y="45" type="line"/>
      <point x="88" y="45" type="line"/>
      <point x="613" y="653" type="line"/>
      <point x="624" y="698" type="line"/>
      <point x="165" y="698" type="line"/>
      <point x="123" y="530" type="line"/>
      <point x="191" y="530" type="line"/>
      <point x="221" y="653" type="line"/>
      <point x="517" y="653" type="line"/>
      <point x="-7" y="45" type="line"/>
    </contour>
    <contour>
      <point x="236.0" y="0.0" type="move" name="bottom"/>
    </contour>
    <contour>
      <point x="384.0" y="698.0" type="move" name="top"/>
    </contour>
  </outline>
</glyph>
<glyph name="bracketleft" format="1">
  <advance width="281"/>
  <unicode hex="005B"/>
  <outline>
    <contour>
      <point x="-24" y="-138" type="line" name="hr00"/>
      <point x="159" y="-138" type="line"/>
      <point x="169" y="-97" type="line"/>
      <point x="61" y="-97" type="line"/>
      <point x="265" y="719" type="line"/>
      <point x="373" y="719" type="line"/>
      <point x="383" y="760" type="line"/>
      <point x="201" y="760" type="line"/>
    </contour>
  </outline>
</glyph>
<glyph name="backslash" format="1">
  <advance width="351"/>
  <unicode hex="005C"/>
  <outline>
    <contour>
      <point x="182" y="-143" type="line" name="hr00"/>
      <point x="237" y="-143" type="line"/>
      <point x="221" y="748" type="line"/>
      <point x="167" y="748" type="line"/>
    </contour>
  </outline>
</glyph>
<glyph name="bracketright" format="1">
  <advance width="281"/>
  <unicode hex="005D"/>
  <outline>
    <contour>
      <point x="-76" y="-138" type="line" name="hr00"/>
      <point x="106" y="-138" type="line"/>
      <point x="331" y="760" type="line"/>
      <point x="148" y="760" type="line"/>
      <point x="138" y="719" type="line"/>
      <point x="246" y="719" type="line"/>
      <point x="42" y="-97" type="line"/>
      <point x="-66" y="-97" type="line"/>
    </contour>
  </outline>
</glyph>
<glyph name="asciicircum" format="1">
  <advance width="550"/>
  <unicode hex="005E"/>
  <outline>
    <contour>
      <point x="117" y="315" type="line" name="hr00"/>
      <point x="371" y="647" type="line"/>
      <point x="375" y="647" type="line"/>
      <point x="465" y="315" type="line"/>
      <point x="512" y="333" type="line"/>
      <point x="414" y="698" type="line"/>
      <point x="349" y="698" type="line"/>
      <point x="75" y="339" type="line"/>
    </contour>
  </outline>
</glyph>
<glyph name="underscore" format="1">
  <advance width="523"/>
  <unicode hex="005F"/>
  <outline>
    <contour>
      <point x="-79" y="-152" type="line" name="hr00"/>
      <point x="399" y="-152" type="line"/>
      <point x="410" y="-106" type="line"/>
      <point x="-68" y="-106" type="line"/>
    </contour>
  </outline>
</glyph>
<glyph name="grave" format="1">
  <advance width="600"/>
  <unicode hex="0060"/>
  <outline>
    <contour>
      <point x="324" y="585" type="line" name="hr00"/>
      <point x="354" y="595" type="line"/>
      <point x="324" y="770" type="line"/>
      <point x="242" y="741" type="line"/>
    </contour>
    <contour>
      <point x="300" y="540" type="move" name="_top"/>
    </contour>
  </outline>
</glyph>
<glyph name="a" format="1">
  <advance width="544"/>
  <unicode hex="0061"/>
  <outline>
    <contour>
      <point x="136" y="-12" type="curve" smooth="yes" name="hr00"/>
      <point x="219" y="-12"/>
      <point x="273" y="71"/>
      <point x="328" y="191" type="curve"/>
      <point x="336" y="188" type="line"/>
      <point x="312" y="94" type="line" smooth="yes"/>
      <point x="309" y="82"/>
      <point x="305" y="59"/>
      <point x="305" y="44" type="curve" smooth="yes"/>
      <point x="305" y="14"/>
      <point x="322" y="-12"/>
      <point x="362" y="-12" type="curve" smooth="yes"/>
      <point x="390" y="-12"/>
      <point x="415" y="2"/>
      <point x="463" y="58" type="curve" smooth="yes"/>
      <point x="534" y="141" type="line"/>
      <point x="510" y="160" type="line"/>
      <point x="395" y="45" type="line"/>
      <point x="377" y="53" type="line"/>
      <point x="495" y="516" type="line"/>
      <point x="453" y="516" type="line"/>
      <point x="413" y="445" type="line"/>
      <point x="405" y="445" type="line"/>
      <point x="388" y="500"/>
      <point x="356" y="528"/>
      <point x="297" y="528" type="curve" smooth="yes"/>
      <point x="136" y="528"/>
      <point x="39" y="296"/>
      <point x="39" y="133" type="curve" smooth="yes"/>
      <point x="39" y="40"/>
      <point x="69" y="-12"/>
    </contour>
    <contour>
      <point x="163" y="52" type="curve" smooth="yes"/>
      <point x="131" y="52"/>
      <point x="123" y="81"/>
      <point x="123" y="133" type="curve" smooth="yes"/>
      <point x="123" y="170"/>
      <point x="138" y="247"/>
      <point x="149" y="289" type="curve" smooth="yes"/>
      <point x="182" y="411"/>
      <point x="247" y="477"/>
      <point x="318" y="477" type="curve" smooth="yes"/>
      <point x="376" y="477"/>
      <point x="397" y="430"/>
      <point x="379" y="366" type="curve" smooth="yes"/>
      <point x="375" y="352" type="line" smooth="yes"/>
      <point x="348" y="256"/>
      <point x="247" y="52"/>
    </contour>
    <contour>
      <point x="229.0" y="0.0" type="move" name="bottom"/>
    </contour>
    <contour>
      <point x="402.0" y="0.0" type="move" name="bottomright"/>
    </contour>
    <contour>
      <point x="311.0" y="540.0" type="move" name="top"/>
    </contour>
  </outline>
</glyph>
<glyph name="b" format="1">
  <advance width="516"/>
  <unicode hex="0062"/>
  <outline>
    <contour>
      <point x="219" y="-12" type="curve" smooth="yes" name="hr00"/>
      <point x="380" y="-12"/>
      <point x="477" y="220"/>
      <point x="477" y="383" type="curve" smooth="yes"/>
      <point x="477" y="476"/>
      <point x="447" y="528"/>
      <point x="379" y="528" type="curve" smooth="yes"/>
      <point x="295" y="528"/>
      <point x="242" y="441"/>
      <point x="188" y="325" type="curve"/>
      <point x="180" y="328" type="line"/>
      <point x="291" y="760" type="line"/>
      <point x="111" y="722" type="line"/>
      <point x="103" y="687" type="line"/>
      <point x="193" y="687" type="line"/>
      <point x="21" y="0" type="line"/>
      <point x="63" y="0" type="line"/>
      <point x="103" y="71" type="line"/>
      <point x="111" y="71" type="line"/>
      <point x="128" y="16"/>
      <point x="160" y="-12"/>
    </contour>
    <contour>
      <point x="198" y="39" type="curve"/>
      <point x="140" y="39"/>
      <point x="119" y="86"/>
      <point x="137" y="150" type="curve" smooth="yes"/>
      <point x="141" y="164" type="line" smooth="yes"/>
      <point x="161" y="232"/>
      <point x="264" y="464"/>
      <point x="353" y="464" type="curve" smooth="yes"/>
      <point x="385" y="464"/>
      <point x="393" y="435"/>
      <point x="393" y="383" type="curve" smooth="yes"/>
      <point x="393" y="346"/>
      <point x="378" y="269"/>
      <point x="367" y="227" type="curve" smooth="yes"/>
      <point x="334" y="105"/>
      <point x="269" y="39"/>
    </contour>
    <contour>
      <point x="204.0" y="0.0" type="move" name="bottom"/>
    </contour>
  </outline>
</glyph>
<glyph name="c" format="1">
  <advance width="428"/>
  <unicode hex="0063"/>
  <outline>
    <contour>
      <point x="169" y="-12" type="curve" smooth="yes" name="hr00"/>
      <point x="264" y="-12"/>
      <point x="324" y="45"/>
      <point x="390" y="174" type="curve"/>
      <point x="359" y="189" type="line"/>
      <point x="309" y="99"/>
      <point x="252" y="45"/>
      <point x="193" y="45" type="curve" smooth="yes"/>
      <point x="146" y="45"/>
      <point x="125" y="79"/>
      <point x="125" y="133" type="curve" smooth="yes"/>
      <point x="125" y="178"/>
      <point x="139" y="246"/>
      <point x="150" y="289" type="curve" smooth="yes"/>
      <point x="188" y="447"/>
      <point x="241" y="488"/>
      <point x="304" y="488" type="curve" smooth="yes"/>
      <point x="333" y="488"/>
      <point x="357" y="482"/>
      <point x="372" y="471" type="curve"/>
      <point x="372" y="464" type="line"/>
      <point x="323" y="462"/>
      <point x="303" y="428"/>
      <point x="303" y="399" type="curve" smooth="yes"/>
      <point x="303" y="373"/>
      <point x="318" y="353"/>
      <point x="352" y="353" type="curve" smooth="yes"/>
      <point x="395" y="353"/>
      <point x="421" y="386"/>
      <point x="421" y="430" type="curve" smooth="yes"/>
      <point x="421" y="487"/>
      <point x="373" y="528"/>
      <point x="300" y="528" type="curve" smooth="yes"/>
      <point x="119" y="528"/>
      <point x="42" y="291"/>
      <point x="42" y="140" type="curve" smooth="yes"/>
      <point x="42" y="40"/>
      <point x="82" y="-12"/>
    </contour>
    <contour>
      <point x="175.0" y="0.0" type="move" name="bottom"/>
    </contour>
    <contour>
      <point x="303.0" y="540.0" type="move" name="top"/>
    </contour>
  </outline>
</glyph>
<glyph name="d" format="1">
  <advance width="543"/>
  <unicode hex="0064"/>
  <outline>
    <contour>
      <point x="136" y="-12" type="curve" smooth="yes" name="hr00"/>
      <point x="219" y="-12"/>
      <point x="273" y="71"/>
      <point x="328" y="191" type="curve"/>
      <point x="336" y="188" type="line"/>
      <point x="312" y="94" type="line" smooth="yes"/>
      <point x="309" y="82"/>
      <point x="305" y="59"/>
      <point x="305" y="44" type="curve" smooth="yes"/>
      <point x="305" y="14"/>
      <point x="322" y="-12"/>
      <point x="362" y="-12" type="curve" smooth="yes"/>
      <point x="390" y="-12"/>
      <point x="415" y="2"/>
      <point x="463" y="58" type="curve" smooth="yes"/>
      <point x="534" y="141" type="line"/>
      <point x="510" y="160" type="line"/>
      <point x="395" y="45" type="line"/>
      <point x="377" y="53" type="line"/>
      <point x="555" y="760" type="line"/>
      <point x="375" y="722" type="line"/>
      <point x="367" y="687" type="line"/>
      <point x="456" y="687" type="line"/>
      <point x="403" y="459" type="line"/>
      <point x="395" y="459" type="line"/>
      <point x="381" y="498"/>
      <point x="357" y="528"/>
      <point x="297" y="528" type="curve" smooth="yes"/>
      <point x="136" y="528"/>
      <point x="39" y="296"/>
      <point x="39" y="133" type="curve" smooth="yes"/>
      <point x="39" y="40"/>
      <point x="69" y="-12"/>
    </contour>
    <contour>
      <point x="163" y="52" type="curve" smooth="yes"/>
      <point x="131" y="52"/>
      <point x="123" y="81"/>
      <point x="123" y="133" type="curve" smooth="yes"/>
      <point x="123" y="170"/>
      <point x="138" y="247"/>
      <point x="149" y="289" type="curve" smooth="yes"/>
      <point x="182" y="411"/>
      <point x="247" y="477"/>
      <point x="318" y="477" type="curve" smooth="yes"/>
      <point x="376" y="477"/>
      <point x="397" y="430"/>
      <point x="379" y="366" type="curve" smooth="yes"/>
      <point x="375" y="352" type="line" smooth="yes"/>
      <point x="351" y="267"/>
      <point x="248" y="52"/>
    </contour>
    <contour>
      <point x="229.0" y="0.0" type="move" name="bottom"/>
    </contour>
    <contour>
      <point x="576.0" y="758.0" type="move" name="topright"/>
    </contour>
  </outline>
</glyph>
<glyph name="e" format="1">
  <advance width="445"/>
  <unicode hex="0065"/>
  <outline>
    <contour>
      <point x="170" y="-12" type="curve" smooth="yes" name="hr00"/>
      <point x="265" y="-12"/>
      <point x="325" y="45"/>
      <point x="391" y="174" type="curve"/>
      <point x="360" y="189" type="line"/>
      <point x="310" y="99"/>
      <point x="253" y="45"/>
      <point x="194" y="45" type="curve" smooth="yes"/>
      <point x="146" y="45"/>
      <point x="125" y="79"/>
      <point x="125" y="134" type="curve" smooth="yes"/>
      <point x="125" y="171"/>
      <point x="134" y="219"/>
      <point x="143" y="260" type="curve"/>
      <point x="365" y="275"/>
      <point x="430" y="352"/>
      <point x="430" y="429" type="curve" smooth="yes"/>
      <point x="430" y="507"/>
      <point x="362" y="528"/>
      <point x="307" y="528" type="curve" smooth="yes"/>
      <point x="120" y="528"/>
      <point x="42" y="294"/>
      <point x="42" y="145" type="curve" smooth="yes"/>
      <point x="42" y="40"/>
      <point x="80" y="-12"/>
    </contour>
    <contour>
      <point x="150" y="291" type="curve"/>
      <point x="188" y="440"/>
      <point x="235" y="487"/>
      <point x="294" y="487" type="curve" smooth="yes"/>
      <point x="339" y="487"/>
      <point x="353" y="459"/>
      <point x="353" y="422" type="curve" smooth="yes"/>
      <point x="353" y="346"/>
      <point x="290" y="307"/>
    </contour>
    <contour>
      <point x="178.0" y="0.0" type="move" name="bottom"/>
    </contour>
    <contour>
      <point x="237.0" y="0.0" type="move" name="bottomright"/>
    </contour>
    <contour>
      <point x="306.0" y="540.0" type="move" name="top"/>
    </contour>
  </outline>
</glyph>
<glyph name="f" format="1">
  <advance width="301"/>
  <unicode hex="0066"/>
  <outline>
    <contour>
      <point x="-80" y="-212" type="curve" smooth="yes" name="hr00"/>
      <point x="17" y="-212"/>
      <point x="84" y="-143"/>
      <point x="109" y="-44" type="curve" smooth="yes"/>
      <point x="237" y="471" type="line"/>
      <point x="346" y="471" type="line"/>
      <point x="357" y="516" type="line"/>
      <point x="248" y="516" type="line"/>
      <point x="271" y="608" type="line" smooth="yes"/>
      <point x="290" y="686"/>
      <point x="326" y="734"/>
      <point x="390" y="734" type="curve"/>
      <point x="394" y="727" type="line"/>
      <point x="375" y="715"/>
      <point x="371" y="697"/>
      <point x="371" y="685" type="curve" smooth="yes"/>
      <point x="371" y="659"/>
      <point x="389" y="638"/>
      <point x="419" y="638" type="curve" smooth="yes"/>
      <point x="452" y="638"/>
      <point x="474" y="664"/>
      <point x="474" y="697" type="curve" smooth="yes"/>
      <point x="474" y="732"/>
      <point x="450" y="760"/>
      <point x="385" y="760" type="curve" smooth="yes"/>
      <point x="283" y="760"/>
      <point x="209" y="691"/>
      <point x="186" y="592" type="curve" smooth="yes"/>
      <point x="168" y="516" type="line"/>
      <point x="76" y="516" type="line"/>
      <point x="65" y="471" type="line"/>
      <point x="156" y="471" type="line"/>
      <point x="24" y="-60" type="line" smooth="yes"/>
      <point x="5" y="-137"/>
      <point x="-22" y="-186"/>
      <point x="-85" y="-186" type="curve"/>
      <point x="-89" y="-179" type="line"/>
      <point x="-70" y="-167"/>
      <point x="-66" y="-149"/>
      <point x="-66" y="-137" type="curve" smooth="yes"/>
      <point x="-66" y="-111"/>
      <point x="-84" y="-90"/>
      <point x="-114" y="-90" type="curve" smooth="yes"/>
      <point x="-147" y="-90"/>
      <point x="-169" y="-116"/>
      <point x="-169" y="-149" type="curve" smooth="yes"/>
      <point x="-169" y="-184"/>
      <point x="-145" y="-212"/>
    </contour>
  </outline>
</glyph>
<glyph name="g" format="1">
  <advance width="472"/>
  <unicode hex="0067"/>
  <outline>
    <contour>
      <point x="133" y="-212" type="curve" smooth="yes" name="hr00"/>
      <point x="258" y="-212"/>
      <point x="381" y="-168"/>
      <point x="381" y="-64" type="curve" smooth="yes"/>
      <point x="381" y="1"/>
      <point x="335" y="31"/>
      <point x="260" y="59" type="curve" smooth="yes"/>
      <point x="160" y="95" type="line" smooth="yes"/>
      <point x="122" y="109"/>
      <point x="100" y="116"/>
      <point x="100" y="138" type="curve" smooth="yes"/>
      <point x="100" y="172"/>
      <point x="143" y="190"/>
      <point x="177" y="194" type="curve"/>
      <point x="189" y="191"/>
      <point x="201" y="190"/>
      <point x="214" y="190" type="curve" smooth="yes"/>
      <point x="330" y="190"/>
      <point x="427" y="279"/>
      <point x="427" y="396" type="curve" smooth="yes"/>
      <point x="427" y="435"/>
      <point x="415" y="468"/>
      <point x="392" y="491" type="curve"/>
      <point x="408" y="542" type="line"/>
      <point x="412" y="542" type="line"/>
      <point x="417" y="525"/>
      <point x="427" y="515"/>
      <point x="450" y="515" type="curve" smooth="yes"/>
      <point x="476" y="515"/>
      <point x="498" y="536"/>
      <point x="498" y="563" type="curve" smooth="yes"/>
      <point x="498" y="587"/>
      <point x="481" y="603"/>
      <point x="452" y="603" type="curve" smooth="yes"/>
      <point x="408" y="603"/>
      <point x="386" y="568"/>
      <point x="372" y="507" type="curve"/>
      <point x="351" y="520"/>
      <point x="326" y="528"/>
      <point x="296" y="528" type="curve" smooth="yes"/>
      <point x="178" y="528"/>
      <point x="82" y="439"/>
      <point x="82" y="321" type="curve" smooth="yes"/>
      <point x="82" y="271"/>
      <point x="102" y="231"/>
      <point x="138" y="209" type="curve"/>
      <point x="137" y="204" type="line"/>
      <point x="90" y="194"/>
      <point x="34" y="165"/>
      <point x="34" y="108" type="curve" smooth="yes"/>
      <point x="34" y="71"/>
      <point x="59" y="49"/>
      <point x="99" y="32" type="curve"/>
      <point x="97" y="26" type="line"/>
      <point x="21" y="6"/>
      <point x="-68" y="-34"/>
      <point x="-68" y="-106" type="curve" smooth="yes"/>
      <point x="-68" y="-165"/>
      <point x="-6" y="-212"/>
    </contour>
    <contour>
      <point x="223" y="226" type="curve" smooth="yes"/>
      <point x="176" y="226"/>
      <point x="160" y="253"/>
      <point x="160" y="298" type="curve" smooth="yes"/>
      <point x="160" y="310"/>
      <point x="162" y="326"/>
      <point x="175" y="380" type="curve" smooth="yes"/>
      <point x="193" y="452"/>
      <point x="230" y="492"/>
      <point x="286" y="492" type="curve" smooth="yes"/>
      <point x="333" y="492"/>
      <point x="349" y="464"/>
      <point x="349" y="420" type="curve" smooth="yes"/>
      <point x="349" y="408"/>
      <point x="347" y="392"/>
      <point x="334" y="338" type="curve" smooth="yes"/>
      <point x="316" y="266"/>
      <point x="279" y="226"/>
    </contour>
    <contour>
      <point x="146" y="-181" type="curve" smooth="yes"/>
      <point x="53" y="-181"/>
      <point x="10" y="-145"/>
      <point x="10" y="-96" type="curve" smooth="yes"/>
      <point x="10" y="-36"/>
      <point x="71" y="-1"/>
      <point x="138" y="20" type="curve"/>
      <point x="231" y="-13" type="line" smooth="yes"/>
      <point x="276" y="-29"/>
      <point x="302" y="-44"/>
      <point x="302" y="-84" type="curve" smooth="yes"/>
      <point x="302" y="-157"/>
      <point x="216" y="-181"/>
    </contour>
    <contour>
      <point x="297.0" y="540.0" type="move" name="top"/>
    </contour>
  </outline>
</glyph>
<glyph name="h" format="1">
  <advance width="551"/>
  <unicode hex="0068"/>
  <outline>
    <contour>
      <point x="364" y="-12" type="curve" smooth="yes" name="hr00"/>
      <point x="392" y="-12"/>
      <point x="421" y="2"/>
      <point x="468" y="58" type="curve" smooth="yes"/>
      <point x="539" y="141" type="line"/>
      <point x="515" y="160" type="line"/>
      <point x="400" y="45" type="line"/>
      <point x="382" y="53" type="line"/>
      <point x="474" y="394" type="line" smooth="yes"/>
      <point x="479" y="412"/>
      <point x="482" y="429"/>
      <point x="482" y="445" type="curve" smooth="yes"/>
      <point x="482" y="493"/>
      <point x="457" y="528"/>
      <point x="400" y="528" type="curve" smooth="yes"/>
      <point x="303" y="528"/>
      <point x="243" y="422"/>
      <point x="186" y="319" type="curve"/>
      <point x="178" y="322" type="line"/>
      <point x="291" y="760" type="line"/>
      <point x="111" y="722" type="line"/>
      <point x="103" y="687" type="line"/>
      <point x="193" y="687" type="line"/>
      <point x="21" y="0" type="line"/>
      <point x="101" y="0" type="line"/>
      <point x="139" y="151" type="line" smooth="yes"/>
      <point x="179" y="310"/>
      <point x="303" y="464"/>
      <point x="374" y="464" type="curve" smooth="yes"/>
      <point x="392" y="464"/>
      <point x="402" y="455"/>
      <point x="402" y="435" type="curve" smooth="yes"/>
      <point x="402" y="429"/>
      <point x="401" y="421"/>
      <point x="399" y="412" type="curve" smooth="yes"/>
      <point x="311" y="91" type="line" smooth="yes"/>
      <point x="307" y="78"/>
      <point x="304" y="60"/>
      <point x="304" y="46" type="curve" smooth="yes"/>
      <point x="304" y="15"/>
      <point x="324" y="-12"/>
    </contour>
    <contour>
      <point x="204.0" y="0.0" type="move" name="bottom"/>
    </contour>
    <contour>
      <point x="238.0" y="718.0" type="move" name="top"/>
    </contour>
  </outline>
</glyph>
<glyph name="i" format="1">
  <advance width="300"/>
  <unicode hex="0069"/>
  <outline>
    <contour>
      <point x="113" y="-12" type="curve" smooth="yes" name="hr00"/>
      <point x="142" y="-12"/>
      <point x="170" y="3"/>
      <point x="217" y="58" type="curve" smooth="yes"/>
      <point x="288" y="141" type="line"/>
      <point x="264" y="160" type="line"/>
      <point x="149" y="45" type="line"/>
      <point x="131" y="53" type="line"/>
      <point x="250" y="528" type="line"/>
      <point x="69" y="490" type="line"/>
      <point x="61" y="455" type="line"/>
      <point x="151" y="455" type="line"/>
      <point x="61" y="91" type="line" smooth="yes"/>
      <point x="58" y="78"/>
      <point x="54" y="60"/>
      <point x="54" y="46" type="curve" smooth="yes"/>
      <point x="54" y="15"/>
      <point x="74" y="-12"/>
    </contour>
    <contour>
      <point x="236" y="638" type="curve" smooth="yes"/>
      <point x="266" y="638"/>
      <point x="287" y="657"/>
      <point x="294" y="683" type="curve" smooth="yes"/>
      <point x="296" y="690"/>
      <point x="296" y="697"/>
      <point x="296" y="702" type="curve" smooth="yes"/>
      <point x="296" y="722"/>
      <point x="280" y="743"/>
      <point x="250" y="743" type="curve" smooth="yes"/>
      <point x="220" y="743"/>
      <point x="199" y="724"/>
      <point x="192" y="698" type="curve" smooth="yes"/>
      <point x="190" y="691"/>
      <point x="190" y="684"/>
      <point x="190" y="679" type="curve" smooth="yes"/>
      <point x="190" y="659"/>
      <point x="206" y="638"/>
    </contour>
    <contour>
      <point x="114.0" y="0.0" type="move" name="bottom"/>
    </contour>
    <contour>
      <point x="155.0" y="0.0" type="move" name="bottomright"/>
    </contour>
  </outline>
</glyph>
<glyph name="j" format="1">
  <advance width="277"/>
  <unicode hex="006A"/>
  <outline>
    <contour>
      <point x="-64" y="-212" type="curve" smooth="yes" name="hr00"/>
      <point x="26" y="-212"/>
      <point x="90" y="-142"/>
      <point x="115" y="-42" type="curve" smooth="yes"/>
      <point x="257" y="528" type="line"/>
      <point x="68" y="486" type="line"/>
      <point x="59" y="449" type="line"/>
      <point x="150" y="449" type="line"/>
      <point x="24" y="-58" type="line" smooth="yes"/>
      <point x="4" y="-139"/>
      <point x="-15" y="-185"/>
      <point x="-64" y="-187" type="curve"/>
      <point x="-68" y="-180" type="line"/>
      <point x="-49" y="-167"/>
      <point x="-45" y="-148"/>
      <point x="-45" y="-136" type="curve" smooth="yes"/>
      <point x="-45" y="-109"/>
      <point x="-64" y="-85"/>
      <point x="-96" y="-85" type="curve" smooth="yes"/>
      <point x="-131" y="-85"/>
      <point x="-154" y="-112"/>
      <point x="-154" y="-147" type="curve" smooth="yes"/>
      <point x="-154" y="-181"/>
      <point x="-129" y="-212"/>
    </contour>
    <contour>
      <point x="238" y="634" type="curve" smooth="yes"/>
      <point x="271" y="634"/>
      <point x="293" y="655"/>
      <point x="300" y="683" type="curve" smooth="yes"/>
      <point x="302" y="691"/>
      <point x="302" y="697"/>
      <point x="302" y="702" type="curve" smooth="yes"/>
      <point x="302" y="723"/>
      <point x="285" y="746"/>
      <point x="253" y="746" type="curve" smooth="yes"/>
      <point x="220" y="746"/>
      <point x="198" y="725"/>
      <point x="191" y="697" type="curve" smooth="yes"/>
      <point x="189" y="689"/>
      <point x="189" y="683"/>
      <point x="189" y="678" type="curve" smooth="yes"/>
      <point x="189" y="657"/>
      <point x="206" y="634"/>
    </contour>
  </outline>
</glyph>
<glyph name="k" format="1">
  <advance width="530"/>
  <unicode hex="006B"/>
  <outline>
    <contour>
      <point x="362" y="-12" type="curve" smooth="yes" name="hr00"/>
      <point x="394" y="-12"/>
      <point x="412" y="4"/>
      <point x="456" y="56" type="curve" smooth="yes"/>
      <point x="529" y="141" type="line"/>
      <point x="505" y="160" type="line"/>
      <point x="397" y="52" type="line"/>
      <point x="387" y="52" type="line"/>
      <point x="293" y="226" type="line"/>
      <point x="357" y="254"/>
      <point x="482" y="333"/>
      <point x="482" y="442" type="curve" smooth="yes"/>
      <point x="482" y="493"/>
      <point x="456" y="528"/>
      <point x="400" y="528" type="curve" smooth="yes"/>
      <point x="306" y="528"/>
      <point x="246" y="429"/>
      <point x="186" y="319" type="curve"/>
      <point x="178" y="322" type="line"/>
      <point x="291" y="760" type="line"/>
      <point x="111" y="722" type="line"/>
      <point x="103" y="687" type="line"/>
      <point x="193" y="687" type="line"/>
      <point x="21" y="0" type="line"/>
      <point x="101" y="0" type="line"/>
      <point x="139" y="151" type="line" smooth="yes"/>
      <point x="178" y="305"/>
      <point x="300" y="464"/>
      <point x="372" y="464" type="curve" smooth="yes"/>
      <point x="392" y="464"/>
      <point x="404" y="453"/>
      <point x="404" y="426" type="curve" smooth="yes"/>
      <point x="404" y="365"/>
      <point x="339" y="280"/>
      <point x="213" y="215" type="curve"/>
      <point x="306" y="29" type="line" smooth="yes"/>
      <point x="324" y="-6"/>
      <point x="343" y="-12"/>
    </contour>
    <contour>
      <point x="206.0" y="0.0" type="move" name="bottom"/>
    </contour>
  </outline>
</glyph>
<glyph name="l" format="1">
  <advance width="281"/>
  <unicode hex="006C"/>
  <outline>
    <contour>
      <point x="97" y="-12" type="curve" smooth="yes" name="hr00"/>
      <point x="126" y="-12"/>
      <point x="154" y="3"/>
      <point x="201" y="58" type="curve" smooth="yes"/>
      <point x="272" y="141" type="line"/>
      <point x="248" y="160" type="line"/>
      <point x="133" y="45" type="line"/>
      <point x="115" y="53" type="line"/>
      <point x="292" y="760" type="line"/>
      <point x="112" y="722" type="line"/>
      <point x="104" y="687" type="line"/>
      <point x="194" y="687" type="line"/>
      <point x="45" y="91" type="line" smooth="yes"/>
      <point x="42" y="78"/>
      <point x="38" y="60"/>
      <point x="38" y="46" type="curve" smooth="yes"/>
      <point x="38" y="15"/>
      <point x="58" y="-12"/>
    </contour>
    <contour>
      <point x="98.0" y="0.0" type="move" name="bottom"/>
    </contour>
    <contour>
      <point x="247.0" y="743.0" type="move" name="top"/>
    </contour>
    <contour>
      <point x="313.0" y="758.0" type="move" name="topright"/>
    </contour>
  </outline>
</glyph>
<glyph name="m" format="1">
  <advance width="843"/>
  <unicode hex="006D"/>
  <outline>
    <contour>
      <point x="656" y="-12" type="curve" smooth="yes" name="hr00"/>
      <point x="684" y="-12"/>
      <point x="713" y="2"/>
      <point x="760" y="58" type="curve" smooth="yes"/>
      <point x="831" y="141" type="line"/>
      <point x="807" y="160" type="line"/>
      <point x="692" y="45" type="line"/>
      <point x="674" y="53" type="line"/>
      <point x="766" y="394" type="line" smooth="yes"/>
      <point x="771" y="412"/>
      <point x="774" y="429"/>
      <point x="774" y="445" type="curve" smooth="yes"/>
      <point x="774" y="493"/>
      <point x="749" y="528"/>
      <point x="692" y="528" type="curve" smooth="yes"/>
      <point x="595" y="528"/>
      <point x="535" y="423"/>
      <point x="478" y="320" type="curve"/>
      <point x="470" y="323" type="line"/>
      <point x="488" y="393" type="line" smooth="yes"/>
      <point x="493" y="411"/>
      <point x="495" y="429"/>
      <point x="495" y="444" type="curve" smooth="yes"/>
      <point x="495" y="493"/>
      <point x="471" y="528"/>
      <point x="417" y="528" type="curve" smooth="yes"/>
      <point x="320" y="528"/>
      <point x="260" y="421"/>
      <point x="203" y="319" type="curve"/>
      <point x="195" y="322" type="line"/>
      <point x="247" y="528" type="line"/>
      <point x="69" y="490" type="line"/>
      <point x="61" y="455" type="line"/>
      <point x="151" y="455" type="line"/>
      <point x="38" y="0" type="line"/>
      <point x="118" y="0" type="line"/>
      <point x="156" y="151" type="line" smooth="yes"/>
      <point x="195" y="312"/>
      <point x="323" y="464"/>
      <point x="391" y="464" type="curve" smooth="yes"/>
      <point x="409" y="464"/>
      <point x="419" y="454"/>
      <point x="419" y="435" type="curve" smooth="yes"/>
      <point x="419" y="429"/>
      <point x="418" y="422"/>
      <point x="415" y="410" type="curve" smooth="yes"/>
      <point x="313" y="0" type="line"/>
      <point x="393" y="0" type="line"/>
      <point x="431" y="151" type="line"/>
      <point x="470" y="310"/>
      <point x="595" y="464"/>
      <point x="666" y="464" type="curve" smooth="yes"/>
      <point x="684" y="464"/>
      <point x="694" y="455"/>
      <point x="694" y="435" type="curve" smooth="yes"/>
      <point x="694" y="429"/>
      <point x="693" y="421"/>
      <point x="691" y="412" type="curve" smooth="yes"/>
      <point x="603" y="91" type="line" smooth="yes"/>
      <point x="599" y="78"/>
      <point x="596" y="60"/>
      <point x="596" y="46" type="curve" smooth="yes"/>
      <point x="596" y="15"/>
      <point x="616" y="-12"/>
    </contour>
    <contour>
      <point x="354.0" y="0.0" type="move" name="bottom"/>
    </contour>
    <contour>
      <point x="488.0" y="540.0" type="move" name="top"/>
    </contour>
  </outline>
</glyph>
<glyph name="n" format="1">
  <advance width="568"/>
  <unicode hex="006E"/>
  <outline>
    <contour>
      <point x="381" y="-12" type="curve" smooth="yes" name="hr00"/>
      <point x="409" y="-12"/>
      <point x="438" y="2"/>
      <point x="485" y="58" type="curve" smooth="yes"/>
      <point x="556" y="141" type="line"/>
      <point x="532" y="160" type="line"/>
      <point x="417" y="45" type="line"/>
      <point x="399" y="53" type="line"/>
      <point x="491" y="394" type="line" smooth="yes"/>
      <point x="496" y="412"/>
      <point x="499" y="429"/>
      <point x="499" y="445" type="curve" smooth="yes"/>
      <point x="499" y="493"/>
      <point x="474" y="528"/>
      <point x="417" y="528" type="curve" smooth="yes"/>
      <point x="320" y="528"/>
      <point x="260" y="422"/>
      <point x="203" y="319" type="curve"/>
      <point x="195" y="322" type="line"/>
      <point x="247" y="528" type="line"/>
      <point x="69" y="490" type="line"/>
      <point x="61" y="455" type="line"/>
      <point x="151" y="455" type="line"/>
      <point x="38" y="0" type="line"/>
      <point x="118" y="0" type="line"/>
      <point x="156" y="151" type="line" smooth="yes"/>
      <point x="195" y="310"/>
      <point x="321" y="464"/>
      <point x="391" y="464" type="curve" smooth="yes"/>
      <point x="409" y="464"/>
      <point x="419" y="455"/>
      <point x="419" y="435" type="curve" smooth="yes"/>
      <point x="419" y="429"/>
      <point x="418" y="421"/>
      <point x="416" y="412" type="curve" smooth="yes"/>
      <point x="328" y="91" type="line" smooth="yes"/>
      <point x="324" y="78"/>
      <point x="321" y="60"/>
      <point x="321" y="46" type="curve" smooth="yes"/>
      <point x="321" y="15"/>
      <point x="341" y="-12"/>
    </contour>
    <contour>
      <point x="222.0" y="0.0" type="move" name="bottom"/>
    </contour>
    <contour>
      <point x="355.0" y="540.0" type="move" name="top"/>
    </contour>
  </outline>
</glyph>
<glyph name="o" format="1">
  <advance width="496"/>
  <unicode hex="006F"/>
  <outline>
    <contour>
      <point x="191" y="29" type="curve" smooth="yes" name="hr00"/>
      <point x="135" y="29"/>
      <point x="116" y="70"/>
      <point x="116" y="129" type="curve" smooth="yes"/>
      <point x="116" y="160"/>
      <point x="122" y="192"/>
      <point x="152" y="310" type="curve" smooth="yes"/>
      <point x="176" y="407"/>
      <point x="224" y="487"/>
      <point x="305" y="487" type="curve" smooth="yes"/>
      <point x="361" y="487"/>
      <point x="380" y="446"/>
      <point x="380" y="387" type="curve" smooth="yes"/>
      <point x="380" y="356"/>
      <point x="374" y="324"/>
      <point x="344" y="206" type="curve" smooth="yes"/>
      <point x="320" y="109"/>
      <point x="272" y="29"/>
    </contour>
    <contour>
      <point x="188" y="-12" type="curve" smooth="yes"/>
      <point x="361" y="-12"/>
      <point x="459" y="195"/>
      <point x="459" y="348" type="curve" smooth="yes"/>
      <point x="459" y="458"/>
      <point x="409" y="528"/>
      <point x="308" y="528" type="curve" smooth="yes"/>
      <point x="135" y="528"/>
      <point x="37" y="321"/>
      <point x="37" y="168" type="curve" smooth="yes"/>
      <point x="37" y="58"/>
      <point x="87" y="-12"/>
    </contour>
    <contour>
      <point x="186.0" y="0.0" type="move" name="bottom"/>
    </contour>
    <contour>
      <point x="311.0" y="540.0" type="move" name="top"/>
    </contour>
  </outline>
</glyph>
<glyph name="p" format="1">
  <advance width="533"/>
  <unicode hex="0070"/>
  <outline>
    <contour>
      <point x="-84" y="-200" type="line" name="hr00"/>
      <point x="161" y="-200" type="line"/>
      <point x="171" y="-159" type="line"/>
      <point x="79" y="-159" type="line"/>
      <point x="129" y="57" type="line"/>
      <point x="138" y="57" type="line"/>
      <point x="153" y="8"/>
      <point x="183" y="-12"/>
      <point x="236" y="-12" type="curve" smooth="yes"/>
      <point x="397" y="-12"/>
      <point x="494" y="220"/>
      <point x="494" y="383" type="curve" smooth="yes"/>
      <point x="494" y="476"/>
      <point x="464" y="528"/>
      <point x="396" y="528" type="curve" smooth="yes"/>
      <point x="312" y="528"/>
      <point x="259" y="441"/>
      <point x="205" y="325" type="curve"/>
      <point x="197" y="328" type="line"/>
      <point x="248" y="528" type="line"/>
      <point x="69" y="490" type="line"/>
      <point x="61" y="455" type="line"/>
      <point x="151" y="455" type="line"/>
      <point x="-2" y="-159" type="line"/>
      <point x="-74" y="-159" type="line"/>
    </contour>
    <contour>
      <point x="215" y="39" type="curve" smooth="yes"/>
      <point x="157" y="39"/>
      <point x="136" y="86"/>
      <point x="154" y="150" type="curve" smooth="yes"/>
      <point x="158" y="164" type="line" smooth="yes"/>
      <point x="178" y="232"/>
      <point x="280" y="464"/>
      <point x="370" y="464" type="curve" smooth="yes"/>
      <point x="402" y="464"/>
      <point x="410" y="435"/>
      <point x="410" y="383" type="curve" smooth="yes"/>
      <point x="410" y="346"/>
      <point x="395" y="269"/>
      <point x="384" y="227" type="curve" smooth="yes"/>
      <point x="351" y="105"/>
      <point x="286" y="39"/>
    </contour>
    <contour>
      <point x="333.0" y="540.0" type="move" name="top"/>
    </contour>
  </outline>
</glyph>
<glyph name="q" format="1">
  <advance width="518"/>
  <unicode hex="0071"/>
  <outline>
    <contour>
      <point x="144" y="-200" type="line" name="hr00"/>
      <point x="388" y="-200" type="line"/>
      <point x="398" y="-159" type="line"/>
      <point x="326" y="-159" type="line"/>
      <point x="495" y="516" type="line"/>
      <point x="453" y="516" type="line"/>
      <point x="413" y="445" type="line"/>
      <point x="405" y="445" type="line"/>
      <point x="388" y="500"/>
      <point x="356" y="528"/>
      <point x="297" y="528" type="curve" smooth="yes"/>
      <point x="136" y="528"/>
      <point x="39" y="296"/>
      <point x="39" y="133" type="curve" smooth="yes"/>
      <point x="39" y="40"/>
      <point x="69" y="-12"/>
      <point x="136" y="-12" type="curve" smooth="yes"/>
      <point x="219" y="-12"/>
      <point x="273" y="71"/>
      <point x="328" y="191" type="curve"/>
      <point x="336" y="188" type="line"/>
      <point x="246" y="-159" type="line"/>
      <point x="154" y="-159" type="line"/>
    </contour>
    <contour>
      <point x="163" y="52" type="curve" smooth="yes"/>
      <point x="131" y="52"/>
      <point x="123" y="81"/>
      <point x="123" y="133" type="curve" smooth="yes"/>
      <point x="123" y="170"/>
      <point x="138" y="247"/>
      <point x="149" y="289" type="curve" smooth="yes"/>
      <point x="182" y="411"/>
      <point x="247" y="477"/>
      <point x="318" y="477" type="curve"/>
      <point x="376" y="477"/>
      <point x="397" y="430"/>
      <point x="379" y="366" type="curve" smooth="yes"/>
      <point x="375" y="352" type="line" smooth="yes"/>
      <point x="352" y="273"/>
      <point x="250" y="52"/>
    </contour>
    <contour>
      <point x="311.0" y="540.0" type="move" name="top"/>
    </contour>
  </outline>
</glyph>
<glyph name="r" format="1">
  <advance width="437"/>
  <unicode hex="0072"/>
  <outline>
    <contour>
      <point x="38" y="0" type="line" name="hr00"/>
      <point x="118" y="0" type="line"/>
      <point x="147" y="116" type="line" smooth="yes"/>
      <point x="167" y="196"/>
      <point x="217" y="305"/>
      <point x="235" y="341" type="curve" smooth="yes"/>
      <point x="277" y="426"/>
      <point x="323" y="488"/>
      <point x="364" y="494" type="curve" smooth="yes"/>
      <point x="364" y="494"/>
      <point x="370" y="488"/>
      <point x="370" y="488" type="curve"/>
      <point x="359" y="479"/>
      <point x="350" y="461"/>
      <point x="350" y="444" type="curve" smooth="yes"/>
      <point x="350" y="417"/>
      <point x="369" y="397"/>
      <point x="399" y="397" type="curve" smooth="yes"/>
      <point x="436" y="397"/>
      <point x="461" y="428"/>
      <point x="461" y="463" type="curve" smooth="yes"/>
      <point x="461" y="500"/>
      <point x="433" y="528"/>
      <point x="383" y="528" type="curve" smooth="yes"/>
      <point x="303" y="528"/>
      <point x="256" y="453"/>
      <point x="206" y="330" type="curve"/>
      <point x="198" y="333" type="line"/>
      <point x="247" y="528" type="line"/>
      <point x="69" y="490" type="line"/>
      <point x="61" y="455" type="line"/>
      <point x="151" y="455" type="line"/>
    </contour>
    <contour>
      <point x="78.0" y="0.0" type="move" name="bottom"/>
    </contour>
    <contour>
      <point x="291.0" y="540.0" type="move" name="top"/>
    </contour>
  </outline>
</glyph>
<glyph name="s" format="1">
  <advance width="370"/>
  <unicode hex="0073"/>
  <outline>
    <contour>
      <point x="105" y="-12" type="curve" smooth="yes" name="hr00"/>
      <point x="212" y="-12"/>
      <point x="292" y="51"/>
      <point x="292" y="145" type="curve" smooth="yes"/>
      <point x="292" y="198"/>
      <point x="267" y="229"/>
      <point x="241" y="260" type="curve" smooth="yes"/>
      <point x="196" y="312"/>
      <point x="161" y="344"/>
      <point x="161" y="403" type="curve" smooth="yes"/>
      <point x="161" y="483"/>
      <point x="230" y="501"/>
      <point x="279" y="501" type="curve"/>
      <point x="282" y="494" type="line"/>
      <point x="271" y="483"/>
      <point x="265" y="466"/>
      <point x="265" y="451" type="curve" smooth="yes"/>
      <point x="265" y="420"/>
      <point x="285" y="405"/>
      <point x="311" y="405" type="curve" smooth="yes"/>
      <point x="345" y="405"/>
      <point x="365" y="431"/>
      <point x="365" y="460" type="curve" smooth="yes"/>
      <point x="365" y="497"/>
      <point x="334" y="528"/>
      <point x="263" y="528" type="curve" smooth="yes"/>
      <point x="159" y="528"/>
      <point x="85" y="463"/>
      <point x="85" y="370" type="curve" smooth="yes"/>
      <point x="85" y="317"/>
      <point x="110" y="286"/>
      <point x="136" y="255" type="curve" smooth="yes"/>
      <point x="181" y="203"/>
      <point x="216" y="171"/>
      <point x="216" y="112" type="curve" smooth="yes"/>
      <point x="216" y="31"/>
      <point x="137" y="15"/>
      <point x="87" y="15" type="curve"/>
      <point x="84" y="22" type="line"/>
      <point x="95" y="33"/>
      <point x="101" y="50"/>
      <point x="101" y="65" type="curve" smooth="yes"/>
      <point x="101" y="96"/>
      <point x="82" y="111"/>
      <point x="55" y="111" type="curve" smooth="yes"/>
      <point x="21" y="111"/>
      <point x="1" y="85"/>
      <point x="1" y="56" type="curve" smooth="yes"/>
      <point x="1" y="17"/>
      <point x="32" y="-12"/>
    </contour>
    <contour>
      <point x="111.0" y="0.0" type="move" name="bottom"/>
    </contour>
    <contour>
      <point x="264.0" y="540.0" type="move" name="top"/>
    </contour>
  </outline>
</glyph>
<glyph name="t" format="1">
  <advance width="355"/>
  <unicode hex="0074"/>
  <outline>
    <contour>
      <point x="115" y="-12" type="curve" smooth="yes" name="hr00"/>
      <point x="144" y="-12"/>
      <point x="161" y="-5"/>
      <point x="216" y="42" type="curve" smooth="yes"/>
      <point x="317" y="127" type="line"/>
      <point x="295" y="151" type="line"/>
      <point x="151" y="45" type="line"/>
      <point x="135" y="54" type="line"/>
      <point x="239" y="471" type="line"/>
      <point x="369" y="471" type="line"/>
      <point x="380" y="516" type="line"/>
      <point x="250" y="516" type="line"/>
      <point x="284" y="650" type="line"/>
      <point x="238" y="650" type="line"/>
      <point x="192" y="560" type="line" smooth="yes"/>
      <point x="176" y="529"/>
      <point x="164" y="516"/>
      <point x="125" y="516" type="curve" smooth="yes"/>
      <point x="80" y="516" type="line"/>
      <point x="69" y="471" type="line"/>
      <point x="159" y="471" type="line"/>
      <point x="64" y="91" type="line" smooth="yes"/>
      <point x="61" y="79"/>
      <point x="56" y="60"/>
      <point x="56" y="46" type="curve" smooth="yes"/>
      <point x="56" y="15"/>
      <point x="75" y="-12"/>
    </contour>
    <contour>
      <point x="126.0" y="0.0" type="move" name="bottom"/>
    </contour>
    <contour>
      <point x="336.0" y="758.0" type="move" name="topright"/>
    </contour>
  </outline>
</glyph>
<glyph name="u" format="1">
  <advance width="567"/>
  <unicode hex="0075"/>
  <outline>
    <contour>
      <point x="138" y="-12" type="curve" smooth="yes" name="hr00"/>
      <point x="236" y="-12"/>
      <point x="296" y="93"/>
      <point x="353" y="196" type="curve"/>
      <point x="361" y="193" type="line"/>
      <point x="336" y="94" type="line" smooth="yes"/>
      <point x="333" y="82"/>
      <point x="328" y="59"/>
      <point x="328" y="44" type="curve" smooth="yes"/>
      <point x="328" y="14"/>
      <point x="345" y="-12"/>
      <point x="385" y="-12" type="curve" smooth="yes"/>
      <point x="413" y="-12"/>
      <point x="440" y="2"/>
      <point x="487" y="58" type="curve" smooth="yes"/>
      <point x="558" y="141" type="line"/>
      <point x="534" y="160" type="line"/>
      <point x="419" y="45" type="line"/>
      <point x="401" y="53" type="line"/>
      <point x="518" y="516" type="line"/>
      <point x="438" y="516" type="line"/>
      <point x="400" y="364" type="line" smooth="yes"/>
      <point x="360" y="204"/>
      <point x="236" y="52"/>
      <point x="165" y="52" type="curve" smooth="yes"/>
      <point x="146" y="52"/>
      <point x="137" y="61"/>
      <point x="137" y="81" type="curve" smooth="yes"/>
      <point x="137" y="88"/>
      <point x="138" y="96"/>
      <point x="140" y="104" type="curve" smooth="yes"/>
      <point x="256" y="528" type="line"/>
      <point x="72" y="490" type="line"/>
      <point x="64" y="455" type="line"/>
      <point x="154" y="455" type="line"/>
      <point x="65" y="122" type="line" smooth="yes"/>
      <point x="60" y="104"/>
      <point x="57" y="87"/>
      <point x="57" y="71" type="curve" smooth="yes"/>
      <point x="57" y="23"/>
      <point x="82" y="-12"/>
    </contour>
    <contour>
      <point x="230.0" y="0.0" type="move" name="bottom"/>
    </contour>
    <contour>
      <point x="426.0" y="0.0" type="move" name="bottomright"/>
    </contour>
    <contour>
      <point x="349.0" y="540.0" type="move" name="top"/>
    </contour>
  </outline>
</glyph>
<glyph name="v" format="1">
  <advance width="453"/>
  <unicode hex="0076"/>
  <outline>
    <contour>
      <point x="128" y="0" type="line" name="hr00"/>
      <point x="188" y="0" type="line"/>
      <point x="472" y="475" type="line"/>
      <point x="514" y="475" type="line"/>
      <point x="525" y="516" type="line"/>
      <point x="363" y="516" type="line"/>
      <point x="353" y="475" type="line"/>
      <point x="415" y="475" type="line"/>
      <point x="203" y="97" type="line"/>
      <point x="195" y="97" type="line"/>
      <point x="170" y="475" type="line"/>
      <point x="232" y="475" type="line"/>
      <point x="242" y="516" type="line"/>
      <point x="54" y="516" type="line"/>
      <point x="44" y="475" type="line"/>
      <point x="89" y="475" type="line"/>
    </contour>
    <contour>
      <point x="160.0" y="0.0" type="move" name="bottom"/>
    </contour>
    <contour>
      <point x="305.0" y="540.0" type="move" name="top"/>
    </contour>
  </outline>
</glyph>
<glyph name="w" format="1">
  <advance width="697"/>
  <unicode hex="0077"/>
  <outline>
    <contour>
      <point x="105" y="0" type="line" name="hr00"/>
      <point x="170" y="0" type="line"/>
      <point x="383" y="406" type="line"/>
      <point x="391" y="406" type="line"/>
      <point x="387" y="0" type="line"/>
      <point x="447" y="0" type="line"/>
      <point x="710" y="475" type="line"/>
      <point x="752" y="475" type="line"/>
      <point x="762" y="516" type="line"/>
      <point x="602" y="516" type="line"/>
      <point x="592" y="475" type="line"/>
      <point x="655" y="475" type="line"/>
      <point x="462" y="102" type="line"/>
      <point x="454" y="102" type="line"/>
      <point x="461" y="516" type="line"/>
      <point x="399" y="516" type="line"/>
      <point x="181" y="102" type="line"/>
      <point x="174" y="102" type="line"/>
      <point x="185" y="475" type="line"/>
      <point x="248" y="475" type="line"/>
      <point x="258" y="516" type="line"/>
      <point x="73" y="516" type="line"/>
      <point x="63" y="475" type="line"/>
      <point x="108" y="475" type="line"/>
    </contour>
    <contour>
      <point x="284.0" y="0.0" type="move" name="bottom"/>
    </contour>
    <contour>
      <point x="435.0" y="540.0" type="move" name="top"/>
    </contour>
  </outline>
</glyph>
<glyph name="x" format="1">
  <advance width="570"/>
  <unicode hex="0078"/>
  <outline>
    <contour>
      <point x="75" y="-12" type="curve" smooth="yes" name="hr00"/>
      <point x="123" y="-12"/>
      <point x="164" y="18"/>
      <point x="199" y="70" type="curve" smooth="yes"/>
      <point x="224" y="107"/>
      <point x="243" y="156"/>
      <point x="259" y="196" type="curve"/>
      <point x="267" y="196" type="line"/>
      <point x="298" y="30" type="line" smooth="yes"/>
      <point x="302" y="6"/>
      <point x="321" y="-12"/>
      <point x="350" y="-12" type="curve" smooth="yes"/>
      <point x="378" y="-12"/>
      <point x="400" y="3"/>
      <point x="446" y="59" type="curve" smooth="yes"/>
      <point x="502" y="123" type="line"/>
      <point x="480" y="143" type="line"/>
      <point x="389" y="52" type="line"/>
      <point x="373" y="56" type="line"/>
      <point x="322" y="267" type="line"/>
      <point x="372" y="398"/>
      <point x="428" y="486"/>
      <point x="479" y="496" type="curve"/>
      <point x="484" y="491" type="line"/>
      <point x="474" y="482"/>
      <point x="466" y="464"/>
      <point x="466" y="446" type="curve" smooth="yes"/>
      <point x="466" y="420"/>
      <point x="484" y="400"/>
      <point x="514" y="400" type="curve" smooth="yes"/>
      <point x="550" y="400"/>
      <point x="575" y="430"/>
      <point x="575" y="466" type="curve" smooth="yes"/>
      <point x="575" y="502"/>
      <point x="547" y="528"/>
      <point x="495" y="528" type="curve" smooth="yes"/>
      <point x="447" y="528"/>
      <point x="406" y="498"/>
      <point x="371" y="446" type="curve" smooth="yes"/>
      <point x="346" y="409"/>
      <point x="327" y="360"/>
      <point x="311" y="320" type="curve"/>
      <point x="303" y="320" type="line"/>
      <point x="272" y="486" type="line" smooth="yes"/>
      <point x="267" y="510"/>
      <point x="250" y="528"/>
      <point x="220" y="528" type="curve" smooth="yes"/>
      <point x="193" y="528"/>
      <point x="172" y="512"/>
      <point x="124" y="457" type="curve" smooth="yes"/>
      <point x="68" y="393" type="line"/>
      <point x="90" y="373" type="line"/>
      <point x="181" y="464" type="line"/>
      <point x="197" y="460" type="line"/>
      <point x="248" y="248" type="line"/>
      <point x="198" y="117"/>
      <point x="142" y="30"/>
      <point x="91" y="20" type="curve"/>
      <point x="86" y="25" type="line"/>
      <point x="96" y="34"/>
      <point x="104" y="52"/>
      <point x="104" y="70" type="curve" smooth="yes"/>
      <point x="104" y="96"/>
      <point x="86" y="116"/>
      <point x="56" y="116" type="curve" smooth="yes"/>
      <point x="20" y="116"/>
      <point x="-5" y="86"/>
      <point x="-5" y="50" type="curve" smooth="yes"/>
      <point x="-5" y="14"/>
      <point x="23" y="-12"/>
    </contour>
    <contour>
      <point x="226.0" y="0.0" type="move" name="bottom"/>
    </contour>
    <contour>
      <point x="341.0" y="540.0" type="move" name="top"/>
    </contour>
  </outline>
</glyph>
<glyph name="y" format="1">
  <advance width="453"/>
  <unicode hex="0079"/>
  <outline>
    <contour>
      <point x="-20" y="-212" type="curve" smooth="yes" name="hr00"/>
      <point x="31" y="-212"/>
      <point x="90" y="-176"/>
      <point x="151" y="-72" type="curve" smooth="yes"/>
      <point x="473" y="475" type="line"/>
      <point x="515" y="475" type="line"/>
      <point x="525" y="516" type="line"/>
      <point x="366" y="516" type="line"/>
      <point x="356" y="475" type="line"/>
      <point x="418" y="475" type="line"/>
      <point x="206" y="93" type="line"/>
      <point x="198" y="93" type="line"/>
      <point x="173" y="475" type="line"/>
      <point x="235" y="475" type="line"/>
      <point x="245" y="516" type="line"/>
      <point x="57" y="516" type="line"/>
      <point x="47" y="475" type="line"/>
      <point x="92" y="475" type="line"/>
      <point x="133" y="-22" type="line"/>
      <point x="84" y="-118"/>
      <point x="42" y="-160"/>
      <point x="-2" y="-180" type="curve"/>
      <point x="-9" y="-175" type="line"/>
      <point x="2" y="-166"/>
      <point x="10" y="-148"/>
      <point x="10" y="-131" type="curve" smooth="yes"/>
      <point x="10" y="-104"/>
      <point x="-7" y="-84"/>
      <point x="-38" y="-84" type="curve" smooth="yes"/>
      <point x="-74" y="-84"/>
      <point x="-100" y="-114"/>
      <point x="-100" y="-150" type="curve" smooth="yes"/>
      <point x="-100" y="-186"/>
      <point x="-69" y="-212"/>
    </contour>
    <contour>
      <point x="298.0" y="0.0" type="move" name="bottom"/>
    </contour>
    <contour>
      <point x="307.0" y="540.0" type="move" name="top"/>
    </contour>
  </outline>
</glyph>
<glyph name="z" format="1">
  <advance width="453"/>
  <unicode hex="007A"/>
  <outline>
    <contour>
      <point x="299" y="-12" type="curve" smooth="yes" name="hr00"/>
      <point x="350" y="-12"/>
      <point x="370" y="4"/>
      <point x="382" y="54" type="curve" smooth="yes"/>
      <point x="411" y="177" type="line"/>
      <point x="381" y="183" type="line"/>
      <point x="343" y="68" type="line"/>
      <point x="328" y="59" type="line"/>
      <point x="86" y="100" type="line"/>
      <point x="413" y="418" type="line" smooth="yes"/>
      <point x="436" y="440"/>
      <point x="445" y="450"/>
      <point x="452" y="480" type="curve" smooth="yes"/>
      <point x="461" y="516" type="line"/>
      <point x="416" y="516" type="line"/>
      <point x="403" y="465" type="line"/>
      <point x="279" y="506"/>
      <point x="225" y="528"/>
      <point x="173" y="528" type="curve" smooth="yes"/>
      <point x="122" y="528"/>
      <point x="102" y="512"/>
      <point x="90" y="462" type="curve" smooth="yes"/>
      <point x="61" y="339" type="line"/>
      <point x="91" y="333" type="line"/>
      <point x="129" y="448" type="line"/>
      <point x="144" y="457" type="line"/>
      <point x="353" y="417" type="line"/>
      <point x="28" y="98" type="line" smooth="yes"/>
      <point x="5" y="76"/>
      <point x="-4" y="66"/>
      <point x="-11" y="36" type="curve" smooth="yes"/>
      <point x="-20" y="0" type="line"/>
      <point x="25" y="0" type="line"/>
      <point x="38" y="51" type="line"/>
      <point x="177" y="5"/>
      <point x="240" y="-12"/>
    </contour>
    <contour>
      <point x="176.0" y="0.0" type="move" name="bottom"/>
    </contour>
    <contour>
      <point x="289.0" y="540.0" type="move" name="top"/>
    </contour>
  </outline>
</glyph>
<glyph name="braceleft" format="1">
  <advance width="299"/>
  <unicode hex="007B"/>
  <outline>
    <contour>
      <point x="78" y="-138" type="curve" smooth="yes" name="hr00"/>
      <point x="174" y="-138" type="line"/>
      <point x="184" y="-97" type="line"/>
      <point x="93" y="-97" type="line"/>
      <point x="162" y="179" type="line" smooth="yes"/>
      <point x="165" y="190"/>
      <point x="166" y="200"/>
      <point x="166" y="209" type="curve" smooth="yes"/>
      <point x="166" y="257"/>
      <point x="135" y="298"/>
      <point x="90" y="306" type="curve"/>
      <point x="93" y="316" type="line"/>
      <point x="151" y="325"/>
      <point x="210" y="373"/>
      <point x="226" y="435" type="curve" smooth="yes"/>
      <point x="297" y="719" type="line"/>
      <point x="388" y="719" type="line"/>
      <point x="398" y="760" type="line"/>
      <point x="307" y="760" type="line" smooth="yes"/>
      <point x="257" y="760"/>
      <point x="226" y="732"/>
      <point x="216" y="696" type="curve" smooth="yes"/>
      <point x="148" y="426" type="line" smooth="yes"/>
      <point x="134" y="368"/>
      <point x="86" y="335"/>
      <point x="33" y="335" type="curve"/>
      <point x="21" y="286" type="line"/>
      <point x="65" y="286"/>
      <point x="95" y="267"/>
      <point x="95" y="227" type="curve" smooth="yes"/>
      <point x="95" y="219"/>
      <point x="94" y="211"/>
      <point x="92" y="201" type="curve" smooth="yes"/>
      <point x="28" y="-58" type="line" smooth="yes"/>
      <point x="25" y="-69"/>
      <point x="24" y="-76"/>
      <point x="24" y="-85" type="curve" smooth="yes"/>
      <point x="24" y="-115"/>
      <point x="41" y="-138"/>
    </contour>
  </outline>
</glyph>
<glyph name="bar" format="1">
  <advance width="316"/>
  <unicode hex="007C"/>
  <outline>
    <contour>
      <point x="29" y="-138" type="line" name="hr00"/>
      <point x="89" y="-138" type="line"/>
      <point x="312" y="760" type="line"/>
      <point x="252" y="760" type="line"/>
    </contour>
  </outline>
</glyph>
<glyph name="braceright" format="1">
  <advance width="299"/>
  <unicode hex="007D"/>
  <outline>
    <contour>
      <point x="-74" y="-138" type="line" name="hr00"/>
      <point x="17" y="-138" type="line" smooth="yes"/>
      <point x="67" y="-138"/>
      <point x="98" y="-110"/>
      <point x="108" y="-74" type="curve" smooth="yes"/>
      <point x="176" y="196" type="line" smooth="yes"/>
      <point x="190" y="254"/>
      <point x="238" y="287"/>
      <point x="291" y="287" type="curve"/>
      <point x="303" y="336" type="line"/>
      <point x="259" y="336"/>
      <point x="229" y="355"/>
      <point x="229" y="395" type="curve" smooth="yes"/>
      <point x="229" y="403"/>
      <point x="230" y="411"/>
      <point x="232" y="421" type="curve" smooth="yes"/>
      <point x="296" y="680" type="line" smooth="yes"/>
      <point x="299" y="691"/>
      <point x="300" y="698"/>
      <point x="300" y="707" type="curve" smooth="yes"/>
      <point x="300" y="737"/>
      <point x="283" y="760"/>
      <point x="246" y="760" type="curve" smooth="yes"/>
      <point x="150" y="760" type="line"/>
      <point x="140" y="719" type="line"/>
      <point x="231" y="719" type="line"/>
      <point x="162" y="443" type="line" smooth="yes"/>
      <point x="159" y="432"/>
      <point x="158" y="422"/>
      <point x="158" y="413" type="curve" smooth="yes"/>
      <point x="158" y="365"/>
      <point x="189" y="324"/>
      <point x="234" y="316" type="curve"/>
      <point x="231" y="306" type="line"/>
      <point x="173" y="297"/>
      <point x="114" y="249"/>
      <point x="98" y="187" type="curve" smooth="yes"/>
      <point x="27" y="-97" type="line"/>
      <point x="-64" y="-97" type="line"/>
    </contour>
  </outline>
</glyph>
<glyph name="asciitilde" format="1">
  <advance width="550"/>
  <unicode hex="007E"/>
  <outline>
    <contour>
      <point x="385" y="247" type="curve" smooth="yes" name="hr00"/>
      <point x="438" y="247"/>
      <point x="469" y="265"/>
      <point x="501" y="297" type="curve"/>
      <point x="481" y="329" type="line"/>
      <point x="448" y="305"/>
      <point x="424" y="295"/>
      <point x="393" y="295" type="curve" smooth="yes"/>
      <point x="356" y="295"/>
      <point x="330" y="310"/>
      <point x="297" y="329" type="curve" smooth="yes"/>
      <point x="257" y="353"/>
      <point x="230" y="366"/>
      <point x="187" y="366" type="curve" smooth="yes"/>
      <point x="134" y="366"/>
      <point x="103" y="348"/>
      <point x="71" y="316" type="curve"/>
      <point x="91" y="284" type="line"/>
      <point x="124" y="308"/>
      <point x="148" y="318"/>
      <point x="179" y="318" type="curve" smooth="yes"/>
      <point x="216" y="318"/>
      <point x="242" y="303"/>
      <point x="275" y="284" type="curve" smooth="yes"/>
      <point x="315" y="260"/>
      <point x="342" y="247"/>
    </contour>
  </outline>
</glyph>
<glyph name="exclamdown" format="1">
  <advance width="254"/>
  <unicode hex="00A1"/>
  <outline>
    <contour>
      <point x="168" y="402" type="curve" smooth="yes" name="hr00"/>
      <point x="201" y="402"/>
      <point x="228" y="422"/>
      <point x="237" y="455" type="curve" smooth="yes"/>
      <point x="240" y="467"/>
      <point x="240" y="472"/>
      <point x="240" y="478" type="curve" smooth="yes"/>
      <point x="240" y="504"/>
      <point x="221" y="528"/>
      <point x="186" y="528" type="curve" smooth="yes"/>
      <point x="153" y="528"/>
      <point x="126" y="508"/>
      <point x="117" y="475" type="curve" smooth="yes"/>
      <point x="114" y="463"/>
      <point x="114" y="458"/>
      <point x="114" y="452" type="curve" smooth="yes"/>
      <point x="114" y="426"/>
      <point x="133" y="402"/>
    </contour>
    <contour>
      <point x="-24" y="-182" type="line"/>
      <point x="57" y="-182" type="line"/>
      <point x="110" y="29" type="line"/>
      <point x="162" y="332" type="line"/>
      <point x="129" y="332" type="line"/>
      <point x="29" y="29" type="line"/>
    </contour>
  </outline>
</glyph>
<glyph name="cent" format="1">
  <advance width="448"/>
  <unicode hex="00A2"/>
  <outline>
    <contour>
      <point x="119" y="-114" type="line" name="hr00"/>
      <point x="166" y="-114" type="line"/>
      <point x="192" y="-12" type="line"/>
      <point x="281" y="-6"/>
      <point x="338" y="53"/>
      <point x="400" y="174" type="curve"/>
      <point x="369" y="189" type="line"/>
      <point x="320" y="102"/>
      <point x="267" y="47"/>
      <point x="204" y="45" type="curve"/>
      <point x="315" y="488" type="line"/>
      <point x="347" y="487"/>
      <point x="379" y="479"/>
      <point x="393" y="469" type="curve"/>
      <point x="393" y="461" type="line"/>
      <point x="344" y="459"/>
      <point x="325" y="426"/>
      <point x="325" y="398" type="curve" smooth="yes"/>
      <point x="325" y="374"/>
      <point x="339" y="356"/>
      <point x="372" y="356" type="curve" smooth="yes"/>
      <point x="413" y="356"/>
      <point x="439" y="386"/>
      <point x="439" y="429" type="curve" smooth="yes"/>
      <point x="439" y="481"/>
      <point x="391" y="520"/>
      <point x="326" y="526" type="curve"/>
      <point x="352" y="629" type="line"/>
      <point x="305" y="629" type="line"/>
      <point x="279" y="525" type="line"/>
      <point x="111" y="503"/>
      <point x="42" y="282"/>
      <point x="42" y="140" type="curve" smooth="yes"/>
      <point x="42" y="51"/>
      <point x="73" y="-2"/>
      <point x="145" y="-10" type="curve"/>
    </contour>
    <contour>
      <point x="163" y="51" type="line"/>
      <point x="135" y="64"/>
      <point x="123" y="94"/>
      <point x="123" y="133" type="curve" smooth="yes"/>
      <point x="123" y="178"/>
      <point x="137" y="246"/>
      <point x="148" y="289" type="curve" smooth="yes"/>
      <point x="180" y="413"/>
      <point x="218" y="465"/>
      <point x="270" y="481" type="curve"/>
    </contour>
  </outline>
</glyph>
<glyph name="sterling" format="1">
  <advance width="549"/>
  <unicode hex="00A3"/>
  <outline>
    <contour>
      <point x="-7" y="0" type="line" name="hr00"/>
      <point x="423" y="0" type="line"/>
      <point x="466" y="171" type="line"/>
      <point x="419" y="171" type="line"/>
      <point x="390" y="59" type="line"/>
      <point x="70" y="59" type="line"/>
      <point x="70" y="65" type="line"/>
      <point x="157" y="116"/>
      <point x="221" y="201"/>
      <point x="224" y="307" type="curve"/>
      <point x="385" y="307" type="line"/>
      <point x="396" y="349" type="line"/>
      <point x="225" y="349" type="line"/>
      <point x="225" y="381"/>
      <point x="223" y="411"/>
      <point x="223" y="435" type="curve" smooth="yes"/>
      <point x="223" y="569"/>
      <point x="282" y="661"/>
      <point x="399" y="661" type="curve" smooth="yes"/>
      <point x="443" y="661"/>
      <point x="470" y="654"/>
      <point x="496" y="642" type="curve"/>
      <point x="495" y="636" type="line"/>
      <point x="458" y="626"/>
      <point x="438" y="597"/>
      <point x="438" y="564" type="curve" smooth="yes"/>
      <point x="438" y="534"/>
      <point x="457" y="513"/>
      <point x="491" y="513" type="curve" smooth="yes"/>
      <point x="531" y="513"/>
      <point x="559" y="551"/>
      <point x="559" y="595" type="curve" smooth="yes"/>
      <point x="559" y="664"/>
      <point x="488" y="710"/>
      <point x="399" y="710" type="curve" smooth="yes"/>
      <point x="279" y="710"/>
      <point x="142" y="634"/>
      <point x="142" y="430" type="curve" smooth="yes"/>
      <point x="142" y="395"/>
      <point x="143" y="371"/>
      <point x="145" y="349" type="curve"/>
      <point x="73" y="349" type="line"/>
      <point x="62" y="307" type="line"/>
      <point x="146" y="307" type="line"/>
      <point x="146" y="188"/>
      <point x="67" y="89"/>
      <point x="8" y="62" type="curve"/>
    </contour>
  </outline>
</glyph>
<glyph name="currency" format="1">
  <advance width="595"/>
  <unicode hex="00A4"/>
  <outline>
    <contour>
      <point x="262" y="119" type="curve" smooth="yes" name="hr00"/>
      <point x="312" y="119"/>
      <point x="358" y="137"/>
      <point x="396" y="167" type="curve"/>
      <point x="465" y="62" type="line"/>
      <point x="512" y="100" type="line"/>
      <point x="440" y="210" type="line"/>
      <point x="487" y="267"/>
      <point x="515" y="348"/>
      <point x="515" y="426" type="curve" smooth="yes"/>
      <point x="515" y="445"/>
      <point x="512" y="464"/>
      <point x="507" y="480" type="curve"/>
      <point x="629" y="585" type="line"/>
      <point x="595" y="633" type="line"/>
      <point x="479" y="532" type="line"/>
      <point x="454" y="560"/>
      <point x="416" y="579"/>
      <point x="364" y="579" type="curve" smooth="yes"/>
      <point x="314" y="579"/>
      <point x="268" y="561"/>
      <point x="230" y="531" type="curve"/>
      <point x="161" y="636" type="line"/>
      <point x="114" y="598" type="line"/>
      <point x="186" y="488" type="line"/>
      <point x="139" y="431"/>
      <point x="111" y="350"/>
      <point x="111" y="272" type="curve" smooth="yes"/>
      <point x="111" y="253"/>
      <point x="114" y="234"/>
      <point x="119" y="218" type="curve"/>
      <point x="-3" y="112" type="line"/>
      <point x="31" y="65" type="line"/>
      <point x="147" y="166" type="line"/>
      <point x="172" y="138"/>
      <point x="210" y="119"/>
    </contour>
    <contour>
      <point x="266" y="160" type="curve" smooth="yes"/>
      <point x="218" y="160"/>
      <point x="180" y="187"/>
      <point x="180" y="243" type="curve" smooth="yes"/>
      <point x="180" y="286"/>
      <point x="200" y="353"/>
      <point x="208" y="388" type="curve" smooth="yes"/>
      <point x="229" y="471"/>
      <point x="282" y="538"/>
      <point x="360" y="538" type="curve" smooth="yes"/>
      <point x="408" y="538"/>
      <point x="446" y="511"/>
      <point x="446" y="455" type="curve" smooth="yes"/>
      <point x="446" y="412"/>
      <point x="426" y="345"/>
      <point x="418" y="310" type="curve" smooth="yes"/>
      <point x="397" y="227"/>
      <point x="344" y="160"/>
    </contour>
  </outline>
</glyph>
<glyph name="yen" format="1">
  <advance width="579"/>
  <unicode hex="00A5"/>
  <outline>
    <contour>
      <point x="103" y="0" type="line" name="hr00"/>
      <point x="346" y="0" type="line"/>
      <point x="356" y="41" type="line"/>
      <point x="274" y="41" type="line"/>
      <point x="302" y="153" type="line"/>
      <point x="465" y="153" type="line"/>
      <point x="475" y="194" type="line"/>
      <point x="312" y="194" type="line"/>
      <point x="339" y="305" type="line"/>
      <point x="503" y="305" type="line"/>
      <point x="513" y="346" type="line"/>
      <point x="367" y="346" type="line"/>
      <point x="604" y="657" type="line"/>
      <point x="656" y="657" type="line"/>
      <point x="666" y="698" type="line"/>
      <point x="476" y="698" type="line"/>
      <point x="466" y="657" type="line"/>
      <point x="542" y="657" type="line"/>
      <point x="330" y="370" type="line"/>
      <point x="324" y="370" type="line"/>
      <point x="261" y="657" type="line"/>
      <point x="337" y="657" type="line"/>
      <point x="347" y="698" type="line"/>
      <point x="132" y="698" type="line"/>
      <point x="122" y="657" type="line"/>
      <point x="174" y="657" type="line"/>
      <point x="255" y="346" type="line"/>
      <point x="108" y="346" type="line"/>
      <point x="97" y="305" type="line"/>
      <point x="260" y="305" type="line"/>
      <point x="232" y="194" type="line"/>
      <point x="70" y="194" type="line"/>
      <point x="59" y="153" type="line"/>
      <point x="222" y="153" type="line"/>
      <point x="195" y="41" type="line"/>
      <point x="113" y="41" type="line"/>
    </contour>
  </outline>
</glyph>
<glyph name="brokenbar" format="1">
  <advance width="312"/>
  <unicode hex="00A6"/>
  <outline>
    <contour>
      <point x="29" y="-138" type="line" name="hr00"/>
      <point x="84" y="-138" type="line"/>
      <point x="173" y="221" type="line"/>
      <point x="118" y="221" type="line"/>
    </contour>
    <contour>
      <point x="163" y="401" type="line"/>
      <point x="219" y="401" type="line"/>
      <point x="308" y="760" type="line"/>
      <point x="252" y="760" type="line"/>
    </contour>
  </outline>
</glyph>
<glyph name="section" format="1">
  <advance width="524"/>
  <unicode hex="00A7"/>
  <outline>
    <contour>
      <point x="144" y="-154" type="curve" smooth="yes" name="hr00"/>
      <point x="258" y="-154"/>
      <point x="348" y="-78"/>
      <point x="348" y="15" type="curve" smooth="yes"/>
      <point x="348" y="48"/>
      <point x="337" y="72"/>
      <point x="313" y="101" type="curve"/>
      <point x="315" y="111" type="line"/>
      <point x="398" y="129"/>
      <point x="463" y="179"/>
      <point x="463" y="257" type="curve" smooth="yes"/>
      <point x="463" y="326"/>
      <point x="411" y="366"/>
      <point x="355" y="419" type="curve" smooth="yes"/>
      <point x="323" y="449" type="line" smooth="yes"/>
      <point x="281" y="489"/>
      <point x="244" y="518"/>
      <point x="244" y="567" type="curve" smooth="yes"/>
      <point x="244" y="632"/>
      <point x="302" y="678"/>
      <point x="384" y="678" type="curve" smooth="yes"/>
      <point x="399" y="678"/>
      <point x="418" y="676"/>
      <point x="431" y="670" type="curve"/>
      <point x="431" y="663" type="line"/>
      <point x="407" y="658"/>
      <point x="387" y="635"/>
      <point x="387" y="608" type="curve" smooth="yes"/>
      <point x="387" y="579"/>
      <point x="409" y="563"/>
      <point x="434" y="563" type="curve" smooth="yes"/>
      <point x="471" y="563"/>
      <point x="498" y="594"/>
      <point x="498" y="631" type="curve" smooth="yes"/>
      <point x="498" y="684"/>
      <point x="441" y="710"/>
      <point x="374" y="710" type="curve" smooth="yes"/>
      <point x="260" y="710"/>
      <point x="170" y="634"/>
      <point x="170" y="541" type="curve" smooth="yes"/>
      <point x="170" y="508"/>
      <point x="181" y="484"/>
      <point x="205" y="455" type="curve"/>
      <point x="203" y="445" type="line"/>
      <point x="120" y="427"/>
      <point x="55" y="377"/>
      <point x="55" y="299" type="curve" smooth="yes"/>
      <point x="55" y="230"/>
      <point x="107" y="190"/>
      <point x="163" y="137" type="curve" smooth="yes"/>
      <point x="195" y="107" type="line" smooth="yes"/>
      <point x="237" y="67"/>
      <point x="274" y="38"/>
      <point x="274" y="-11" type="curve" smooth="yes"/>
      <point x="274" y="-76"/>
      <point x="216" y="-122"/>
      <point x="134" y="-122" type="curve" smooth="yes"/>
      <point x="119" y="-122"/>
      <point x="100" y="-120"/>
      <point x="87" y="-114" type="curve"/>
      <point x="87" y="-107" type="line"/>
      <point x="111" y="-102"/>
      <point x="131" y="-79"/>
      <point x="131" y="-52" type="curve" smooth="yes"/>
      <point x="131" y="-23"/>
      <point x="109" y="-7"/>
      <point x="84" y="-7" type="curve" smooth="yes"/>
      <point x="47" y="-7"/>
      <point x="20" y="-38"/>
      <point x="20" y="-75" type="curve" smooth="yes"/>
      <point x="20" y="-128"/>
      <point x="77" y="-154"/>
    </contour>
    <contour>
      <point x="130" y="319" type="curve" smooth="yes"/>
      <point x="130" y="367"/>
      <point x="163" y="413"/>
      <point x="232" y="427" type="curve"/>
      <point x="245" y="413"/>
      <point x="261" y="399"/>
      <point x="279" y="382" type="curve" smooth="yes"/>
      <point x="312" y="352" type="line" smooth="yes"/>
      <point x="354" y="313"/>
      <point x="388" y="285"/>
      <point x="388" y="237" type="curve" smooth="yes"/>
      <point x="388" y="189"/>
      <point x="355" y="143"/>
      <point x="286" y="129" type="curve"/>
      <point x="273" y="143"/>
      <point x="257" y="157"/>
      <point x="239" y="174" type="curve" smooth="yes"/>
      <point x="206" y="204" type="line" smooth="yes"/>
      <point x="164" y="243"/>
      <point x="130" y="271"/>
    </contour>
  </outline>
</glyph>
<glyph name="dieresis" format="1">
  <advance width="600"/>
  <unicode hex="00A8"/>
  <outline>
    <contour>
      <point x="237" y="620" type="curve" smooth="yes" name="hr00"/>
      <point x="265" y="620"/>
      <point x="283" y="638"/>
      <point x="289" y="660" type="curve" smooth="yes"/>
      <point x="291" y="667"/>
      <point x="291" y="672"/>
      <point x="291" y="677" type="curve" smooth="yes"/>
      <point x="291" y="696"/>
      <point x="278" y="718"/>
      <point x="249" y="718" type="curve" smooth="yes"/>
      <point x="222" y="718"/>
      <point x="203" y="700"/>
      <point x="197" y="678" type="curve" smooth="yes"/>
      <point x="195" y="671"/>
      <point x="195" y="666"/>
      <point x="195" y="661" type="curve" smooth="yes"/>
      <point x="195" y="642"/>
      <point x="208" y="620"/>
    </contour>
    <contour>
      <point x="414" y="620" type="curve" smooth="yes"/>
      <point x="441" y="620"/>
      <point x="460" y="638"/>
      <point x="466" y="660" type="curve" smooth="yes"/>
      <point x="468" y="667"/>
      <point x="468" y="672"/>
      <point x="468" y="677" type="curve" smooth="yes"/>
      <point x="468" y="696"/>
      <point x="455" y="718"/>
      <point x="426" y="718" type="curve" smooth="yes"/>
      <point x="398" y="718"/>
      <point x="380" y="700"/>
      <point x="374" y="678" type="curve" smooth="yes"/>
      <point x="372" y="671"/>
      <point x="372" y="666"/>
      <point x="372" y="661" type="curve" smooth="yes"/>
      <point x="372" y="642"/>
      <point x="385" y="620"/>
    </contour>
    <contour>
      <point x="300.0" y="540.0" type="move" name="_top"/>
    </contour>
  </outline>
</glyph>
<glyph name="copyright" format="1">
  <advance width="778"/>
  <unicode hex="00A9"/>
  <outline>
    <contour>
      <point x="355" y="155" type="curve" smooth="yes" name="hr00"/>
      <point x="421" y="155"/>
      <point x="467" y="194"/>
      <point x="514" y="285" type="curve"/>
      <point x="491" y="297" type="line"/>
      <point x="454" y="233"/>
      <point x="413" y="199"/>
      <point x="373" y="199" type="curve" smooth="yes"/>
      <point x="339" y="199"/>
      <point x="324" y="223"/>
      <point x="324" y="261" type="curve" smooth="yes"/>
      <point x="324" y="291"/>
      <point x="333" y="339"/>
      <point x="342" y="374" type="curve" smooth="yes"/>
      <point x="370" y="486"/>
      <point x="407" y="510"/>
      <point x="452" y="510" type="curve" smooth="yes"/>
      <point x="473" y="510"/>
      <point x="489" y="506"/>
      <point x="500" y="499" type="curve"/>
      <point x="500" y="494" type="line"/>
      <point x="466" y="492"/>
      <point x="451" y="468"/>
      <point x="451" y="447" type="curve" smooth="yes"/>
      <point x="451" y="429"/>
      <point x="463" y="415"/>
      <point x="487" y="415" type="curve" smooth="yes"/>
      <point x="518" y="415"/>
      <point x="537" y="439"/>
      <point x="537" y="469" type="curve" smooth="yes"/>
      <point x="537" y="509"/>
      <point x="506" y="543"/>
      <point x="449" y="543" type="curve" smooth="yes"/>
      <point x="315" y="543"/>
      <point x="259" y="369"/>
      <point x="259" y="263" type="curve" smooth="yes"/>
      <point x="259" y="192"/>
      <point x="288" y="155"/>
    </contour>
    <contour>
      <point x="348" y="27" type="curve" smooth="yes"/>
      <point x="208" y="27"/>
      <point x="121" y="123"/>
      <point x="121" y="287" type="curve" smooth="yes"/>
      <point x="121" y="312"/>
      <point x="130" y="351"/>
      <point x="140" y="395" type="curve" smooth="yes"/>
      <point x="175" y="545"/>
      <point x="303" y="671"/>
      <point x="464" y="671" type="curve" smooth="yes"/>
      <point x="604" y="671"/>
      <point x="691" y="575"/>
      <point x="691" y="411" type="curve" smooth="yes"/>
      <point x="691" y="386"/>
      <point x="682" y="347"/>
      <point x="672" y="303" type="curve" smooth="yes"/>
      <point x="637" y="153"/>
      <point x="509" y="27"/>
    </contour>
    <contour>
      <point x="342" y="-12" type="curve" smooth="yes"/>
      <point x="565" y="-12"/>
      <point x="738" y="180"/>
      <point x="738" y="416" type="curve" smooth="yes"/>
      <point x="738" y="590"/>
      <point x="638" y="710"/>
      <point x="470" y="710" type="curve" smooth="yes"/>
      <point x="247" y="710"/>
      <point x="74" y="518"/>
      <point x="74" y="282" type="curve" smooth="yes"/>
      <point x="74" y="108"/>
      <point x="174" y="-12"/>
    </contour>
  </outline>
</glyph>
<glyph name="ordfeminine" format="1">
  <advance width="364"/>
  <unicode hex="00AA"/>
  <outline>
    <contour>
      <point x="152" y="346" type="curve" smooth="yes" name="hr00"/>
      <point x="195" y="346"/>
      <point x="239" y="372"/>
      <point x="267" y="438" type="curve"/>
      <point x="272" y="437" type="line"/>
      <point x="262" y="401"/>
      <point x="261" y="392"/>
      <point x="261" y="383" type="curve" smooth="yes"/>
      <point x="261" y="361"/>
      <point x="275" y="346"/>
      <point x="302" y="346" type="curve" smooth="yes"/>
      <point x="321" y="346"/>
      <point x="341" y="356"/>
      <point x="372" y="391" type="curve" smooth="yes"/>
      <point x="423" y="449" type="line"/>
      <point x="407" y="462" type="line"/>
      <point x="328" y="383" type="line"/>
      <point x="317" y="389" type="line"/>
      <point x="364" y="577" type="line" smooth="yes"/>
      <point x="367" y="590"/>
      <point x="369" y="609"/>
      <point x="369" y="622" type="curve" smooth="yes"/>
      <point x="369" y="675"/>
      <point x="327" y="704"/>
      <point x="269" y="704" type="curve" smooth="yes"/>
      <point x="196" y="704"/>
      <point x="144" y="665"/>
      <point x="144" y="624" type="curve" smooth="yes"/>
      <point x="144" y="601"/>
      <point x="158" y="591"/>
      <point x="176" y="591" type="curve" smooth="yes"/>
      <point x="200" y="591"/>
      <point x="217" y="610"/>
      <point x="217" y="635" type="curve" smooth="yes"/>
      <point x="217" y="648"/>
      <point x="211" y="655"/>
      <point x="204" y="659" type="curve"/>
      <point x="205" y="665" type="line"/>
      <point x="221" y="672"/>
      <point x="239" y="676"/>
      <point x="255" y="676" type="curve" smooth="yes"/>
      <point x="289" y="676"/>
      <point x="310" y="660"/>
      <point x="310" y="620" type="curve" smooth="yes"/>
      <point x="310" y="605"/>
      <point x="307" y="585"/>
      <point x="297" y="547" type="curve"/>
      <point x="133" y="537"/>
      <point x="81" y="480"/>
      <point x="81" y="413" type="curve" smooth="yes"/>
      <point x="81" y="376"/>
      <point x="106" y="346"/>
    </contour>
    <contour>
      <point x="176" y="381" type="curve" smooth="yes"/>
      <point x="153" y="381"/>
      <point x="141" y="397"/>
      <point x="141" y="421" type="curve" smooth="yes"/>
      <point x="141" y="442"/>
      <point x="147" y="462"/>
      <point x="162" y="478" type="curve" smooth="yes"/>
      <point x="184" y="501"/>
      <point x="224" y="516"/>
      <point x="290" y="523" type="curve"/>
      <point x="285" y="500" type="line" smooth="yes"/>
      <point x="273" y="450"/>
      <point x="215" y="381"/>
    </contour>
  </outline>
</glyph>
<glyph name="logicalnot" format="1">
  <advance width="550"/>
  <unicode hex="00AC"/>
  <outline>
    <contour>
      <point x="379" y="81" type="line" name="hr00"/>
      <point x="433" y="81" type="line"/>
      <point x="495" y="329" type="line"/>
      <point x="78" y="329" type="line"/>
      <point x="66" y="281" type="line"/>
      <point x="429" y="281" type="line"/>
    </contour>
  </outline>
</glyph>
<glyph name="registered" format="1">
  <advance width="451"/>
  <unicode hex="00AE"/>
  <outline>
    <contour>
      <point x="165" y="398" type="line" name="hr00"/>
      <point x="240" y="398" type="line"/>
      <point x="245" y="416" type="line"/>
      <point x="226" y="416" type="line"/>
      <point x="245" y="490" type="line"/>
      <point x="276" y="490" type="line"/>
      <point x="296" y="428" type="line" smooth="yes"/>
      <point x="303" y="404"/>
      <point x="315" y="398"/>
      <point x="341" y="398" type="curve" smooth="yes"/>
      <point x="353" y="398" type="line"/>
      <point x="358" y="416" type="line"/>
      <point x="355" y="416" type="line" smooth="yes"/>
      <point x="343" y="416"/>
      <point x="334" y="421"/>
      <point x="330" y="434" type="curve" smooth="yes"/>
      <point x="312" y="493" type="line"/>
      <point x="352" y="502"/>
      <point x="372" y="532"/>
      <point x="372" y="565" type="curve" smooth="yes"/>
      <point x="372" y="594"/>
      <point x="354" y="610"/>
      <point x="315" y="610" type="curve" smooth="yes"/>
      <point x="218" y="610" type="line"/>
      <point x="214" y="592" type="line"/>
      <point x="235" y="592" type="line"/>
      <point x="191" y="416" type="line"/>
      <point x="170" y="416" type="line"/>
    </contour>
    <contour>
      <point x="262" y="329" type="curve" smooth="yes"/>
      <point x="181" y="329"/>
      <point x="121" y="389"/>
      <point x="121" y="473" type="curve" smooth="yes"/>
      <point x="121" y="481"/>
      <point x="124" y="510"/>
      <point x="127" y="526" type="curve" smooth="yes"/>
      <point x="146" y="615"/>
      <point x="213" y="679"/>
      <point x="303" y="679" type="curve" smooth="yes"/>
      <point x="384" y="679"/>
      <point x="444" y="619"/>
      <point x="444" y="535" type="curve" smooth="yes"/>
      <point x="444" y="527"/>
      <point x="441" y="498"/>
      <point x="438" y="482" type="curve" smooth="yes"/>
      <point x="419" y="393"/>
      <point x="352" y="329"/>
    </contour>
    <contour>
      <point x="259" y="298" type="curve" smooth="yes"/>
      <point x="386" y="298"/>
      <point x="477" y="401"/>
      <point x="477" y="537" type="curve" smooth="yes"/>
      <point x="477" y="636"/>
      <point x="404" y="710"/>
      <point x="306" y="710" type="curve" smooth="yes"/>
      <point x="179" y="710"/>
      <point x="88" y="607"/>
      <point x="88" y="471" type="curve" smooth="yes"/>
      <point x="88" y="372"/>
      <point x="161" y="298"/>
    </contour>
    <contour>
      <point x="269" y="587" type="line"/>
      <point x="309" y="587" type="line" smooth="yes"/>
      <point x="323" y="587"/>
      <point x="332" y="581"/>
      <point x="332" y="567" type="curve" smooth="yes"/>
      <point x="332" y="560"/>
      <point x="330" y="552"/>
      <point x="328" y="543" type="curve" smooth="yes"/>
      <point x="324" y="525"/>
      <point x="310" y="511"/>
      <point x="293" y="511" type="curve"/>
      <point x="251" y="511" type="line"/>
    </contour>
  </outline>
</glyph>
<glyph name="macron" format="1">
  <advance width="600"/>
  <unicode hex="00AF"/>
  <outline>
    <contour>
      <point x="196" y="643" type="line" name="hr00"/>
      <point x="453" y="643" type="line"/>
      <point x="467" y="698" type="line"/>
      <point x="210" y="698" type="line"/>
    </contour>
    <contour>
      <point x="300.0" y="540.0" type="move" name="_top"/>
    </contour>
  </outline>
</glyph>
<glyph name="degree" format="1">
  <advance width="425"/>
  <unicode hex="00B0"/>
  <outline>
    <contour>
      <point x="260" y="368" type="curve" smooth="yes" name="hr00"/>
      <point x="366" y="368"/>
      <point x="442" y="451"/>
      <point x="442" y="560" type="curve" smooth="yes"/>
      <point x="442" y="649"/>
      <point x="378" y="710"/>
      <point x="297" y="710" type="curve" smooth="yes"/>
      <point x="191" y="710"/>
      <point x="115" y="627"/>
      <point x="115" y="519" type="curve" smooth="yes"/>
      <point x="115" y="429"/>
      <point x="179" y="368"/>
    </contour>
    <contour>
      <point x="265" y="417" type="curve"/>
      <point x="207" y="417"/>
      <point x="169" y="462"/>
      <point x="169" y="518" type="curve" smooth="yes"/>
      <point x="169" y="597"/>
      <point x="217" y="661"/>
      <point x="292" y="661" type="curve" smooth="yes"/>
      <point x="350" y="661"/>
      <point x="388" y="616"/>
      <point x="388" y="560" type="curve" smooth="yes"/>
      <point x="388" y="480"/>
      <point x="339" y="417"/>
    </contour>
  </outline>
</glyph>
<glyph name="plusminus" format="1">
  <advance width="550"/>
  <unicode hex="00B1"/>
  <outline>
    <contour>
      <point x="225" y="167" type="line" name="hr00"/>
      <point x="279" y="167" type="line"/>
      <point x="329" y="367" type="line"/>
      <point x="517" y="367" type="line"/>
      <point x="529" y="415" type="line"/>
      <point x="341" y="415" type="line"/>
      <point x="392" y="615" type="line"/>
      <point x="338" y="615" type="line"/>
      <point x="287" y="415" type="line"/>
      <point x="99" y="415" type="line"/>
      <point x="87" y="367" type="line"/>
      <point x="275" y="367" type="line"/>
    </contour>
    <contour>
      <point x="-4" y="0" type="line"/>
      <point x="426" y="0" type="line"/>
      <point x="438" y="48" type="line"/>
      <point x="8" y="48" type="line"/>
    </contour>
  </outline>
</glyph>
<glyph name="twosuperior" format="1">
  <advance width="350"/>
  <unicode hex="00B2"/>
  <outline>
    <contour>
      <point x="64" y="329" type="line" name="hr00"/>
      <point x="316" y="329" type="line"/>
      <point x="339" y="421" type="line"/>
      <point x="299" y="421" type="line"/>
      <point x="287" y="374" type="line"/>
      <point x="126" y="374" type="line"/>
      <point x="127" y="377" type="line"/>
      <point x="249" y="455" type="line" smooth="yes"/>
      <point x="298" y="486"/>
      <point x="371" y="542"/>
      <point x="371" y="622" type="curve" smooth="yes"/>
      <point x="371" y="673"/>
      <point x="336" y="704"/>
      <point x="268" y="704" type="curve" smooth="yes"/>
      <point x="201" y="704"/>
      <point x="140" y="663"/>
      <point x="140" y="616" type="curve" smooth="yes"/>
      <point x="140" y="595"/>
      <point x="152" y="581"/>
      <point x="174" y="581" type="curve" smooth="yes"/>
      <point x="199" y="581"/>
      <point x="218" y="601"/>
      <point x="218" y="630" type="curve" smooth="yes"/>
      <point x="218" y="642"/>
      <point x="212" y="651"/>
      <point x="199" y="656" type="curve"/>
      <point x="201" y="661" type="line"/>
      <point x="215" y="668"/>
      <point x="234" y="672"/>
      <point x="254" y="672" type="curve" smooth="yes"/>
      <point x="286" y="672"/>
      <point x="304" y="655"/>
      <point x="304" y="628" type="curve" smooth="yes"/>
      <point x="304" y="609"/>
      <point x="299" y="594"/>
      <point x="298" y="590" type="curve" smooth="yes"/>
      <point x="287" y="546"/>
      <point x="253" y="513"/>
      <point x="214" y="482" type="curve" smooth="yes"/>
      <point x="75" y="374" type="line"/>
    </contour>
  </outline>
</glyph>
<glyph name="threesuperior" format="1">
  <advance width="350"/>
  <unicode hex="00B3"/>
  <outline>
    <contour>
      <point x="180" y="324" type="curve" smooth="yes" name="hr00"/>
      <point x="286" y="324"/>
      <point x="338" y="387"/>
      <point x="338" y="452" type="curve" smooth="yes"/>
      <point x="338" y="487"/>
      <point x="314" y="514"/>
      <point x="277" y="522" type="curve"/>
      <point x="278" y="526" type="line"/>
      <point x="324" y="533"/>
      <point x="378" y="567"/>
      <point x="378" y="632" type="curve" smooth="yes"/>
      <point x="378" y="681"/>
      <point x="340" y="704"/>
      <point x="276" y="704" type="curve" smooth="yes"/>
      <point x="208" y="704"/>
      <point x="146" y="664"/>
      <point x="146" y="620" type="curve" smooth="yes"/>
      <point x="146" y="600"/>
      <point x="156" y="585"/>
      <point x="180" y="585" type="curve" smooth="yes"/>
      <point x="205" y="585"/>
      <point x="224" y="604"/>
      <point x="224" y="628" type="curve" smooth="yes"/>
      <point x="224" y="642"/>
      <point x="215" y="654"/>
      <point x="206" y="658" type="curve"/>
      <point x="208" y="662" type="line"/>
      <point x="221" y="667"/>
      <point x="241" y="672"/>
      <point x="262" y="672" type="curve" smooth="yes"/>
      <point x="290" y="672"/>
      <point x="309" y="659"/>
      <point x="309" y="633" type="curve" smooth="yes"/>
      <point x="309" y="623"/>
      <point x="304" y="606"/>
      <point x="303" y="602" type="curve" smooth="yes"/>
      <point x="295" y="570"/>
      <point x="266" y="539"/>
      <point x="219" y="539" type="curve"/>
      <point x="196" y="539" type="line"/>
      <point x="187" y="504" type="line"/>
      <point x="218" y="504" type="line"/>
      <point x="253" y="504"/>
      <point x="273" y="489"/>
      <point x="273" y="461" type="curve" smooth="yes"/>
      <point x="273" y="451"/>
      <point x="268" y="433"/>
      <point x="267" y="429" type="curve" smooth="yes"/>
      <point x="256" y="385"/>
      <point x="217" y="356"/>
      <point x="172" y="356" type="curve" smooth="yes"/>
      <point x="153" y="356"/>
      <point x="135" y="359"/>
      <point x="124" y="367" type="curve"/>
      <point x="126" y="372" type="line"/>
      <point x="145" y="376"/>
      <point x="160" y="391"/>
      <point x="160" y="413" type="curve" smooth="yes"/>
      <point x="160" y="434"/>
      <point x="146" y="447"/>
      <point x="126" y="447" type="curve" smooth="yes"/>
      <point x="102" y="447"/>
      <point x="81" y="426"/>
      <point x="81" y="396" type="curve" smooth="yes"/>
      <point x="81" y="355"/>
      <point x="119" y="324"/>
    </contour>
  </outline>
</glyph>
<glyph name="acute" format="1">
  <advance width="600"/>
  <unicode hex="00B4"/>
  <outline>
    <contour>
      <point x="307" y="585" type="line" name="hr00"/>
      <point x="456" y="734" type="line"/>
      <point x="387" y="769" type="line"/>
      <point x="280" y="598" type="line"/>
    </contour>
    <contour>
      <point x="300.0" y="540.0" type="move" name="_top"/>
    </contour>
  </outline>
</glyph>
<glyph name="mu" format="1">
  <advance width="565"/>
  <unicode hex="00B5"/>
  <outline>
    <contour>
      <point x="-20" y="-200" type="line" name="hr00"/>
      <point x="61" y="-200" type="line"/>
      <point x="75" y="-143" type="line"/>
      <point x="86" y="57" type="line"/>
      <point x="94" y="57" type="line"/>
      <point x="94" y="12"/>
      <point x="113" y="-12"/>
      <point x="150" y="-12" type="curve" smooth="yes"/>
      <point x="232" y="-12"/>
      <point x="298" y="94"/>
      <point x="353" y="196" type="curve"/>
      <point x="361" y="193" type="line"/>
      <point x="336" y="94" type="line" smooth="yes"/>
      <point x="333" y="82"/>
      <point x="328" y="59"/>
      <point x="328" y="44" type="curve" smooth="yes"/>
      <point x="328" y="14"/>
      <point x="345" y="-12"/>
      <point x="384" y="-12" type="curve" smooth="yes"/>
      <point x="412" y="-12"/>
      <point x="439" y="1"/>
      <point x="487" y="58" type="curve" smooth="yes"/>
      <point x="558" y="141" type="line"/>
      <point x="534" y="160" type="line"/>
      <point x="419" y="45" type="line"/>
      <point x="401" y="53" type="line"/>
      <point x="518" y="516" type="line"/>
      <point x="438" y="516" type="line"/>
      <point x="400" y="364" type="line" smooth="yes"/>
      <point x="359" y="199"/>
      <point x="235" y="52"/>
      <point x="164" y="52" type="curve" smooth="yes"/>
      <point x="146" y="52"/>
      <point x="137" y="59"/>
      <point x="137" y="85" type="curve" smooth="yes"/>
      <point x="137" y="95"/>
      <point x="143" y="114"/>
      <point x="147" y="130" type="curve" smooth="yes"/>
      <point x="256" y="528" type="line"/>
      <point x="72" y="490" type="line"/>
      <point x="64" y="455" type="line"/>
      <point x="154" y="455" type="line"/>
    </contour>
  </outline>
</glyph>
<glyph name="paragraph" format="1">
  <advance width="558"/>
  <unicode hex="00B6"/>
  <outline>
    <contour>
      <point x="164" y="-154" type="curve" smooth="yes" name="hr00"/>
      <point x="279" y="-154"/>
      <point x="357" y="-79"/>
      <point x="394" y="67" type="curve" smooth="yes"/>
      <point x="542" y="657" type="line"/>
      <point x="613" y="657" type="line"/>
      <point x="623" y="698" type="line"/>
      <point x="368" y="698" type="line" smooth="yes"/>
      <point x="219" y="698"/>
      <point x="85" y="615"/>
      <point x="85" y="474" type="curve" smooth="yes"/>
      <point x="85" y="360"/>
      <point x="168" y="307"/>
      <point x="281" y="306" type="curve"/>
      <point x="176" y="-114" type="line"/>
      <point x="169" y="-114" type="line" smooth="yes"/>
      <point x="128" y="-114"/>
      <point x="98" y="-105"/>
      <point x="80" y="-90" type="curve"/>
      <point x="82" y="-82" type="line"/>
      <point x="114" y="-76"/>
      <point x="133" y="-53"/>
      <point x="133" y="-20" type="curve" smooth="yes"/>
      <point x="133" y="4"/>
      <point x="116" y="24"/>
      <point x="85" y="24" type="curve" smooth="yes"/>
      <point x="52" y="24"/>
      <point x="22" y="-3"/>
      <point x="22" y="-50" type="curve" smooth="yes"/>
      <point x="22" y="-107"/>
      <point x="81" y="-154"/>
    </contour>
    <contour>
      <point x="415" y="657" type="line"/>
      <point x="496" y="657" type="line"/>
      <point x="348" y="67" type="line" smooth="yes"/>
      <point x="325" y="-26"/>
      <point x="282" y="-83"/>
      <point x="225" y="-104" type="curve"/>
    </contour>
  </outline>
</glyph>
<glyph name="periodcentered" format="1">
  <advance width="301"/>
  <unicode hex="00B7"/>
  <outline>
    <contour>
      <point x="149" y="241" type="curve" smooth="yes" name="hr00"/>
      <point x="182" y="241"/>
      <point x="209" y="261"/>
      <point x="218" y="294" type="curve" smooth="yes"/>
      <point x="221" y="306"/>
      <point x="221" y="311"/>
      <point x="221" y="317" type="curve" smooth="yes"/>
      <point x="221" y="343"/>
      <point x="202" y="367"/>
      <point x="167" y="367" type="curve" smooth="yes"/>
      <point x="134" y="367"/>
      <point x="107" y="347"/>
      <point x="98" y="314" type="curve" smooth="yes"/>
      <point x="95" y="302"/>
      <point x="95" y="297"/>
      <point x="95" y="291" type="curve" smooth="yes"/>
      <point x="95" y="265"/>
      <point x="114" y="241"/>
    </contour>
  </outline>
</glyph>
<glyph name="cedilla" format="1">
  <advance width="600"/>
  <unicode hex="00B8"/>
  <outline>
    <contour>
      <point x="263" y="-206" type="curve" smooth="yes" name="hr00"/>
      <point x="321" y="-206"/>
      <point x="380" y="-170"/>
      <point x="380" y="-109" type="curve" smooth="yes"/>
      <point x="380" y="-78"/>
      <point x="358" y="-60"/>
      <point x="326" y="-60" type="curve" smooth="yes"/>
      <point x="316" y="-60"/>
      <point x="304" y="-61"/>
      <point x="293" y="-65" type="curve"/>
      <point x="291" y="-62" type="line"/>
      <point x="322" y="8" type="line"/>
      <point x="285" y="8" type="line"/>
      <point x="247" y="-78" type="line"/>
      <point x="274" y="-81" type="line" smooth="yes"/>
      <point x="308" y="-84"/>
      <point x="319" y="-98"/>
      <point x="319" y="-117" type="curve" smooth="yes"/>
      <point x="319" y="-124"/>
      <point x="314" y="-170"/>
      <point x="260" y="-170" type="curve" smooth="yes"/>
      <point x="238" y="-170"/>
      <point x="220" y="-162"/>
      <point x="209" y="-146" type="curve"/>
      <point x="189" y="-165" type="line"/>
      <point x="199" y="-187"/>
      <point x="223" y="-206"/>
    </contour>
    <contour>
      <point x="300.0" y="0.0" type="move" name="_bottom"/>
    </contour>
  </outline>
</glyph>
<glyph name="onesuperior" format="1">
  <advance width="340"/>
  <unicode hex="00B9"/>
  <outline>
    <contour>
      <point x="71" y="329" type="line" name="hr00"/>
      <point x="317" y="329" type="line"/>
      <point x="326" y="365" type="line"/>
      <point x="241" y="365" type="line"/>
      <point x="324" y="698" type="line"/>
      <point x="274" y="698" type="line"/>
      <point x="130" y="636" type="line"/>
      <point x="137" y="604" type="line"/>
      <point x="247" y="648" type="line"/>
      <point x="176" y="365" type="line"/>
      <point x="80" y="365" type="line"/>
    </contour>
  </outline>
</glyph>
<glyph name="ordmasculine" format="1">
  <advance width="371"/>
  <unicode hex="00BA"/>
  <outline>
    <contour>
      <point x="213" y="378" type="curve" smooth="yes" name="hr00"/>
      <point x="177" y="378"/>
      <point x="153" y="400"/>
      <point x="153" y="444" type="curve" smooth="yes"/>
      <point x="153" y="477"/>
      <point x="168" y="527"/>
      <point x="175" y="555" type="curve" smooth="yes"/>
      <point x="191" y="619"/>
      <point x="228" y="672"/>
      <point x="288" y="672" type="curve" smooth="yes"/>
      <point x="324" y="672"/>
      <point x="348" y="650"/>
      <point x="348" y="606" type="curve" smooth="yes"/>
      <point x="348" y="573"/>
      <point x="333" y="523"/>
      <point x="326" y="495" type="curve" smooth="yes"/>
      <point x="310" y="431"/>
      <point x="273" y="378"/>
    </contour>
    <contour>
      <point x="210" y="346" type="curve" smooth="yes"/>
      <point x="325" y="346"/>
      <point x="405" y="464"/>
      <point x="405" y="584" type="curve" smooth="yes"/>
      <point x="405" y="651"/>
      <point x="371" y="704"/>
      <point x="291" y="704" type="curve" smooth="yes"/>
      <point x="176" y="704"/>
      <point x="96" y="586"/>
      <point x="96" y="466" type="curve" smooth="yes"/>
      <point x="96" y="399"/>
      <point x="130" y="346"/>
    </contour>
  </outline>
</glyph>
<glyph name="questiondown" format="1">
  <advance width="444"/>
  <unicode hex="00BF"/>
  <outline>
    <contour>
      <point x="120" y="-193" type="curve" smooth="yes" name="hr00"/>
      <point x="216" y="-193"/>
      <point x="332" y="-136"/>
      <point x="332" y="-57" type="curve" smooth="yes"/>
      <point x="332" y="-26"/>
      <point x="312" y="-6"/>
      <point x="280" y="-6" type="curve" smooth="yes"/>
      <point x="238" y="-6"/>
      <point x="217" y="-44"/>
      <point x="217" y="-70" type="curve" smooth="yes"/>
      <point x="217" y="-96"/>
      <point x="230" y="-110"/>
      <point x="248" y="-117" type="curve"/>
      <point x="246" y="-124" type="line"/>
      <point x="224" y="-139"/>
      <point x="180" y="-147"/>
      <point x="142" y="-147" type="curve" smooth="yes"/>
      <point x="86" y="-147"/>
      <point x="51" y="-118"/>
      <point x="51" y="-64" type="curve" smooth="yes"/>
      <point x="51" y="-40"/>
      <point x="59" y="-11"/>
      <point x="62" y="1" type="curve" smooth="yes"/>
      <point x="85" y="91"/>
      <point x="165" y="145"/>
      <point x="266" y="150" type="curve"/>
      <point x="306" y="312" type="line"/>
      <point x="256" y="312" type="line"/>
      <point x="226" y="192" type="line"/>
      <point x="101" y="181"/>
      <point x="-35" y="92"/>
      <point x="-35" y="-60" type="curve" smooth="yes"/>
      <point x="-35" y="-135"/>
      <point x="10" y="-193"/>
    </contour>
    <contour>
      <point x="307" y="402" type="curve" smooth="yes"/>
      <point x="340" y="402"/>
      <point x="367" y="422"/>
      <point x="376" y="455" type="curve" smooth="yes"/>
      <point x="379" y="467"/>
      <point x="379" y="472"/>
      <point x="379" y="478" type="curve" smooth="yes"/>
      <point x="379" y="504"/>
      <point x="360" y="528"/>
      <point x="325" y="528" type="curve" smooth="yes"/>
      <point x="292" y="528"/>
      <point x="265" y="508"/>
      <point x="256" y="475" type="curve" smooth="yes"/>
      <point x="253" y="463"/>
      <point x="253" y="458"/>
      <point x="253" y="452" type="curve" smooth="yes"/>
      <point x="253" y="426"/>
      <point x="272" y="402"/>
    </contour>
  </outline>
</glyph>
<glyph name="AE" format="1">
  <advance width="897"/>
  <unicode hex="00C6"/>
  <outline>
    <contour>
      <point x="-53" y="0" type="line" name="hr00"/>
      <point x="136" y="0" type="line"/>
      <point x="146" y="41" type="line"/>
      <point x="71" y="41" type="line"/>
      <point x="206" y="231" type="line"/>
      <point x="414" y="231" type="line"/>
      <point x="366" y="41" type="line"/>
      <point x="293" y="41" type="line"/>
      <point x="283" y="0" type="line"/>
      <point x="780" y="0" type="line"/>
      <point x="824" y="177" type="line"/>
      <point x="756" y="177" type="line"/>
      <point x="723" y="45" type="line"/>
      <point x="452" y="45" type="line"/>
      <point x="525" y="337" type="line"/>
      <point x="711" y="337" type="line"/>
      <point x="690" y="255" type="line"/>
      <point x="741" y="255" type="line"/>
      <point x="794" y="465" type="line"/>
      <point x="743" y="465" type="line"/>
      <point x="722" y="382" type="line"/>
      <point x="536" y="382" type="line"/>
      <point x="603" y="653" type="line"/>
      <point x="864" y="653" type="line"/>
      <point x="834" y="530" type="line"/>
      <point x="902" y="530" type="line"/>
      <point x="944" y="698" type="line"/>
      <point x="393" y="698" type="line"/>
      <point x="383" y="657" type="line"/>
      <point x="458" y="657" type="line"/>
      <point x="9" y="41" type="line"/>
      <point x="-43" y="41" type="line"/>
    </contour>
    <contour>
      <point x="513" y="657" type="line"/>
      <point x="519" y="657" type="line"/>
      <point x="424" y="274" type="line"/>
      <point x="235" y="274" type="line"/>
    </contour>
    <contour>
      <point x="604.0" y="698.0" type="move" name="top"/>
    </contour>
  </outline>
</glyph>
<glyph name="Ccedilla" format="1">
  <advance width="591"/>
  <unicode hex="00C7"/>
  <outline>
    <contour>
      <point x="229" y="-206" type="curve" smooth="yes" name="hr00"/>
      <point x="287" y="-206"/>
      <point x="346" y="-170"/>
      <point x="346" y="-109" type="curve" smooth="yes"/>
      <point x="346" y="-78"/>
      <point x="324" y="-60"/>
      <point x="292" y="-60" type="curve" smooth="yes"/>
      <point x="282" y="-60"/>
      <point x="270" y="-61"/>
      <point x="259" y="-65" type="curve"/>
      <point x="257" y="-62" type="line"/>
      <point x="279" y="-11" type="line"/>
      <point x="402" y="-3"/>
      <point x="491" y="83"/>
      <point x="528" y="157" type="curve"/>
      <point x="494" y="179" type="line"/>
      <point x="447" y="103"/>
      <point x="375" y="46"/>
      <point x="285" y="46" type="curve" smooth="yes"/>
      <point x="188" y="46"/>
      <point x="139" y="107"/>
      <point x="139" y="204" type="curve" smooth="yes"/>
      <point x="139" y="251"/>
      <point x="149" y="288"/>
      <point x="178" y="406" type="curve" smooth="yes"/>
      <point x="210" y="535"/>
      <point x="293" y="662"/>
      <point x="428" y="662" type="curve" smooth="yes"/>
      <point x="499" y="662"/>
      <point x="546" y="627"/>
      <point x="546" y="574" type="curve" smooth="yes"/>
      <point x="546" y="567"/>
      <point x="545" y="558"/>
      <point x="543" y="550" type="curve" smooth="yes"/>
      <point x="529" y="494" type="line"/>
      <point x="596" y="494" type="line"/>
      <point x="647" y="698" type="line"/>
      <point x="580" y="698" type="line"/>
      <point x="563" y="634" type="line"/>
      <point x="558" y="634" type="line"/>
      <point x="545" y="677"/>
      <point x="494" y="710"/>
      <point x="416" y="710" type="curve" smooth="yes"/>
      <point x="176" y="710"/>
      <point x="55" y="414"/>
      <point x="55" y="220" type="curve" smooth="yes"/>
      <point x="55" y="76"/>
      <point x="125" y="-4"/>
      <point x="242" y="-11" type="curve"/>
      <point x="213" y="-78" type="line"/>
      <point x="240" y="-81" type="line" smooth="yes"/>
      <point x="274" y="-84"/>
      <point x="285" y="-98"/>
      <point x="285" y="-117" type="curve" smooth="yes"/>
      <point x="285" y="-124"/>
      <point x="280" y="-170"/>
      <point x="226" y="-170" type="curve" smooth="yes"/>
      <point x="204" y="-170"/>
      <point x="186" y="-162"/>
      <point x="175" y="-146" type="curve"/>
      <point x="155" y="-165" type="line"/>
      <point x="165" y="-187"/>
      <point x="188" y="-206"/>
    </contour>
  </outline>
</glyph>
<glyph name="multiply" format="1">
  <advance width="550"/>
  <unicode hex="00D7"/>
  <outline>
    <contour>
      <point x="85" y="101" type="line" name="hr00"/>
      <point x="280" y="269" type="line"/>
      <point x="392" y="101" type="line"/>
      <point x="433" y="131" type="line"/>
      <point x="319" y="301" type="line"/>
      <point x="520" y="474" type="line"/>
      <point x="489" y="509" type="line"/>
      <point x="293" y="340" type="line"/>
      <point x="180" y="509" type="line"/>
      <point x="139" y="479" type="line"/>
      <point x="254" y="308" type="line"/>
      <point x="53" y="136" type="line"/>
    </contour>
  </outline>
</glyph>
<glyph name="Oslash" format="1">
  <advance width="674"/>
  <unicode hex="00D8"/>
  <outline>
    <contour>
      <point x="49" y="-44" type="line" name="hr00"/>
      <point x="124" y="44" type="line"/>
      <point x="162" y="8"/>
      <point x="215" y="-12"/>
      <point x="280" y="-12" type="curve" smooth="yes"/>
      <point x="558" y="-12"/>
      <point x="660" y="310"/>
      <point x="660" y="465" type="curve" smooth="yes"/>
      <point x="660" y="527"/>
      <point x="646" y="580"/>
      <point x="620" y="620" type="curve"/>
      <point x="700" y="714" type="line"/>
      <point x="668" y="743" type="line"/>
      <point x="592" y="653" type="line"/>
      <point x="554" y="690"/>
      <point x="501" y="710"/>
      <point x="436" y="710" type="curve" smooth="yes"/>
      <point x="158" y="710"/>
      <point x="56" y="388"/>
      <point x="56" y="233" type="curve" smooth="yes"/>
      <point x="56" y="170"/>
      <point x="70" y="118"/>
      <point x="97" y="78" type="curve"/>
      <point x="17" y="-16" type="line"/>
    </contour>
    <contour>
      <point x="426" y="661" type="curve" smooth="yes"/>
      <point x="487" y="661"/>
      <point x="527" y="639"/>
      <point x="549" y="604" type="curve"/>
      <point x="148" y="137" type="line"/>
      <point x="143" y="155"/>
      <point x="141" y="175"/>
      <point x="141" y="196" type="curve" smooth="yes"/>
      <point x="141" y="249"/>
      <point x="152" y="298"/>
      <point x="176" y="397" type="curve" smooth="yes"/>
      <point x="212" y="545"/>
      <point x="297" y="661"/>
    </contour>
    <contour>
      <point x="290" y="37" type="curve" smooth="yes"/>
      <point x="229" y="37"/>
      <point x="190" y="59"/>
      <point x="167" y="94" type="curve"/>
      <point x="568" y="560" type="line"/>
      <point x="573" y="542"/>
      <point x="575" y="523"/>
      <point x="575" y="502" type="curve" smooth="yes"/>
      <point x="575" y="449"/>
      <point x="564" y="400"/>
      <point x="540" y="301" type="curve" smooth="yes"/>
      <point x="504" y="153"/>
      <point x="419" y="37"/>
    </contour>
    <contour>
      <point x="433.0" y="698.0" type="move" name="top"/>
    </contour>
  </outline>
</glyph>
<glyph name="Ugrave" format="1">
  <advance width="674"/>
  <unicode hex="00D9"/>
  <outline>
    <component base="U"/>
    <component base="grave.case" xOffset="162"/>
    <contour>
      <point x="290.0" y="0.0" type="move" name="bottom"/>
    </contour>
    <contour>
      <point x="382.0" y="0.0" type="move" name="bottomright"/>
    </contour>
  </outline>
</glyph>
<glyph name="Thorn" format="1">
  <advance width="573"/>
  <unicode hex="00DE"/>
  <outline>
    <contour>
      <point x="-21" y="0" type="line" name="hr00"/>
      <point x="206" y="0" type="line"/>
      <point x="216" y="41" type="line"/>
      <point x="145" y="41" type="line"/>
      <point x="176" y="165" type="line"/>
      <point x="327" y="165" type="line" smooth="yes"/>
      <point x="531" y="165"/>
      <point x="565" y="339"/>
      <point x="565" y="407" type="curve" smooth="yes"/>
      <point x="565" y="491"/>
      <point x="508" y="539"/>
      <point x="413" y="539" type="curve" smooth="yes"/>
      <point x="269" y="539" type="line"/>
      <point x="298" y="657" type="line"/>
      <point x="369" y="657" type="line"/>
      <point x="379" y="698" type="line"/>
      <point x="152" y="698" type="line"/>
      <point x="142" y="657" type="line"/>
      <point x="213" y="657" type="line"/>
      <point x="60" y="41" type="line"/>
      <point x="-11" y="41" type="line"/>
    </contour>
    <contour>
      <point x="257" y="494" type="line"/>
      <point x="402" y="494" type="line" smooth="yes"/>
      <point x="456" y="494"/>
      <point x="482" y="461"/>
      <point x="482" y="411" type="curve" smooth="yes"/>
      <point x="482" y="386"/>
      <point x="470" y="345"/>
      <point x="466" y="328" type="curve" smooth="yes"/>
      <point x="449" y="260"/>
      <point x="395" y="210"/>
      <point x="329" y="210" type="curve" smooth="yes"/>
      <point x="187" y="210" type="line"/>
    </contour>
  </outline>
</glyph>
<glyph name="germandbls" format="1">
  <advance width="574"/>
  <unicode hex="00DF"/>
  <outline>
    <contour>
      <point x="-80" y="-212" type="curve" smooth="yes" name="hr00"/>
      <point x="17" y="-212"/>
      <point x="84" y="-143"/>
      <point x="109" y="-44" type="curve" smooth="yes"/>
      <point x="264" y="577" type="line" smooth="yes"/>
      <point x="288" y="675"/>
      <point x="330" y="722"/>
      <point x="410" y="722" type="curve" smooth="yes"/>
      <point x="465" y="722"/>
      <point x="497" y="689"/>
      <point x="497" y="626" type="curve" smooth="yes"/>
      <point x="497" y="606"/>
      <point x="495" y="590"/>
      <point x="489" y="565" type="curve" smooth="yes"/>
      <point x="478" y="518" type="line"/>
      <point x="377" y="514"/>
      <point x="308" y="457"/>
      <point x="308" y="369" type="curve" smooth="yes"/>
      <point x="308" y="320"/>
      <point x="330" y="288"/>
      <point x="360" y="254" type="curve" smooth="yes"/>
      <point x="407" y="200"/>
      <point x="439" y="169"/>
      <point x="439" y="113" type="curve" smooth="yes"/>
      <point x="439" y="32"/>
      <point x="363" y="15"/>
      <point x="310" y="15" type="curve"/>
      <point x="307" y="22" type="line"/>
      <point x="318" y="33"/>
      <point x="324" y="50"/>
      <point x="324" y="65" type="curve" smooth="yes"/>
      <point x="324" y="96"/>
      <point x="305" y="111"/>
      <point x="277" y="111" type="curve" smooth="yes"/>
      <point x="244" y="111"/>
      <point x="224" y="85"/>
      <point x="224" y="56" type="curve" smooth="yes"/>
      <point x="224" y="17"/>
      <point x="255" y="-12"/>
      <point x="327" y="-12" type="curve" smooth="yes"/>
      <point x="435" y="-12"/>
      <point x="515" y="51"/>
      <point x="515" y="145" type="curve" smooth="yes"/>
      <point x="515" y="198"/>
      <point x="489" y="230"/>
      <point x="463" y="261" type="curve" smooth="yes"/>
      <point x="417" y="314"/>
      <point x="384" y="346"/>
      <point x="384" y="398" type="curve" smooth="yes"/>
      <point x="384" y="462"/>
      <point x="439" y="489"/>
      <point x="503" y="489" type="curve" smooth="yes"/>
      <point x="546" y="489" type="line"/>
      <point x="561" y="552" type="line" smooth="yes"/>
      <point x="566" y="577"/>
      <point x="569" y="593"/>
      <point x="569" y="614" type="curve" smooth="yes"/>
      <point x="569" y="702"/>
      <point x="516" y="760"/>
      <point x="412" y="760" type="curve" smooth="yes"/>
      <point x="294" y="760"/>
      <point x="211" y="690"/>
      <point x="179" y="561" type="curve" smooth="yes"/>
      <point x="168" y="516" type="line"/>
      <point x="76" y="516" type="line"/>
      <point x="65" y="471" type="line"/>
      <point x="156" y="471" type="line"/>
      <point x="24" y="-60" type="line" smooth="yes"/>
      <point x="5" y="-138"/>
      <point x="-24" y="-186"/>
      <point x="-85" y="-186" type="curve"/>
      <point x="-89" y="-179" type="line"/>
      <point x="-70" y="-167"/>
      <point x="-66" y="-149"/>
      <point x="-66" y="-137" type="curve" smooth="yes"/>
      <point x="-66" y="-111"/>
      <point x="-84" y="-90"/>
      <point x="-114" y="-90" type="curve" smooth="yes"/>
      <point x="-147" y="-90"/>
      <point x="-169" y="-116"/>
      <point x="-169" y="-149" type="curve" smooth="yes"/>
      <point x="-169" y="-184"/>
      <point x="-145" y="-212"/>
    </contour>
  </outline>
</glyph>
<glyph name="aring" format="1">
  <advance width="544"/>
  <unicode hex="00E5"/>
  <outline>
    <component base="a"/>
    <component base="ring" xOffset="11"/>
    <contour>
      <point x="229.0" y="0.0" type="move" name="bottom"/>
    </contour>
    <contour>
      <point x="402.0" y="0.0" type="move" name="bottomright"/>
    </contour>
  </outline>
</glyph>
<glyph name="ae" format="1">
  <advance width="692"/>
  <unicode hex="00E6"/>
  <outline>
    <contour>
      <point x="116" y="-12" type="curve" smooth="yes" name="hr00"/>
      <point x="176" y="-12"/>
      <point x="253" y="25"/>
      <point x="295" y="125" type="curve"/>
      <point x="302" y="125" type="line"/>
      <point x="302" y="69"/>
      <point x="311" y="-12"/>
      <point x="417" y="-12" type="curve" smooth="yes"/>
      <point x="513" y="-12"/>
      <point x="573" y="47"/>
      <point x="638" y="174" type="curve"/>
      <point x="607" y="189" type="line"/>
      <point x="557" y="99"/>
      <point x="500" y="45"/>
      <point x="441" y="45" type="curve" smooth="yes"/>
      <point x="393" y="45"/>
      <point x="372" y="79"/>
      <point x="372" y="134" type="curve" smooth="yes"/>
      <point x="372" y="172"/>
      <point x="382" y="222"/>
      <point x="390" y="260" type="curve"/>
      <point x="613" y="275"/>
      <point x="677" y="352"/>
      <point x="677" y="429" type="curve" smooth="yes"/>
      <point x="677" y="507"/>
      <point x="609" y="528"/>
      <point x="554" y="528" type="curve" smooth="yes"/>
      <point x="492" y="528"/>
      <point x="436" y="496"/>
      <point x="403" y="446" type="curve"/>
      <point x="396" y="446" type="line"/>
      <point x="386" y="494"/>
      <point x="346" y="528"/>
      <point x="282" y="528" type="curve" smooth="yes"/>
      <point x="184" y="528"/>
      <point x="102" y="468"/>
      <point x="102" y="410" type="curve" smooth="yes"/>
      <point x="102" y="376"/>
      <point x="123" y="359"/>
      <point x="150" y="359" type="curve" smooth="yes"/>
      <point x="185" y="359"/>
      <point x="209" y="385"/>
      <point x="209" y="423" type="curve" smooth="yes"/>
      <point x="209" y="442"/>
      <point x="199" y="458"/>
      <point x="189" y="465" type="curve"/>
      <point x="191" y="472" type="line"/>
      <point x="214" y="484"/>
      <point x="237" y="490"/>
      <point x="261" y="490" type="curve" smooth="yes"/>
      <point x="308" y="490"/>
      <point x="339" y="464"/>
      <point x="339" y="404" type="curve" smooth="yes"/>
      <point x="339" y="373"/>
      <point x="323" y="310"/>
      <point x="317" y="286" type="curve"/>
      <point x="86" y="273"/>
      <point x="17" y="189"/>
      <point x="17" y="90" type="curve" smooth="yes"/>
      <point x="17" y="33"/>
      <point x="56" y="-12"/>
    </contour>
    <contour>
      <point x="147" y="42" type="curve" smooth="yes"/>
      <point x="109" y="42"/>
      <point x="96" y="65"/>
      <point x="96" y="101" type="curve" smooth="yes"/>
      <point x="96" y="114"/>
      <point x="97" y="124"/>
      <point x="101" y="137" type="curve" smooth="yes"/>
      <point x="120" y="200"/>
      <point x="180" y="241"/>
      <point x="310" y="256" type="curve"/>
      <point x="300" y="216" type="line" smooth="yes"/>
      <point x="280" y="133"/>
      <point x="203" y="42"/>
    </contour>
    <contour>
      <point x="397" y="291" type="curve"/>
      <point x="434" y="440"/>
      <point x="482" y="487"/>
      <point x="541" y="487" type="curve" smooth="yes"/>
      <point x="586" y="487"/>
      <point x="600" y="459"/>
      <point x="600" y="422" type="curve" smooth="yes"/>
      <point x="600" y="346"/>
      <point x="536" y="307"/>
    </contour>
    <contour>
      <point x="421.0" y="540.0" type="move" name="top"/>
    </contour>
  </outline>
</glyph>
